{
.appVersion = "3234";
.formatVersion = 3;
DisplayStrings = (
"pṕPAƁAλƥƛAþAᵽ
ɛTaƁabƬʃACʒǯƹ",
"0123456.789,
africaABCD4EFGH1IJKLMN
O9P8Q6RS2TUVWXYZ"
);
axes = (
{
name = "Element Shape";
tag = ELSH;
}
);
customParameters = (
{
name = "Virtual Master";
value = (
{
Axis = "Element Shape";
Location = 0;
}
);
},
{
name = "Virtual Master";
value = (
{
Axis = "Element Shape";
Location = 50;
}
);
},
{
name = "Virtual Master";
value = (
{
Axis = "Element Shape";
Location = 100;
}
);
},
{
name = "Use Typo Metrics";
value = 1;
},
{
name = blueScale;
value = 0.04;
},
{
name = blueShift;
value = 7;
},
{
name = blueFuzz;
value = 1;
},
{
name = "Axis Mappings";
value = {
ELSH = {
0 = 0;
50 = 50;
100 = 100;
};
};
},
{
name = "Variable Font Origin";
value = m01;
},
{
name = fsType;
value = (
);
}
);
date = "2023-02-21 22:06:01 +0000";
familyName = Danfo;
featurePrefixes = (
{
automatic = 1;
code = "languagesystem DFLT dflt;

languagesystem latn dflt;
languagesystem latn AZE;
languagesystem latn CRT;
languagesystem latn KAZ;
languagesystem latn TAT;
languagesystem latn TRK;
languagesystem latn ROM;
languagesystem latn MOL;
languagesystem latn CAT;
languagesystem latn NLD;
";
name = Languagesystems;
}
);
features = (
{
automatic = 1;
code = "feature locl;
feature subs;
feature sinf;
feature sups;
feature numr;
feature dnom;
feature frac;
feature ordn;
feature lnum;
feature pnum;
feature tnum;
feature onum;
feature case;
feature zero;
feature fwid;
feature ss01;
feature ss02;
feature ss03;
";
tag = aalt;
},
{
automatic = 1;
code = "lookup ccmp_DFLT_1 {
	lookupflag 0;
	sub acutecomb macroncomb by acutecomb_macroncomb;
	sub brevecomb acutecomb by brevecomb_acutecomb;
	sub brevecomb gravecomb by brevecomb_gravecomb;
	sub brevecomb hookabovecomb by brevecomb_hookabovecomb;
	sub brevecomb tildecomb by brevecomb_tildecomb;
	sub circumflexcomb acutecomb by circumflexcomb_acutecomb;
	sub circumflexcomb gravecomb by circumflexcomb_gravecomb;

glyphs = (
{
glyphname = A;
kernLeft = A;
kernRight = A;
lastChange = "2024-01-31 14:54:01 +0000";
layers = (
{
anchors = (
{
name = bottom;
pos = (337,0);
},
{
name = ogonek;
pos = (671,0);
},
{
name = top;
pos = (345,716);
}
);
layerId = m01;
shapes = (
{
closed = 1;
nodes = (
(286,0,l),
(286,439,l),
(260,439,ls),
(243,439,o),
(226,450,o),
(226,472,cs),
(226,488,o),
(236,505,o),
(260,505,cs),
(360,505,ls),
(381,505,o),
(394,492,o),
(394,473,cs),
(394,453,o),
(381,439,o),
(360,439,cs),
(344,439,l),
(344,334,ls),
(344,301,o),
(344,310,o),
(344,297,cs),
(344,296,ls),
(344,283,o),
(344,293,o),
(344,260,cs),
(344,209,ls),
(344,176,o),
(344,185,o),
(344,172,cs),
(344,171,ls),
(344,158,o),
(344,168,o),
(344,135,cs),
(344,0,l),
(671,0,l),
(671,434,l),
(611,434,o),
(601,451,o),
(564,517,cs),
(452,716,l),
(258,716,l),
(137,514,ls),
(95,445,o),
(77,434,o),
(29,434,c),
(29,334,ls),
(29,301,o),
(29,310,o),
(29,297,cs),
(29,296,ls),
(29,283,o),
(29,293,o),
(29,260,cs),
(29,209,ls),
(29,176,o),
(29,185,o),
(29,172,cs),
(29,171,ls),
(29,158,o),
(29,168,o),
(29,135,cs),
(29,0,l)
);
},
{
closed = 1;
nodes = (
(309,647,l),
(357,564,l),
(260,564,l)
);
}
);
width = 700;
},
{
anchors = (
{
name = bottom;
pos = (337,0);
},
{
name = ogonek;
pos = (671,0);
},
{
name = top;
pos = (345,716);
}
);
associatedMasterId = m01;
attr = {
coordinates = (
50
);
};
layerId = "7A247881-CF67-422E-8BB0-1BBFEF16A632";
name = "{50} Jan 2, 24 at 16:03";
shapes = (
{
closed = 1;
nodes = (
(286,0,l),
(286,439,l),
(260,439,ls),
(243,439,o),
(226,450,o),
(226,472,cs),
(226,488,o),
(236,505,o),
(260,505,cs),
(360,505,ls),
(381,505,o),
(394,492,o),
(394,473,cs),
(394,453,o),
(381,439,o),
(360,439,cs),
(344,439,l),
(344,334,l),
(376,334,o),
(408,330,o),
(408,298,cs),
(408,296,ls),
(408,264,o),
(376,260,o),
(344,260,c),
(344,209,l),
(376,209,o),
(408,205,o),
(408,173,cs),
(408,171,ls),
(408,139,o),
(376,135,o),
(344,135,c),
(344,0,l),
(671,0,l),
(671,434,l),
(611,434,o),
(601,451,o),
(564,517,cs),
(452,716,l),
(258,716,l),
(137,514,ls),
(95,445,o),
(77,434,o),
(29,434,c),
(29,334,l),
(61,334,o),
(93,330,o),
(93,298,cs),
(93,296,ls),
(93,264,o),
(61,260,o),
(29,260,c),
(29,209,l),
(61,209,o),
(93,205,o),
(93,173,cs),
(93,171,ls),
(93,139,o),
(61,135,o),
(29,135,c),
(29,0,l)
);
},
{
closed = 1;
nodes = (
(309,647,l),
(357,564,l),
(260,564,l)
);
}
);
width = 700;
},
{
anchors = (
{
name = bottom;
pos = (337,0);
},
{
name = ogonek;
pos = (671,0);
},
{
name = top;
pos = (345,716);
}
);
associatedMasterId = m01;
attr = {
coordinates = (
100
);
};
layerId = "417315A3-0F47-440D-BC4D-A6DD37B15B33";
name = "Jan 2, 24 at 16:03";
shapes = (
{
closed = 1;
nodes = (
(286,0,l),
(286,439,l),
(260,439,ls),
(243,439,o),
(226,450,o),
(226,472,cs),
(226,488,o),
(236,505,o),
(260,505,cs),
(360,505,ls),
(381,505,o),
(394,492,o),
(394,473,cs),
(394,453,o),
(381,439,o),
(360,439,cs),
(344,439,l),
(344,334,l),
(355,334,o),
(415,334,o),
(456,376,c),
(459,375,l),
(447,285,o),
(375,260,o),
(344,260,c),
(344,209,l),
(355,209,o),
(415,209,o),
(456,251,c),
(459,250,l),
(447,160,o),
(375,135,o),
(344,135,c),
(344,0,l),
(671,0,l),
(671,434,l),
(611,434,o),
(601,451,o),
(564,517,cs),
(452,716,l),
(258,716,l),
(137,514,ls),
(95,445,o),
(77,434,o),
(29,434,c),
(29,334,l),
(40,334,o),
(100,334,o),
(141,376,c),
(144,375,l),
(132,285,o),
(60,260,o),
(29,260,c),
(29,209,l),
(40,209,o),
(100,209,o),
(141,251,c),
(144,250,l),
(132,160,o),
(60,135,o),
(29,135,c),
(29,0,l)
);
},
{
closed = 1;
nodes = (
(309,647,l),
(357,564,l),
(260,564,l)
);
}
);
width = 700;
}
);
unicode = 65;
},
{
glyphname = "Alpha-latin";
kernLeft = C;
kernRight = H;
lastChange = "2024-01-31 14:46:24 +0000";
layers = (
{
layerId = m01;
shapes = (
{
closed = 1;
nodes = (
(305,-6,ls),
(417,-6,o),
(464,38,o),
(464,141,cs),
(464,174,l),
(500,174,o),
(516,158,o),
(523,115,cs),
(542,0,l),
(626,0,l),
(626,260,ls),
(626,293,o),
(626,283,o),
(626,296,cs),
(626,297,ls),
(626,310,o),
(626,301,o),
(626,334,c),
(626,434,l),
(576,434,o),
(559,460,o),
(559,500,cs),
(559,564,ls),
(559,604,o),
(576,636,o),
(626,636,c),
(626,716,l),
(223,716,ls),
(100,716,o),
(29,643,o),
(29,536,cs),
(29,334,l),
(29,301,o),
(29,310,o),
(29,297,cs),
(29,296,ls),
(29,283,o),
(29,293,o),
(29,260,cs),
(29,209,ls),
(29,175,o),
(29,184,o),
(29,171,cs),
(29,170,ls),
(29,157,o),
(31,144,o),
(33,135,cs),
(52,52,o),
(125,-6,o),
(218,-6,cs)
);
},
{
closed = 1;
nodes = (
(242,439,o),
(221,450,o),
(221,492,cs),
(221,569,ls),
(221,609,o),
(237,636,o),
(287,636,cs),
(325,636,ls),
(385,636,o),
(392,609,o),
(392,569,cs),
(392,492,ls),
(392,450,o),
(369,439,o),
(355,439,cs),
(256,439,ls)
);
}
);
width = 655;
},
{
associatedMasterId = m01;
attr = {
coordinates = (
50
);
};
layerId = "CB4170FD-A107-4CD0-A2C6-2CCCDE64BB35";
name = "{50} Jan 24, 24 at 13:37";
shapes = (
{
closed = 1;
nodes = (
(305,-6,ls),
(417,-6,o),
(464,38,o),
(464,141,cs),
(464,174,l),
(500,174,o),
(516,158,o),
(523,115,cs),
(542,0,l),
(626,0,l),
(626,260,l),
(594,260,o),
(562,264,o),
(562,296,cs),
(562,298,ls),
(562,330,o),
(594,334,o),
(626,334,c),
(626,434,l),
(576,434,o),
(559,460,o),
(559,500,cs),
(559,564,ls),
(559,604,o),
(576,636,o),
(626,636,c),
(626,716,l),
(223,716,ls),
(100,716,o),
(29,643,o),
(29,536,cs),
(29,334,l),
(61,334,o),
(93,330,o),
(93,298,cs),
(93,296,ls),
(93,264,o),
(61,260,o),
(29,260,c),
(29,209,l),
(61,209,o),
(93,205,o),
(93,173,cs),
(93,171,ls),
(93,140,o),
(64,135,o),
(33,135,c),
(52,52,o),
(125,-6,o),
(218,-6,cs)
);
},
{
closed = 1;
nodes = (
(242,439,o),
(221,450,o),
(221,492,cs),
(221,569,ls),
(221,609,o),
(237,636,o),
(287,636,cs),
(325,636,ls),
(385,636,o),
(392,609,o),
(392,569,cs),
(392,492,ls),
(392,450,o),
(369,439,o),
(355,439,cs),
(256,439,ls)
);
}
);
width = 655;
},
{
associatedMasterId = m01;
attr = {
coordinates = (
100
);
};
layerId = "D27C4046-5183-4665-BFE3-503104F5D2F5";
name = "Jan 24, 24 at 13:37";
shapes = (
{
closed = 1;
nodes = (
(305,-6,ls),
(417,-6,o),
(464,38,o),
(464,141,cs),
(464,174,l),
(500,174,o),
(516,158,o),
(523,115,cs),
(542,0,l),
(626,0,l),
(626,260,l),
(595,260,o),
(523,285,o),
(511,375,c),
(514,376,l),
(555,334,o),
(615,334,o),
(626,334,c),
(626,434,l),
(576,434,o),
(559,460,o),
(559,500,cs),
(559,564,ls),
(559,604,o),
(576,636,o),
(626,636,c),
(626,716,l),
(223,716,ls),
(100,716,o),
(29,643,o),
(29,536,cs),
(29,334,l),
(40,334,o),
(100,334,o),
(141,376,c),
(144,375,l),
(132,285,o),
(60,260,o),
(29,260,c),
(29,209,l),
(40,209,o),
(100,209,o),
(141,251,c),
(144,250,l),
(132,164,o),
(66,137,o),
(33,135,c),
(52,52,o),
(125,-6,o),
(218,-6,cs)
);
},
{
closed = 1;
nodes = (
(242,439,o),
(221,450,o),
(221,492,cs),
(221,569,ls),
(221,609,o),
(237,636,o),
(287,636,cs),
(325,636,ls),
(385,636,o),
(392,609,o),
(392,569,cs),
(392,492,ls),
(392,450,o),
(369,439,o),
(355,439,cs),
(256,439,ls)
);
}
);
width = 655;
}
);
metricRight = H;
unicode = 11373;
},
{
glyphname = Astroke;
kernLeft = A;
kernRight = A;
lastChange = "2024-01-31 14:46:24 +0000";
layers = (
{
layerId = m01;
shapes = (
{
ref = A;
},
{
closed = 1;
nodes = (
(467,627,l),
(565,792,l),
(475,792,l),
(398,672,l)
);
},
{
closed = 1;
nodes = (
(71,-60,l),
(129,57,l),
(69,137,l),
(-19,-60,l)
);
}
);
width = 700;
},
{
associatedMasterId = m01;
attr = {
coordinates = (
50
);
};
layerId = "03B5F6D2-B0DB-48E7-8CEC-03A32F9F3B54";
name = "{50} 9 Jan 24 at 22:24";
shapes = (
{
ref = A;
},
{
closed = 1;
nodes = (
(467,627,l),
(565,792,l),
(475,792,l),
(398,672,l)
);
},
{
closed = 1;
nodes = (
(71,-60,l),
(129,57,l),
(69,137,l),
(-19,-60,l)
);
}
);
width = 700;
},
{
associatedMasterId = m01;
attr = {
coordinates = (
100
);
};
layerId = "6CB4171F-5486-42F0-88F2-30BD253454AE";
name = "9 Jan 24 at 22:24";
shapes = (
{
ref = A;
},
{
closed = 1;
nodes = (
(467,627,l),
(565,792,l),
(475,792,l),
(398,672,l)
);
},
{
closed = 1;
nodes = (
(71,-60,l),
(129,57,l),
(69,137,l),
(-19,-60,l)
);
}
);
width = 700;
}
);
unicode = 570;
},
{
glyphname = AE;
kernLeft = A;
kernRight = E;
lastChange = "2024-01-31 14:46:24 +0000";
layers = (
{
anchors = (
{
name = bottom;
pos = (445,0);
},
{
name = top;
pos = (541,716);
}
);
background = {
shapes = (
{
closed = 1;
nodes = (
(308,0,l),
(308,439,l),
(296,439,ls),
(279,439,o),
(262,450,o),
(262,472,cs),
(262,488,o),
(272,505,o),
(296,505,cs),
(377,505,ls),
(398,505,o),
(411,492,o),
(411,473,cs),
(411,453,o),
(398,439,o),
(377,439,cs),
(366,439,l),
(366,0,l),
(528,0,l),
(528,580,l),
(452,716,l),
(398,716,l),
(167,514,ls),
(107,461,o),
(77,434,o),
(29,434,c),
(29,0,l)
);
},
{
closed = 1;
nodes = (
(411,632,l),
(411,564,l),
(334,564,l)
);
},
{
closed = 1;
nodes = (
(861,0,l),
(861,500,l),
(771,500,l),
(771,460,o),
(754,439,o),
(704,439,cs),
(577,439,l),
(577,505,l),
(694,505,l),
(694,575,l),
(577,575,l),
(577,636,l),
(698,636,ls),
(748,636,o),
(765,609,o),
(765,569,c),
(855,569,l),
(855,716,l),
(426,716,l),
(426,500,l),
(436,500,l),
(436,460,o),
(419,434,o),
(369,434,cs),
(366,434,l),
(365,0,l)
);
}
);
};
layerId = m01;
shapes = (
{
closed = 1;
nodes = (
(308,0,l),
(308,439,l),
(296,439,ls),
(279,439,o),
(262,450,o),
(262,472,cs),
(262,488,o),
(272,505,o),
(296,505,cs),
(377,505,ls),
(398,505,o),
(411,492,o),
(411,473,cs),
(411,453,o),
(398,439,o),
(377,439,cs),
(366,439,l),
(366,334,ls),
(366,302,o),
(366,310,o),
(366,297,cs),
(366,296,ls),
(366,283,o),
(366,293,o),
(366,260,cs),
(366,209,ls),
(366,176,o),
(366,185,o),
(366,172,cs),
(366,171,ls),
(366,158,o),
(366,168,o),
(366,135,cs),
(366,0,l),
(861,0,l),
(861,135,ls),
(861,168,o),
(861,158,o),
(861,171,cs),
(861,172,ls),
(861,185,o),
(861,176,o),
(861,209,cs),
(861,260,ls),
(861,293,o),
(861,283,o),
(861,296,cs),
(861,297,ls),
(861,310,o),
(861,301,o),
(861,334,cs),
(861,500,l),
(771,500,l),
(771,460,o),
(754,439,o),
(704,439,cs),
(577,439,l),
(577,505,l),
(694,505,l),
(694,575,l),
(577,575,l),
(577,636,l),
(698,636,ls),
(748,636,o),
(765,609,o),
(765,569,c),
(855,569,l),
(855,716,l),
(398,716,l),
(167,514,ls),
(107,461,o),
(74,434,o),
(29,434,c),
(29,334,ls),
(29,301,o),
(29,310,o),
(29,297,cs),
(29,296,ls),
(29,283,o),
(29,293,o),
(29,260,cs),
(29,209,ls),
(29,176,o),
(29,185,o),
(29,172,cs),
(29,171,ls),
(29,158,o),
(29,168,o),
(29,135,cs),
(29,0,l)
);
},
{
closed = 1;
nodes = (
(411,632,l),
(411,564,l),
(334,564,l)
);
}
);
width = 890;
},
{
anchors = (
{
name = bottom;
pos = (445,0);
},
{
name = top;
pos = (541,716);
}
);
associatedMasterId = m01;
attr = {
coordinates = (
50
);
};
background = {
shapes = (
{
closed = 1;
nodes = (
(308,0,l),
(308,439,l),
(296,439,ls),
(279,439,o),
(262,450,o),
(262,472,cs),
(262,488,o),
(272,505,o),
(296,505,cs),
(377,505,ls),
(398,505,o),
(411,492,o),
(411,473,cs),
(411,453,o),
(398,439,o),
(377,439,cs),
(366,439,l),
(366,0,l),
(528,0,l),
(528,580,l),
(452,716,l),
(398,716,l),
(167,514,ls),
(107,461,o),
(77,434,o),
(29,434,c),
(29,0,l)
);
},
{
closed = 1;
nodes = (
(411,632,l),
(411,564,l),
(334,564,l)
);
},
{
closed = 1;
nodes = (
(861,0,l),
(861,500,l),
(771,500,l),
(771,460,o),
(754,439,o),
(704,439,cs),
(577,439,l),
(577,505,l),
(694,505,l),
(694,575,l),
(577,575,l),
(577,636,l),
(698,636,ls),
(748,636,o),
(765,609,o),
(765,569,c),
(855,569,l),
(855,716,l),
(426,716,l),
(426,500,l),
(436,500,l),
(436,460,o),
(419,434,o),
(369,434,cs),
(366,434,l),
(365,0,l)
);
}
);
};
layerId = "867E0C3C-F851-43FF-9176-E5D051D1CDFB";
name = "{50} Jan 24, 24 at 13:45";
shapes = (
{
closed = 1;
nodes = (
(308,0,l),
(308,439,l),
(296,439,ls),
(279,439,o),
(262,450,o),
(262,472,cs),
(262,488,o),
(272,505,o),
(296,505,cs),
(377,505,ls),
(398,505,o),
(411,492,o),
(411,473,cs),
(411,453,o),
(398,439,o),
(377,439,cs),
(366,439,l),
(366,334,l),
(398,334,o),
(430,330,o),
(430,298,cs),
(430,296,ls),
(430,264,o),
(398,260,o),
(366,260,c),
(366,209,l),
(398,209,o),
(430,205,o),
(430,173,cs),
(430,171,ls),
(430,139,o),
(398,135,o),
(366,135,c),
(366,0,l),
(861,0,l),
(861,135,l),
(829,135,o),
(797,139,o),
(797,171,cs),
(797,173,ls),
(797,205,o),
(829,209,o),
(861,209,c),
(861,260,l),
(829,260,o),
(797,264,o),
(797,296,cs),
(797,298,ls),
(797,330,o),
(829,334,o),
(861,334,c),
(861,500,l),
(771,500,l),
(771,460,o),
(754,439,o),
(704,439,cs),
(577,439,l),
(577,505,l),
(694,505,l),
(694,575,l),
(577,575,l),
(577,636,l),
(698,636,ls),
(748,636,o),
(765,609,o),
(765,569,c),
(855,569,l),
(855,716,l),
(398,716,l),
(167,514,ls),
(107,461,o),
(74,434,o),
(29,434,c),
(29,334,l),
(61,334,o),
(93,330,o),
(93,298,cs),
(93,296,ls),
(93,264,o),
(61,260,o),
(29,260,c),
(29,209,l),
(61,209,o),
(93,205,o),
(93,173,cs),
(93,171,ls),
(93,139,o),
(61,135,o),
(29,135,c),
(29,0,l)
);
},
{
closed = 1;
nodes = (
(411,632,l),
(411,564,l),
(334,564,l)
);
}
);
width = 890;
},
{
anchors = (
{
name = bottom;
pos = (445,0);
},
{
name = top;
pos = (541,716);
}
);
associatedMasterId = m01;
attr = {
coordinates = (
100
);
};
background = {
shapes = (
{
closed = 1;
nodes = (
(308,0,l),
(308,439,l),
(296,439,ls),
(279,439,o),
(262,450,o),
(262,472,cs),
(262,488,o),
(272,505,o),
(296,505,cs),
(377,505,ls),
(398,505,o),
(411,492,o),
(411,473,cs),
(411,453,o),
(398,439,o),
(377,439,cs),
(366,439,l),
(366,0,l),
(528,0,l),
(528,580,l),
(452,716,l),
(398,716,l),
(167,514,ls),
(107,461,o),
(77,434,o),
(29,434,c),
(29,0,l)
);
},
{
closed = 1;
nodes = (
(411,632,l),
(411,564,l),
(334,564,l)
);
},
{
closed = 1;
nodes = (
(861,0,l),
(861,500,l),
(771,500,l),
(771,460,o),
(754,439,o),
(704,439,cs),
(577,439,l),
(577,505,l),
(694,505,l),
(694,575,l),
(577,575,l),
(577,636,l),
(698,636,ls),
(748,636,o),
(765,609,o),
(765,569,c),
(855,569,l),
(855,716,l),
(426,716,l),
(426,500,l),
(436,500,l),
(436,460,o),
(419,434,o),
(369,434,cs),
(366,434,l),
(365,0,l)
);
}
);
};
layerId = "5DF9E2C9-0736-42AF-A4F0-1AC10C95830A";
name = "Jan 24, 24 at 13:44";
shapes = (
{
closed = 1;
nodes = (
(308,0,l),
(308,439,l),
(296,439,ls),
(279,439,o),
(262,450,o),
(262,472,cs),
(262,488,o),
(272,505,o),
(296,505,cs),
(377,505,ls),
(398,505,o),
(411,492,o),
(411,473,cs),
(411,453,o),
(398,439,o),
(377,439,cs),
(366,439,l),
(366,334,l),
(377,334,o),
(437,334,o),
(478,376,c),
(481,375,l),
(469,285,o),
(397,260,o),
(366,260,c),
(366,209,l),
(377,209,o),
(437,209,o),
(478,251,c),
(481,250,l),
(469,160,o),
(397,135,o),
(366,135,c),
(366,0,l),
(861,0,l),
(861,135,l),
(830,135,o),
(758,160,o),
(746,250,c),
(749,251,l),
(790,209,o),
(850,209,o),
(861,209,c),
(861,260,l),
(830,260,o),
(758,285,o),
(746,375,c),
(749,376,l),
(790,334,o),
(850,334,o),
(861,334,c),
(861,500,l),
(771,500,l),
(771,460,o),
(754,439,o),
(704,439,cs),
(577,439,l),
(577,505,l),
(694,505,l),
(694,575,l),
(577,575,l),
(577,636,l),
(698,636,ls),
(748,636,o),
(765,609,o),
(765,569,c),
(855,569,l),
(855,716,l),
(398,716,l),
(167,514,ls),
(107,461,o),
(74,434,o),
(29,434,c),
(29,334,l),
(40,334,o),
(100,334,o),
(141,376,c),
(144,375,l),
(132,285,o),
(60,260,o),
(29,260,c),
(29,209,l),
(40,209,o),
(100,209,o),
(141,251,c),
(144,250,l),
(132,160,o),
(60,135,o),
(29,135,c),
(29,0,l)
);
},
{
closed = 1;
nodes = (
(411,632,l),
(411,564,l),
(334,564,l)
);
}
);
width = 890;
}
);
metricLeft = A;
metricRight = E;
unicode = 198;
},
{
glyphname = B;
kernLeft = B;
kernRight = B;
lastChange = "2024-01-31 14:46:24 +0000";
layers = (
{
anchors = (
{
name = bottom;
pos = (317,0);
},
{
name = center;
pos = (333,358);
},
{
name = hook;
pos = (29,636);
},
{
name = top;
pos = (322,716);
}
);
layerId = m01;
shapes = (
{
closed = 1;
nodes = (
(425,0,ls),
(518,0,o),
(591,52,o),
(610,135,cs),
(612,144,o),
(614,158,o),
(614,171,cs),
(614,172,ls),
(614,185,o),
(614,176,o),
(614,209,cs),
(614,260,ls),
(614,293,o),
(614,283,o),
(614,296,cs),
(614,297,ls),
(614,310,o),
(614,301,o),
(614,334,c),
(614,375,ls),
(614,518,o),
(525,537,o),
(456,537,c),
(456,546,l),
(474,546,ls),
(511,546,o),
(589,560,o),
(589,628,c),
(589,712,o),
(500,716,o),
(460,716,c),
(29,716,l),
(29,636,l),
(79,636,o),
(96,609,o),
(96,569,cs),
(96,495,ls),
(96,455,o),
(79,434,o),
(29,434,c),
(29,334,ls),
(29,301,o),
(29,310,o),
(29,297,cs),
(29,296,ls),
(29,283,o),
(29,293,o),
(29,260,cs),
(29,209,ls),
(29,176,o),
(29,185,o),
(29,172,cs),
(29,171,ls),
(29,158,o),
(29,168,o),
(29,135,cs),
(29,0,l)
);
},
{
closed = 1;
nodes = (
(264,505,l),
(379,505,ls),
(407,505,o),
(420,493,o),
(420,472,cs),
(420,450,o),
(404,439,o),
(378,439,cs),
(264,439,l)
);
},
{
closed = 1;
nodes = (
(264,636,l),
(359,636,ls),
(387,636,o),
(400,622,o),
(400,604,cs),
(400,586,o),
(384,575,o),
(358,575,cs),
(264,575,l)
);
}
);
width = 639;
},
{
anchors = (
{
name = bottom;
pos = (317,0);
},
{
name = center;
pos = (333,358);
},
{
name = hook;
pos = (29,636);
},
{
name = top;
pos = (322,716);
}
);
associatedMasterId = m01;
attr = {
coordinates = (
50
);
};
layerId = "43ADFC7C-FCAA-41DD-9D7E-AE56CAFE55D0";
name = "{50} Jan 24, 24 at 13:55";
shapes = (
{
closed = 1;
nodes = (
(425,0,ls),
(518,0,o),
(591,52,o),
(610,135,c),
(579,135,o),
(550,140,o),
(550,171,cs),
(550,173,ls),
(550,205,o),
(582,209,o),
(614,209,c),
(614,260,l),
(582,260,o),
(550,264,o),
(550,296,cs),
(550,298,ls),
(550,330,o),
(582,334,o),
(614,334,c),
(614,375,ls),
(614,518,o),
(525,537,o),
(456,537,c),
(456,546,l),
(474,546,ls),
(511,546,o),
(589,560,o),
(589,628,c),
(589,712,o),
(500,716,o),
(460,716,c),
(29,716,l),
(29,636,l),
(79,636,o),
(96,609,o),
(96,569,cs),
(96,495,ls),
(96,455,o),
(79,434,o),
(29,434,c),
(29,334,l),
(61,334,o),
(93,330,o),
(93,298,cs),
(93,296,ls),
(93,264,o),
(61,260,o),
(29,260,c),
(29,209,l),
(61,209,o),
(93,205,o),
(93,173,cs),
(93,171,ls),
(93,139,o),
(61,135,o),
(29,135,c),
(29,0,l)
);
},
{
closed = 1;
nodes = (
(264,505,l),
(379,505,ls),
(407,505,o),
(420,493,o),
(420,472,cs),
(420,450,o),
(404,439,o),
(378,439,cs),
(264,439,l)
);
},
{
closed = 1;
nodes = (
(264,636,l),
(359,636,ls),
(387,636,o),
(400,622,o),
(400,604,cs),
(400,586,o),
(384,575,o),
(358,575,cs),
(264,575,l)
);
}
);
width = 639;
},
{
anchors = (
{
name = bottom;
pos = (317,0);
},
{
name = center;
pos = (333,358);
},
{
name = hook;
pos = (29,636);
},
{
name = top;
pos = (322,716);
}
);
associatedMasterId = m01;
attr = {
coordinates = (
100
);
};
layerId = "6F18B9E4-B4E4-42B2-B7DC-DA82262E003B";
name = "Jan 24, 24 at 13:55";
shapes = (
{
closed = 1;
nodes = (
(425,0,ls),
(518,0,o),
(591,52,o),
(610,135,c),
(577,137,o),
(511,164,o),
(499,250,c),
(502,251,l),
(543,209,o),
(603,209,o),
(614,209,c),
(614,260,l),
(583,260,o),
(511,285,o),
(499,375,c),
(502,376,l),
(543,334,o),
(603,334,o),
(614,334,c),
(614,375,ls),
(614,518,o),
(525,537,o),
(456,537,c),
(456,546,l),
(474,546,ls),
(511,546,o),
(589,560,o),
(589,628,c),
(589,712,o),
(500,716,o),
(460,716,c),
(29,716,l),
(29,636,l),
(79,636,o),
(96,609,o),
(96,569,cs),
(96,495,ls),
(96,455,o),
(79,434,o),
(29,434,c),
(29,334,l),
(40,334,o),
(100,334,o),
(141,376,c),
(144,375,l),
(132,285,o),
(60,260,o),
(29,260,c),
(29,209,l),
(40,209,o),
(100,209,o),
(141,251,c),
(144,250,l),
(132,160,o),
(60,135,o),
(29,135,c),
(29,0,l)
);
},
{
closed = 1;
nodes = (
(264,505,l),
(379,505,ls),
(407,505,o),
(420,493,o),
(420,472,cs),
(420,450,o),
(404,439,o),
(378,439,cs),
(264,439,l)
);
},
{
closed = 1;
nodes = (
(264,636,l),
(359,636,ls),
(387,636,o),
(400,622,o),
(400,604,cs),
(400,586,o),
(384,575,o),
(358,575,cs),
(264,575,l)
);
}
);
width = 639;
}
);
metricLeft = H;
unicode = 66;
},
{
glyphname = "Beta-latin";
kernLeft = B;
kernRight = B;
lastChange = "2024-01-31 14:46:24 +0000";
layers = (
{
anchors = (
{
name = bottom;
pos = (317,0);
},
{
name = center;
pos = (333,358);
},
{
name = hook;
pos = (29,636);
},
{
name = top;
pos = (322,716);
}
);
background = {
shapes = (
{
closed = 1;
nodes = (
(533,-6,o),
(609,83,o),
(609,265,cs),
(609,294,ls),
(609,518,o),
(520,540,o),
(451,540,c),
(451,543,l),
(469,543,ls),
(506,543,o),
(568,555,o),
(568,624,cs),
(568,699,o),
(487,716,o),
(420,716,cs),
(277,716,ls),
(74,716,o),
(25,664,o),
(25,439,cs),
(25,131,l),
(189,131,l),
(189,28,o),
(284,-6,o),
(376,-6,cs)
);
},
{
closed = 1;
nodes = (
(250,-126,l),
(250,-46,l),
(200,-46,o),
(183,-14,o),
(183,26,cs),
(183,260,l),
(25,260,l),
(25,21,ls),
(25,-19,o),
(8,-46,o),
(-42,-46,c),
(-42,-126,l)
);
},
{
closed = 1;
nodes = (
(254,439,o),
(209,455,o),
(209,505,cs),
(209,543,ls),
(209,615,o),
(226,638,o),
(292,638,cs),
(337,638,ls),
(369,638,o),
(384,625,o),
(384,605,cs),
(384,588,o),
(369,575,o),
(348,575,cs),
(277,575,l),
(277,505,l),
(369,505,ls),
(397,505,o),
(410,493,o),
(410,472,cs),
(410,450,o),
(394,439,o),
(368,439,cs),
(281,439,ls)
);
}
);
};
layerId = m01;
shapes = (
{
closed = 1;
nodes = (
(425,0,ls),
(518,0,o),
(591,52,o),
(610,135,cs),
(612,144,o),
(614,158,o),
(614,171,cs),
(614,172,ls),
(614,185,o),
(614,176,o),
(614,209,cs),
(614,260,ls),
(614,293,o),
(614,283,o),
(614,296,cs),
(614,297,ls),
(614,310,o),
(614,301,o),
(614,334,c),
(614,375,ls),
(614,518,o),
(525,537,o),
(456,537,c),
(456,546,l),
(474,546,ls),
(511,546,o),
(589,560,o),
(589,628,c),
(589,712,o),
(500,716,o),
(460,716,c),
(29,716,l),
(29,636,l),
(79,636,o),
(96,609,o),
(96,569,cs),
(96,495,ls),
(96,455,o),
(79,434,o),
(29,434,c),
(29,334,ls),
(29,301,o),
(29,310,o),
(29,297,cs),
(29,296,ls),
(29,283,o),
(29,293,o),
(29,260,cs),
(29,209,ls),
(29,176,o),
(29,185,o),
(29,172,cs),
(29,171,ls),
(29,158,o),
(29,168,o),
(29,135,cs),
(29,0,l)
);
},
{
closed = 1;
nodes = (
(254,-126,l),
(254,-46,l),
(204,-46,o),
(187,-14,o),
(187,26,cs),
(187,131,l),
(193,131,l),
(29,135,l),
(29,21,ls),
(29,-19,o),
(12,-46,o),
(-38,-46,c),
(-38,-126,l)
);
},
{
closed = 1;
nodes = (
(264,505,l),
(379,505,ls),
(407,505,o),
(420,493,o),
(420,472,cs),
(420,450,o),
(404,439,o),
(378,439,cs),
(264,439,l)
);
},
{
closed = 1;
nodes = (
(264,636,l),
(359,636,ls),
(387,636,o),
(400,622,o),
(400,604,cs),
(400,586,o),
(384,575,o),
(358,575,cs),
(264,575,l)
);
}
);
width = 639;
},
{
anchors = (
{
name = bottom;
pos = (317,0);
},
{
name = center;
pos = (333,358);
},
{
name = hook;
pos = (29,636);
},
{
name = top;
pos = (322,716);
}
);
associatedMasterId = m01;
attr = {
coordinates = (
50
);
};
background = {
shapes = (
{
closed = 1;
nodes = (
(533,-6,o),
(609,83,o),
(609,265,cs),
(609,294,ls),
(609,518,o),
(520,540,o),
(451,540,c),
(451,543,l),
(469,543,ls),
(506,543,o),
(568,555,o),
(568,624,cs),
(568,699,o),
(487,716,o),
(420,716,cs),
(277,716,ls),
(74,716,o),
(25,664,o),
(25,439,cs),
(25,131,l),
(189,131,l),
(189,28,o),
(284,-6,o),
(376,-6,cs)
);
},
{
closed = 1;
nodes = (
(250,-126,l),
(250,-46,l),
(200,-46,o),
(183,-14,o),
(183,26,cs),
(183,260,l),
(25,260,l),
(25,21,ls),
(25,-19,o),
(8,-46,o),
(-42,-46,c),
(-42,-126,l)
);
},
{
closed = 1;
nodes = (
(254,439,o),
(209,455,o),
(209,505,cs),
(209,543,ls),
(209,615,o),
(226,638,o),
(292,638,cs),
(337,638,ls),
(369,638,o),
(384,625,o),
(384,605,cs),
(384,588,o),
(369,575,o),
(348,575,cs),
(277,575,l),
(277,505,l),
(369,505,ls),
(397,505,o),
(410,493,o),
(410,472,cs),
(410,450,o),
(394,439,o),
(368,439,cs),
(281,439,ls)
);
}
);
};
layerId = "8FDD0065-CE55-40FB-A83C-7A44C7F0D93E";
name = "Jan 26, 24 at 07:40";
shapes = (
{
closed = 1;
nodes = (
(425,0,ls),
(518,0,o),
(591,52,o),
(610,135,c),
(579,135,o),
(550,140,o),
(550,171,cs),
(550,173,ls),
(550,205,o),
(582,209,o),
(614,209,c),
(614,260,l),
(582,260,o),
(550,264,o),
(550,296,cs),
(550,298,ls),
(550,330,o),
(582,334,o),
(614,334,c),
(614,375,ls),
(614,518,o),
(525,537,o),
(456,537,c),
(456,546,l),
(474,546,ls),
(511,546,o),
(589,560,o),
(589,628,c),
(589,712,o),
(500,716,o),
(460,716,c),
(29,716,l),
(29,636,l),
(79,636,o),
(96,609,o),
(96,569,cs),
(96,495,ls),
(96,455,o),
(79,434,o),
(29,434,c),
(29,334,l),
(61,334,o),
(93,330,o),
(93,298,cs),
(93,296,ls),
(93,264,o),
(61,260,o),
(29,260,c),
(29,209,l),
(61,209,o),
(93,205,o),
(93,173,cs),
(93,171,ls),
(93,139,o),
(61,135,o),
(29,135,c),
(29,0,l)
);
},
{
closed = 1;
nodes = (
(254,-126,l),
(254,-46,l),
(204,-46,o),
(187,-14,o),
(187,26,cs),
(187,131,l),
(193,131,l),
(29,135,l),
(29,21,ls),
(29,-19,o),
(12,-46,o),
(-38,-46,c),
(-38,-126,l)
);
},
{
closed = 1;
nodes = (
(264,505,l),
(379,505,ls),
(407,505,o),
(420,493,o),
(420,472,cs),
(420,450,o),
(404,439,o),
(378,439,cs),
(264,439,l)
);
},
{
closed = 1;
nodes = (
(264,636,l),
(359,636,ls),
(387,636,o),
(400,622,o),
(400,604,cs),
(400,586,o),
(384,575,o),
(358,575,cs),
(264,575,l)
);
}
);
width = 639;
},
{
anchors = (
{
name = bottom;
pos = (317,0);
},
{
name = center;
pos = (333,358);
},
{
name = hook;
pos = (29,636);
},
{
name = top;
pos = (322,716);
}
);
associatedMasterId = m01;
attr = {
coordinates = (
100
);
};
background = {
shapes = (
{
closed = 1;
nodes = (
(533,-6,o),
(609,83,o),
(609,265,cs),
(609,294,ls),
(609,518,o),
(520,540,o),
(451,540,c),
(451,543,l),
(469,543,ls),
(506,543,o),
(568,555,o),
(568,624,cs),
(568,699,o),
(487,716,o),
(420,716,cs),
(277,716,ls),
(74,716,o),
(25,664,o),
(25,439,cs),
(25,131,l),
(189,131,l),
(189,28,o),
(284,-6,o),
(376,-6,cs)
);
},
{
closed = 1;
nodes = (
(250,-126,l),
(250,-46,l),
(200,-46,o),
(183,-14,o),
(183,26,cs),
(183,260,l),
(25,260,l),
(25,21,ls),
(25,-19,o),
(8,-46,o),
(-42,-46,c),
(-42,-126,l)
);
},
{
closed = 1;
nodes = (
(254,439,o),
(209,455,o),
(209,505,cs),
(209,543,ls),
(209,615,o),
(226,638,o),
(292,638,cs),
(337,638,ls),
(369,638,o),
(384,625,o),
(384,605,cs),
(384,588,o),
(369,575,o),
(348,575,cs),
(277,575,l),
(277,505,l),
(369,505,ls),
(397,505,o),
(410,493,o),
(410,472,cs),
(410,450,o),
(394,439,o),
(368,439,cs),
(281,439,ls)
);
}
);
};
layerId = "CFD3760A-C93A-4794-88DA-262B74E0DE95";
name = "Jan 26, 24 at 07:40";
shapes = (
{
closed = 1;
nodes = (
(425,0,ls),
(518,0,o),
(591,52,o),
(610,135,c),
(577,137,o),
(511,164,o),
(499,250,c),
(502,251,l),
(543,209,o),
(603,209,o),
(614,209,c),
(614,260,l),
(583,260,o),
(511,285,o),
(499,375,c),
(502,376,l),
(543,334,o),
(603,334,o),
(614,334,c),
(614,375,ls),
(614,518,o),
(525,537,o),
(456,537,c),
(456,546,l),
(474,546,ls),
(511,546,o),
(589,560,o),
(589,628,c),
(589,712,o),
(500,716,o),
(460,716,c),
(29,716,l),
(29,636,l),
(79,636,o),
(96,609,o),
(96,569,cs),
(96,495,ls),
(96,455,o),
(79,434,o),
(29,434,c),
(29,334,l),
(40,334,o),
(100,334,o),
(141,376,c),
(144,375,l),
(132,285,o),
(60,260,o),
(29,260,c),
(29,209,l),
(40,209,o),
(100,209,o),
(141,251,c),
(144,250,l),
(132,160,o),
(60,135,o),
(29,135,c),
(29,0,l)
);
},
{
closed = 1;
nodes = (
(254,-126,l),
(254,-46,l),
(204,-46,o),
(187,-14,o),
(187,26,cs),
(187,131,l),
(193,131,l),
(29,135,l),
(29,21,ls),
(29,-19,o),
(12,-46,o),
(-38,-46,c),
(-38,-126,l)
);
},
{
closed = 1;
nodes = (
(264,505,l),
(379,505,ls),
(407,505,o),
(420,493,o),
(420,472,cs),
(420,450,o),
(404,439,o),
(378,439,cs),
(264,439,l)
);
},
{
closed = 1;
nodes = (
(264,636,l),
(359,636,ls),
(387,636,o),
(400,622,o),
(400,604,cs),
(400,586,o),
(384,575,o),
(358,575,cs),
(264,575,l)
);
}
);
width = 639;
}
);
metricRight = B;
unicode = 42932;
},
{
glyphname = Bhook;
kernLeft = LeftHook;
kernRight = B;
lastChange = "2024-01-31 14:46:24 +0000";
layers = (
{
anchors = (
{
name = bottom;
pos = (404,0);
},
{
name = center;
pos = (420,358);
},
{
name = hook;
pos = (116,636);
},
{
name = top;
pos = (409,716);
}
);
layerId = m01;
shapes = (
{
closed = 1;
nodes = (
(512,0,ls),
(605,0,o),
(678,52,o),
(697,135,cs),
(699,144,o),
(701,158,o),
(701,171,cs),
(701,172,ls),
(701,185,o),
(701,176,o),
(701,209,cs),
(701,260,ls),
(701,293,o),
(701,283,o),
(701,296,cs),
(701,297,ls),
(701,310,o),
(701,301,o),
(701,334,c),
(701,375,ls),
(701,518,o),
(612,537,o),
(543,537,c),
(543,546,l),
(561,546,ls),
(598,546,o),
(676,560,o),
(676,628,cs),
(676,712,o),
(587,716,o),
(547,716,cs),
(183,716,ls),
(34,716,o),
(0,627,o),
(0,563,cs),
(0,530,o),
(5,493,o),
(13,476,c),
(140,476,l),
(122,503,o),
(106,542,o),
(106,576,cs),
(106,613,o),
(126,641,o),
(183,641,c),
(183,495,ls),
(183,455,o),
(166,434,o),
(116,434,c),
(116,334,l),
(116,301,o),
(116,310,o),
(116,297,cs),
(116,296,ls),
(116,283,o),
(116,293,o),
(116,260,cs),
(116,209,ls),
(116,176,o),
(116,185,o),
(116,172,cs),
(116,171,ls),
(116,158,o),
(116,168,o),
(116,135,cs),
(116,0,l)
);
},
{
closed = 1;
nodes = (
(351,505,l),
(466,505,ls),
(494,505,o),
(507,493,o),
(507,472,cs),
(507,450,o),
(491,439,o),
(465,439,cs),
(351,439,l)
);
},
{
closed = 1;
nodes = (
(351,636,l),
(446,636,ls),
(474,636,o),
(487,622,o),
(487,604,cs),
(487,586,o),
(471,575,o),
(445,575,cs),
(351,575,l)
);
}
);
width = 726;
},
{
anchors = (
{
name = bottom;
pos = (404,0);
},
{
name = center;
pos = (420,358);
},
{
name = hook;
pos = (116,636);
},
{
name = top;
pos = (409,716);
}
);
associatedMasterId = m01;
attr = {
coordinates = (
50
);
};
layerId = "E0A9F639-6A01-472C-89B6-DA768078E307";
name = "Jan 26, 24 at 07:33";
shapes = (
{
closed = 1;
nodes = (
(512,0,ls),
(605,0,o),
(678,52,o),
(697,135,c),
(666,135,o),
(637,140,o),
(637,171,cs),
(637,173,ls),
(637,205,o),
(669,209,o),
(701,209,c),
(701,260,l),
(669,260,o),
(637,264,o),
(637,296,cs),
(637,298,ls),
(637,330,o),
(669,334,o),
(701,334,c),
(701,375,ls),
(701,518,o),
(612,537,o),
(543,537,c),
(543,546,l),
(561,546,ls),
(598,546,o),
(676,560,o),
(676,628,cs),
(676,712,o),
(587,716,o),
(547,716,cs),
(183,716,ls),
(34,716,o),
(0,627,o),
(0,563,cs),
(0,530,o),
(5,493,o),
(13,476,c),
(140,476,l),
(122,503,o),
(106,542,o),
(106,576,cs),
(106,613,o),
(126,641,o),
(183,641,c),
(183,495,ls),
(183,455,o),
(166,434,o),
(116,434,c),
(116,334,l),
(148,334,o),
(180,330,o),
(180,298,cs),
(180,296,ls),
(180,264,o),
(148,260,o),
(116,260,c),
(116,209,l),
(148,209,o),
(180,205,o),
(180,173,cs),
(180,171,ls),
(180,139,o),
(148,135,o),
(116,135,c),
(116,0,l)
);
},
{
closed = 1;
nodes = (
(351,505,l),
(466,505,ls),
(494,505,o),
(507,493,o),
(507,472,cs),
(507,450,o),
(491,439,o),
(465,439,cs),
(351,439,l)
);
},
{
closed = 1;
nodes = (
(351,636,l),
(446,636,ls),
(474,636,o),
(487,622,o),
(487,604,cs),
(487,586,o),
(471,575,o),
(445,575,cs),
(351,575,l)
);
}
);
width = 726;
},
{
anchors = (
{
name = bottom;
pos = (404,0);
},
{
name = center;
pos = (420,358);
},
{
name = hook;
pos = (116,636);
},
{
name = top;
pos = (409,716);
}
);
associatedMasterId = m01;
attr = {
coordinates = (
100
);
};
layerId = "BE48946C-BE80-423B-88C6-D50080E529A3";
name = "Jan 26, 24 at 07:33";
shapes = (
{
closed = 1;
nodes = (
(512,0,ls),
(605,0,o),
(678,52,o),
(697,135,c),
(664,137,o),
(598,164,o),
(586,250,c),
(589,251,l),
(630,209,o),
(690,209,o),
(701,209,c),
(701,260,l),
(670,260,o),
(598,285,o),
(586,375,c),
(589,376,l),
(630,334,o),
(690,334,o),
(701,334,c),
(701,375,ls),
(701,518,o),
(612,537,o),
(543,537,c),
(543,546,l),
(561,546,ls),
(598,546,o),
(676,560,o),
(676,628,cs),
(676,712,o),
(587,716,o),
(547,716,cs),
(183,716,ls),
(34,716,o),
(0,627,o),
(0,563,cs),
(0,530,o),
(5,493,o),
(13,476,c),
(140,476,l),
(122,503,o),
(106,542,o),
(106,576,cs),
(106,613,o),
(126,641,o),
(183,641,c),
(183,495,l),
(183,455,o),
(166,434,o),
(116,434,c),
(116,334,l),
(127,334,o),
(187,334,o),
(228,376,c),
(231,375,l),
(219,285,o),
(147,260,o),
(116,260,c),
(116,209,l),
(127,209,o),
(187,209,o),
(228,251,c),
(231,250,l),
(219,160,o),
(147,135,o),
(116,135,c),
(116,0,l)
);
},
{
closed = 1;
nodes = (
(351,505,l),
(466,505,ls),
(494,505,o),
(507,493,o),
(507,472,cs),
(507,450,o),
(491,439,o),
(465,439,cs),
(351,439,l)
);
},
{
closed = 1;
nodes = (
(351,636,l),
(446,636,ls),
(474,636,o),
(487,622,o),
(487,604,cs),
(487,586,o),
(471,575,o),
(445,575,cs),
(351,575,l)
);
}
);
width = 726;
}
);
unicode = 385;
},
{
glyphname = Bstroke;
kernLeft = B;
kernRight = B;
lastChange = "2024-01-31 14:46:24 +0000";
layers = (
{
anchors = (
{
name = bottom;
pos = (317,0);
},
{
name = center;
pos = (333,358);
},
{
name = hook;
pos = (29,636);
},
{
name = top;
pos = (322,716);
}
);
layerId = m01;
shapes = (
{
closed = 1;
nodes = (
(425,0,ls),
(518,0,o),
(591,52,o),
(610,135,cs),
(612,144,o),
(614,158,o),
(614,171,cs),
(614,172,ls),
(614,185,o),
(614,176,o),
(614,209,cs),
(614,260,ls),
(614,293,o),
(614,283,o),
(614,296,cs),
(614,297,ls),
(614,310,o),
(614,301,o),
(614,334,c),
(614,375,ls),
(614,518,o),
(525,537,o),
(456,537,c),
(456,546,l),
(474,546,ls),
(511,546,o),
(589,560,o),
(589,628,c),
(589,712,o),
(500,716,o),
(460,716,c),
(29,716,l),
(29,636,l),
(79,636,o),
(96,609,o),
(96,569,cs),
(96,495,ls),
(96,455,o),
(79,434,o),
(29,434,c),
(29,334,ls),
(29,301,o),
(29,310,o),
(29,297,cs),
(29,296,ls),
(29,283,o),
(29,293,o),
(29,260,cs),
(29,209,ls),
(29,176,o),
(29,185,o),
(29,172,cs),
(29,171,ls),
(29,158,o),
(29,168,o),
(29,135,cs),
(29,0,l)
);
},
{
closed = 1;
nodes = (
(144,479,l),
(29,479,l)
);
},
{
closed = 1;
nodes = (
(144,479,l),
(144,543,l),
(29,543,l),
(29,479,l)
);
},
{
closed = 1;
nodes = (
(264,505,l),
(379,505,ls),
(407,505,o),
(420,493,o),
(420,472,cs),
(420,450,o),
(404,439,o),
(378,439,cs),
(264,439,l)
);
},
{
closed = 1;
nodes = (
(264,636,l),
(359,636,ls),
(387,636,o),
(400,622,o),
(400,604,cs),
(400,586,o),
(384,575,o),
(358,575,cs),
(264,575,l)
);
}
);
width = 639;
},
{
anchors = (
{
name = bottom;
pos = (317,0);
},
{
name = center;
pos = (333,358);
},
{
name = hook;
pos = (29,636);
},
{
name = top;
pos = (322,716);
}
);
associatedMasterId = m01;
attr = {
coordinates = (
50
);
};
layerId = "36F3C813-52C6-4688-827B-96ACE7D5B0DA";
name = "Jan 26, 24 at 07:36";
shapes = (
{
closed = 1;
nodes = (
(425,0,ls),
(518,0,o),
(591,52,o),
(610,135,c),
(579,135,o),
(550,140,o),
(550,171,cs),
(550,173,ls),
(550,205,o),
(582,209,o),
(614,209,c),
(614,260,l),
(582,260,o),
(550,264,o),
(550,296,cs),
(550,298,ls),
(550,330,o),
(582,334,o),
(614,334,c),
(614,375,ls),
(614,518,o),
(525,537,o),
(456,537,c),
(456,546,l),
(474,546,ls),
(511,546,o),
(589,560,o),
(589,628,c),
(589,712,o),
(500,716,o),
(460,716,c),
(29,716,l),
(29,636,l),
(79,636,o),
(96,609,o),
(96,569,cs),
(96,495,ls),
(96,455,o),
(79,434,o),
(29,434,c),
(29,334,l),
(61,334,o),
(93,330,o),
(93,298,cs),
(93,296,ls),
(93,264,o),
(61,260,o),
(29,260,c),
(29,209,l),
(61,209,o),
(93,205,o),
(93,173,cs),
(93,171,ls),
(93,139,o),
(61,135,o),
(29,135,c),
(29,0,l)
);
},
{
closed = 1;
nodes = (
(144,479,l),
(29,479,l)
);
},
{
closed = 1;
nodes = (
(144,479,l),
(144,543,l),
(29,543,l),
(29,479,l)
);
},
{
closed = 1;
nodes = (
(264,505,l),
(379,505,ls),
(407,505,o),
(420,493,o),
(420,472,cs),
(420,450,o),
(404,439,o),
(378,439,cs),
(264,439,l)
);
},
{
closed = 1;
nodes = (
(264,636,l),
(359,636,ls),
(387,636,o),
(400,622,o),
(400,604,cs),
(400,586,o),
(384,575,o),
(358,575,cs),
(264,575,l)
);
}
);
width = 639;
},
{
anchors = (
{
name = bottom;
pos = (317,0);
},
{
name = center;
pos = (333,358);
},
{
name = hook;
pos = (29,636);
},
{
name = top;
pos = (322,716);
}
);
associatedMasterId = m01;
attr = {
coordinates = (
100
);
};
layerId = "35A9F63F-6015-4F16-8AFD-97EABE311A93";
name = "Jan 26, 24 at 07:36";
shapes = (
{
closed = 1;
nodes = (
(425,0,ls),
(518,0,o),
(591,52,o),
(610,135,c),
(577,137,o),
(511,164,o),
(499,250,c),
(502,251,l),
(543,209,o),
(603,209,o),
(614,209,c),
(614,260,l),
(583,260,o),
(511,285,o),
(499,375,c),
(502,376,l),
(543,334,o),
(603,334,o),
(614,334,c),
(614,375,ls),
(614,518,o),
(525,537,o),
(456,537,c),
(456,546,l),
(474,546,ls),
(511,546,o),
(589,560,o),
(589,628,c),
(589,712,o),
(500,716,o),
(460,716,c),
(29,716,l),
(29,636,l),
(79,636,o),
(96,609,o),
(96,569,cs),
(96,495,ls),
(96,455,o),
(79,434,o),
(29,434,c),
(29,334,l),
(40,334,o),
(100,334,o),
(141,376,c),
(144,375,l),
(132,285,o),
(60,260,o),
(29,260,c),
(29,209,l),
(40,209,o),
(100,209,o),
(141,251,c),
(144,250,l),
(132,160,o),
(60,135,o),
(29,135,c),
(29,0,l)
);
},
{
closed = 1;
nodes = (
(144,479,l),
(29,479,l)
);
},
{
closed = 1;
nodes = (
(144,479,l),
(144,543,l),
(29,543,l),
(29,479,l)
);
},
{
closed = 1;
nodes = (
(264,505,l),
(379,505,ls),
(407,505,o),
(420,493,o),
(420,472,cs),
(420,450,o),
(404,439,o),
(378,439,cs),
(264,439,l)
);
},
{
closed = 1;
nodes = (
(264,636,l),
(359,636,ls),
(387,636,o),
(400,622,o),
(400,604,cs),
(400,586,o),
(384,575,o),
(358,575,cs),
(264,575,l)
);
}
);
width = 639;
}
);
unicode = 579;
},
{
glyphname = C;
kernLeft = O;
kernRight = O;
lastChange = "2024-01-31 14:46:24 +0000";
layers = (
{
anchors = (
{
name = bottom;
pos = (328,0);
},
{
name = hooktop;
pos = (587,564);
},
{
name = top;
pos = (318,716);
}
);
background = {
shapes = (
{
closed = 1;
nodes = (
(392,-6,l),
(504,-6,o),
(587,75,o),
(587,186,cs),
(587,500,l),
(423,500,l),
(423,460,o),
(407,439,o),
(377,439,cs),
(277,439,ls),
(248,439,o),
(231,458,o),
(231,492,cs),
(231,569,ls),
(231,614,o),
(254,636,o),
(299,636,cs),
(355,636,ls),
(401,636,o),
(423,613,o),
(423,564,c),
(587,564,l),
(587,652,o),
(517,722,o),
(426,722,cs),
(218,722,ls),
(110,722,o),
(29,644,o),
(29,536,cs),
(29,186,ls),
(29,75,o),
(112,-6,o),
(224,-6,cs)
);
},
{
pos = (-14,5);
ref = cutdetail.part;
}
);
};
layerId = m01;
shapes = (
{
closed = 1;
nodes = (
(398,-6,ls),
(491,-6,o),
(564,52,o),
(583,135,cs),
(585,144,o),
(587,158,o),
(587,171,cs),
(587,172,ls),
(587,185,o),
(587,176,o),
(587,209,cs),
(587,260,ls),
(587,293,o),
(587,283,o),
(587,296,cs),
(587,297,ls),
(587,310,o),
(587,301,o),
(587,334,c),
(587,500,l),
(423,500,l),
(423,460,o),
(407,439,o),
(377,439,cs),
(356,439,o),
(334,448,o),
(330,501,c),
(323,501,l),
(319,448,o),
(298,439,o),
(277,439,cs),
(248,439,o),
(231,458,o),
(231,492,cs),
(231,569,ls),
(231,614,o),
(254,636,o),
(299,636,cs),
(355,636,ls),
(401,636,o),
(423,613,o),
(423,564,c),
(587,564,l),
(587,652,o),
(517,722,o),
(426,722,cs),
(218,722,ls),
(110,722,o),
(29,644,o),
(29,536,c),
(29,334,l),
(29,301,o),
(29,310,o),
(29,297,cs),
(29,296,ls),
(29,283,o),
(29,293,o),
(29,260,cs),
(29,209,ls),
(29,175,o),
(29,184,o),
(29,171,cs),
(29,170,ls),
(29,157,o),
(31,144,o),
(33,135,cs),
(52,52,o),
(125,-6,o),
(218,-6,cs)
);
}
);
width = 616;
},
{
anchors = (
{
name = bottom;
pos = (328,0);
},
{
name = hooktop;
pos = (587,564);
},
{
name = top;
pos = (318,716);
}
);
associatedMasterId = m01;
attr = {
coordinates = (
50
);
};
background = {
shapes = (
{
closed = 1;
nodes = (
(392,-6,l),
(504,-6,o),
(587,75,o),
(587,186,cs),
(587,500,l),
(423,500,l),
(423,460,o),
(407,439,o),
(377,439,cs),
(277,439,ls),
(248,439,o),
(231,458,o),
(231,492,cs),
(231,569,ls),
(231,614,o),
(254,636,o),
(299,636,cs),
(355,636,ls),
(401,636,o),
(423,613,o),
(423,564,c),
(587,564,l),
(587,652,o),
(517,722,o),
(426,722,cs),
(218,722,ls),
(110,722,o),
(29,644,o),
(29,536,cs),
(29,186,ls),
(29,75,o),
(112,-6,o),
(224,-6,cs)
);
},
{
pos = (-14,5);
ref = cutdetail.part;
}
);
};
layerId = "1C43B6C0-F28D-4CD9-BDEC-6F9B953F1AF5";
name = "Jan 26, 24 at 07:42";
shapes = (
{
closed = 1;
nodes = (
(398,-6,ls),
(491,-6,o),
(564,52,o),
(583,135,c),
(552,135,o),
(523,140,o),
(523,171,cs),
(523,173,ls),
(523,205,o),
(555,209,o),
(587,209,c),
(587,260,l),
(555,260,o),
(523,264,o),
(523,296,cs),
(523,298,ls),
(523,330,o),
(555,334,o),
(587,334,c),
(587,500,l),
(423,500,l),
(423,460,o),
(407,439,o),
(377,439,cs),
(356,439,o),
(334,448,o),
(330,501,c),
(323,501,l),
(319,448,o),
(298,439,o),
(277,439,cs),
(248,439,o),
(231,458,o),
(231,492,cs),
(231,569,ls),
(231,614,o),
(254,636,o),
(299,636,cs),
(355,636,ls),
(401,636,o),
(423,613,o),
(423,564,c),
(587,564,l),
(587,652,o),
(517,722,o),
(426,722,cs),
(218,722,ls),
(110,722,o),
(29,644,o),
(29,536,c),
(29,334,l),
(61,334,o),
(93,330,o),
(93,298,cs),
(93,296,ls),
(93,264,o),
(61,260,o),
(29,260,c),
(29,209,l),
(61,209,o),
(93,205,o),
(93,173,cs),
(93,171,ls),
(93,140,o),
(64,135,o),
(33,135,c),
(52,52,o),
(125,-6,o),
(218,-6,cs)
);
}
);
width = 616;
},
{
anchors = (
{
name = bottom;
pos = (328,0);
},
{
name = hooktop;
pos = (587,564);
},
{
name = top;
pos = (318,716);
}
);
associatedMasterId = m01;
attr = {
coordinates = (
100
);
};
background = {
shapes = (
{
closed = 1;
nodes = (
(392,-6,l),
(504,-6,o),
(587,75,o),
(587,186,cs),
(587,500,l),
(423,500,l),
(423,460,o),
(407,439,o),
(377,439,cs),
(277,439,ls),
(248,439,o),
(231,458,o),
(231,492,cs),
(231,569,ls),
(231,614,o),
(254,636,o),
(299,636,cs),
(355,636,ls),
(401,636,o),
(423,613,o),
(423,564,c),
(587,564,l),
(587,652,o),
(517,722,o),
(426,722,cs),
(218,722,ls),
(110,722,o),
(29,644,o),
(29,536,cs),
(29,186,ls),
(29,75,o),
(112,-6,o),
(224,-6,cs)
);
},
{
pos = (-14,5);
ref = cutdetail.part;
}
);
};
layerId = "43FA71A1-C41F-4741-AB48-ACD878AB64B8";
name = "Jan 26, 24 at 07:42";
shapes = (
{
closed = 1;
nodes = (
(398,-6,ls),
(491,-6,o),
(564,52,o),
(583,135,c),
(550,137,o),
(484,164,o),
(472,250,c),
(475,251,l),
(516,209,o),
(576,209,o),
(587,209,c),
(587,260,l),
(556,260,o),
(484,285,o),
(472,375,c),
(475,376,l),
(516,334,o),
(576,334,o),
(587,334,c),
(587,500,l),
(423,500,l),
(423,460,o),
(407,439,o),
(377,439,cs),
(356,439,o),
(334,448,o),
(330,501,c),
(323,501,l),
(319,448,o),
(298,439,o),
(277,439,cs),
(248,439,o),
(231,458,o),
(231,492,cs),
(231,569,ls),
(231,614,o),
(254,636,o),
(299,636,cs),
(355,636,ls),
(401,636,o),
(423,613,o),
(423,564,c),
(587,564,l),
(587,652,o),
(517,722,o),
(426,722,cs),
(218,722,ls),
(110,722,o),
(29,644,o),
(29,536,c),
(29,334,l),
(40,334,o),
(100,334,o),
(141,376,c),
(144,375,l),
(132,285,o),
(60,260,o),
(29,260,c),
(29,209,l),
(40,209,o),
(100,209,o),
(141,251,c),
(144,250,l),
(132,164,o),
(66,137,o),
(33,135,c),
(52,52,o),
(125,-6,o),
(218,-6,cs)
);
}
);
width = 616;
}
);
unicode = 67;
},
{
glyphname = "Chi-latin";
kernLeft = X;
kernRight = X;
lastChange = "2024-01-31 14:46:24 +0000";
layers = (
{
anchors = (
{
name = bottom;
pos = (347,0);
},
{
name = top;
pos = (357,715);
}
);
layerId = m01;
name = Regular;
shapes = (
{
closed = 1;
nodes = (
(571,-6,o),
(634,-4,o),
(666,0,c),
(666,434,l),
(647,434,ls),
(632,434,o),
(610,441,o),
(592,451,cs),
(437,542,l),
(437,544,l),
(569,619,ls),
(591,631,o),
(610,636,o),
(635,636,cs),
(649,636,l),
(649,716,l),
(392,716,l),
(392,631,l),
(406,631,ls),
(417,631,o),
(423,626,o),
(423,620,cs),
(423,616,o),
(420,612,o),
(414,609,cs),
(363,581,l),
(318,612,ls),
(312,616,o),
(308,620,o),
(308,624,cs),
(308,628,o),
(311,631,o),
(317,631,cs),
(337,631,l),
(337,716,l),
(27,716,l),
(27,636,l),
(43,636,ls),
(61,636,o),
(80,629,o),
(114,608,cs),
(241,529,l),
(241,527,l),
(108,447,ls),
(92,438,o),
(69,434,o),
(27,434,c),
(27,334,ls),
(27,301,o),
(27,310,o),
(27,297,cs),
(27,296,ls),
(27,283,o),
(27,293,o),
(27,260,cs),
(27,209,ls),
(27,176,o),
(27,185,o),
(27,172,cs),
(27,171,ls),
(27,158,o),
(27,168,o),
(27,135,cs),
(27,0,l),
(294,0,l),
(294,439,l),
(262,439,ls),
(254,439,o),
(250,443,o),
(250,448,cs),
(250,452,o),
(252,455,o),
(257,458,cs),
(305,486,l),
(360,451,ls),
(377,440,o),
(379,434,o),
(379,410,cs),
(379,334,ls),
(379,305,o),
(379,306,o),
(379,297,cs),
(379,296,ls),
(379,283,o),
(379,293,o),
(379,260,cs),
(379,209,ls),
(379,176,o),
(379,185,o),
(379,172,cs),
(379,171,ls),
(379,158,o),
(379,168,o),
(379,135,cs),
(379,119,ls),
(379,46,o),
(407,-6,o),
(539,-6,cs)
);
}
);
width = 693;
},
{
anchors = (
{
name = bottom;
pos = (347,0);
},
{
name = top;
pos = (357,715);
}
);
associatedMasterId = m01;
attr = {
coordinates = (
50
);
};
layerId = "C507B872-82BA-4E8F-A8AF-463FA29B645F";
name = "{50} Jan 23, 24 at 10:37";
shapes = (
{
closed = 1;
nodes = (
(571,-6,o),
(634,-4,o),
(666,0,c),
(666,434,l),
(647,434,ls),
(632,434,o),
(610,441,o),
(592,451,cs),
(437,542,l),
(437,544,l),
(569,619,ls),
(591,631,o),
(610,636,o),
(635,636,cs),
(649,636,l),
(649,716,l),
(392,716,l),
(392,631,l),
(406,631,ls),
(417,631,o),
(423,626,o),
(423,620,cs),
(423,616,o),
(420,612,o),
(414,609,cs),
(363,581,l),
(318,612,ls),
(312,616,o),
(308,620,o),
(308,624,cs),
(308,628,o),
(311,631,o),
(317,631,cs),
(337,631,l),
(337,716,l),
(27,716,l),
(27,636,l),
(43,636,ls),
(61,636,o),
(80,629,o),
(114,608,cs),
(241,529,l),
(241,527,l),
(108,447,ls),
(92,438,o),
(69,434,o),
(27,434,c),
(27,334,l),
(59,334,o),
(91,330,o),
(91,298,cs),
(91,296,ls),
(91,264,o),
(59,260,o),
(27,260,c),
(27,209,l),
(59,209,o),
(91,205,o),
(91,173,cs),
(91,171,ls),
(91,139,o),
(59,135,o),
(27,135,c),
(27,0,l),
(294,0,l),
(294,439,l),
(262,439,ls),
(254,439,o),
(250,443,o),
(250,448,cs),
(250,452,o),
(252,455,o),
(257,458,cs),
(305,486,l),
(360,451,ls),
(377,440,o),
(379,434,o),
(379,410,cs),
(379,334,l),
(411,334,o),
(443,330,o),
(443,298,cs),
(443,296,ls),
(443,264,o),
(411,260,o),
(379,260,c),
(379,209,l),
(411,209,o),
(443,205,o),
(443,173,cs),
(443,171,ls),
(443,139,o),
(411,135,o),
(379,135,c),
(379,119,ls),
(379,46,o),
(407,-6,o),
(539,-6,cs)
);
}
);
width = 693;
},
{
anchors = (
{
name = bottom;
pos = (347,0);
},
{
name = top;
pos = (357,715);
}
);
associatedMasterId = m01;
attr = {
coordinates = (
100
);
};
layerId = "FA76FC13-1C44-40D2-8CDD-4AE56F918EA6";
name = "Jan 23, 24 at 10:37";
shapes = (
{
closed = 1;
nodes = (
(571,-6,o),
(634,-4,o),
(666,0,c),
(666,434,l),
(647,434,ls),
(632,434,o),
(610,441,o),
(592,451,cs),
(437,542,l),
(437,544,l),
(569,619,ls),
(591,631,o),
(610,636,o),
(635,636,cs),
(649,636,l),
(649,716,l),
(392,716,l),
(392,631,l),
(406,631,ls),
(417,631,o),
(423,626,o),
(423,620,cs),
(423,616,o),
(420,612,o),
(414,609,cs),
(363,581,l),
(318,612,ls),
(312,616,o),
(308,620,o),
(308,624,cs),
(308,628,o),
(311,631,o),
(317,631,cs),
(337,631,l),
(337,716,l),
(27,716,l),
(27,636,l),
(43,636,ls),
(61,636,o),
(80,629,o),
(114,608,cs),
(241,529,l),
(241,527,l),
(108,447,ls),
(92,438,o),
(69,434,o),
(27,434,c),
(27,334,l),
(38,334,o),
(98,334,o),
(139,376,c),
(142,375,l),
(130,285,o),
(58,260,o),
(27,260,c),
(27,209,l),
(38,209,o),
(98,209,o),
(139,251,c),
(142,250,l),
(130,160,o),
(58,135,o),
(27,135,c),
(27,0,l),
(294,0,l),
(294,439,l),
(262,439,ls),
(254,439,o),
(250,443,o),
(250,448,cs),
(250,452,o),
(252,455,o),
(257,458,cs),
(305,486,l),
(360,451,ls),
(377,440,o),
(379,434,o),
(379,410,cs),
(379,334,l),
(390,334,o),
(450,334,o),
(491,376,c),
(494,375,l),
(482,285,o),
(410,260,o),
(379,260,c),
(379,209,l),
(390,209,o),
(450,209,o),
(491,251,c),
(494,250,l),
(482,160,o),
(410,135,o),
(379,135,c),
(379,119,l),
(379,46,o),
(407,-6,o),
(539,-6,cs)
);
}
);
width = 693;
}
);
metricLeft = X;
metricRight = X;
unicode = 42931;
},
{
glyphname = Cstroke;
kernLeft = O;
kernRight = O;
lastChange = "2024-01-31 14:46:24 +0000";
layers = (
{
layerId = m01;
shapes = (
{
ref = C;
},
{
closed = 1;
nodes = (
(478,671,l),
(550,791,l),
(460,792,l),
(383,672,l)
);
},
{
closed = 1;
nodes = (
(156,-60,l),
(214,57,l),
(119,59,l),
(66,-59,l)
);
}
);
width = 616;
},
{
associatedMasterId = m01;
attr = {
coordinates = (
50
);
};
layerId = "1071BEAC-6AF5-46E9-953E-62E9C5CB7542";
name = "{50} 9 Jan 24 at 16:39";
shapes = (
{
ref = C;
},
{
closed = 1;
nodes = (
(478,671,l),
(550,791,l),
(460,792,l),
(383,672,l)
);
},
{
closed = 1;
nodes = (
(156,-60,l),
(214,57,l),
(119,59,l),
(66,-59,l)
);
}
);
width = 616;
},
{
associatedMasterId = m01;
attr = {
coordinates = (
100
);
};
layerId = "206527CC-CCC8-433F-8425-5B93DC076B31";
name = "9 Jan 24 at 16:39";
shapes = (
{
ref = C;
},
{
closed = 1;
nodes = (
(478,671,l),
(550,791,l),
(460,791,l),
(383,671,l)
);
},
{
closed = 1;
nodes = (
(156,-60,l),
(214,58,l),
(119,58,l),
(66,-60,l)
);
}
);
width = 616;
}
);
metricLeft = O;
metricRight = O;
unicode = 571;
},
{
glyphname = D;
kernLeft = H;
kernRight = O;
lastChange = "2024-01-31 14:46:24 +0000";
layers = (
{
anchors = (
{
name = bottom;
pos = (303,0);
},
{
name = center;
pos = (303,358);
},
{
name = hook;
pos = (29,636);
},
{
name = top;
pos = (322,716);
},
{
name = topright;
pos = (630,589);
}
);
layerId = m01;
shapes = (
{
closed = 1;
nodes = (
(405,0,ls),
(498,0,o),
(571,52,o),
(590,135,cs),
(592,144,o),
(594,158,o),
(594,171,cs),
(594,172,ls),
(594,185,o),
(594,176,o),
(594,209,cs),
(594,260,ls),
(594,293,o),
(594,283,o),
(594,296,cs),
(594,297,ls),
(594,310,o),
(594,301,o),
(594,334,c),
(594,530,ls),
(594,637,o),
(514,716,o),
(405,716,cs),
(29,716,l),
(29,636,l),
(79,636,o),
(96,609,o),
(96,569,cs),
(96,495,ls),
(96,455,o),
(79,434,o),
(29,434,c),
(29,334,ls),
(29,301,o),
(29,310,o),
(29,297,cs),
(29,296,ls),
(29,283,o),
(29,293,o),
(29,260,cs),
(29,209,ls),
(29,176,o),
(29,185,o),
(29,172,cs),
(29,171,ls),
(29,158,o),
(29,168,o),
(29,135,cs),
(29,0,l)
);
},
{
closed = 1;
nodes = (
(264,636,l),
(334,636,ls),
(384,636,o),
(402,619,o),
(402,569,cs),
(402,506,ls),
(402,456,o),
(384,439,o),
(334,439,cs),
(264,439,l)
);
}
);
width = 623;
},
{
anchors = (
{
name = bottom;
pos = (303,0);
},
{
name = center;
pos = (303,358);
},
{
name = hook;
pos = (29,636);
},
{
name = top;
pos = (322,716);
},
{
name = topright;
pos = (630,589);
}
);
associatedMasterId = m01;
attr = {
coordinates = (
50
);
};
layerId = "56BB443A-D979-4E8B-938D-1BC35D7EEDEC";
name = "Jan 26, 24 at 07:48";
shapes = (
{
closed = 1;
nodes = (
(405,0,ls),
(498,0,o),
(571,52,o),
(590,135,c),
(559,135,o),
(530,140,o),
(530,171,cs),
(530,173,ls),
(530,205,o),
(562,209,o),
(594,209,c),
(594,260,l),
(562,260,o),
(530,264,o),
(530,296,cs),
(530,298,ls),
(530,330,o),
(562,334,o),
(594,334,c),
(594,530,ls),
(594,637,o),
(514,716,o),
(405,716,cs),
(29,716,l),
(29,636,l),
(79,636,o),
(96,609,o),
(96,569,cs),
(96,495,ls),
(96,455,o),
(79,434,o),
(29,434,c),
(29,334,l),
(61,334,o),
(93,330,o),
(93,298,cs),
(93,296,ls),
(93,264,o),
(61,260,o),
(29,260,c),
(29,209,l),
(61,209,o),
(93,205,o),
(93,173,cs),
(93,171,ls),
(93,139,o),
(61,135,o),
(29,135,c),
(29,0,l)
);
},
{
closed = 1;
nodes = (
(264,636,l),
(334,636,ls),
(384,636,o),
(402,619,o),
(402,569,cs),
(402,506,ls),
(402,456,o),
(384,439,o),
(334,439,cs),
(264,439,l)
);
}
);
width = 623;
},
{
anchors = (
{
name = bottom;
pos = (303,0);
},
{
name = center;
pos = (303,358);
},
{
name = hook;
pos = (29,636);
},
{
name = top;
pos = (322,716);
},
{
name = topright;
pos = (630,589);
}
);
associatedMasterId = m01;
attr = {
coordinates = (
100
);
};
layerId = "F2009AA9-AA82-4130-93AE-733AE6F20FE4";
name = "Jan 26, 24 at 07:48";
shapes = (
{
closed = 1;
nodes = (
(405,0,ls),
(498,0,o),
(571,52,o),
(590,135,c),
(557,137,o),
(491,164,o),
(479,250,c),
(482,251,l),
(523,209,o),
(583,209,o),
(594,209,c),
(594,260,l),
(563,260,o),
(491,285,o),
(479,375,c),
(482,376,l),
(523,334,o),
(583,334,o),
(594,334,c),
(594,530,ls),
(594,637,o),
(514,716,o),
(405,716,cs),
(29,716,l),
(29,636,l),
(79,636,o),
(96,609,o),
(96,569,cs),
(96,495,ls),
(96,455,o),
(79,434,o),
(29,434,c),
(29,334,l),
(40,334,o),
(100,334,o),
(141,376,c),
(144,375,l),
(132,285,o),
(60,260,o),
(29,260,c),
(29,209,l),
(40,209,o),
(100,209,o),
(141,251,c),
(144,250,l),
(132,160,o),
(60,135,o),
(29,135,c),
(29,0,l)
);
},
{
closed = 1;
nodes = (
(264,636,l),
(334,636,ls),
(384,636,o),
(402,619,o),
(402,569,cs),
(402,506,ls),
(402,456,o),
(384,439,o),
(334,439,cs),
(264,439,l)
);
}
);
width = 623;
}
);
metricLeft = H;
unicode = 68;
},
{
glyphname = Dhook;
kernLeft = LeftHook;
kernRight = O;
lastChange = "2024-01-31 14:46:24 +0000";
layers = (
{
anchors = (
{
name = bottom;
pos = (382,0);
},
{
name = center;
pos = (382,358);
},
{
name = hook;
pos = (108,636);
},
{
name = top;
pos = (401,716);
},
{
name = topright;
pos = (731,589);
}
);
layerId = m01;
shapes = (
{
closed = 1;
nodes = (
(484,0,ls),
(577,0,o),
(650,52,o),
(669,135,cs),
(671,144,o),
(673,158,o),
(673,171,cs),
(673,172,ls),
(673,185,o),
(673,176,o),
(673,209,cs),
(673,260,ls),
(673,293,o),
(673,283,o),
(673,296,cs),
(673,297,ls),
(673,310,o),
(673,301,o),
(673,334,c),
(673,530,ls),
(673,637,o),
(593,716,o),
(484,716,cs),
(175,716,ls),
(26,716,o),
(-8,627,o),
(-8,563,cs),
(-8,530,o),
(-3,493,o),
(5,476,c),
(132,476,l),
(114,503,o),
(98,542,o),
(98,576,cs),
(98,613,o),
(118,641,o),
(175,641,c),
(175,495,ls),
(175,455,o),
(158,434,o),
(108,434,c),
(108,334,ls),
(108,301,o),
(108,310,o),
(108,297,cs),
(108,296,ls),
(108,283,o),
(108,293,o),
(108,260,cs),
(108,209,ls),
(108,176,o),
(108,185,o),
(108,172,cs),
(108,171,ls),
(108,158,o),
(108,168,o),
(108,135,cs),
(108,0,l)
);
},
{
closed = 1;
nodes = (
(343,636,l),
(413,636,ls),
(463,636,o),
(481,619,o),
(481,569,cs),
(481,506,ls),
(481,456,o),
(463,439,o),
(413,439,cs),
(343,439,l)
);
}
);
width = 702;
},
{
anchors = (
{
name = bottom;
pos = (382,0);
},
{
name = center;
pos = (382,358);
},
{
name = hook;
pos = (108,636);
},
{
name = top;
pos = (401,716);
},
{
name = topright;
pos = (731,589);
}
);
associatedMasterId = m01;
attr = {
coordinates = (
50
);
};
layerId = "9F1184B4-B110-42AE-AC98-E6EE452E95CF";
name = "Jan 26, 24 at 07:54";
shapes = (
{
closed = 1;
nodes = (
(484,0,ls),
(577,0,o),
(650,52,o),
(669,135,c),
(638,135,o),
(609,140,o),
(609,171,cs),
(609,173,ls),
(609,205,o),
(641,209,o),
(673,209,c),
(673,260,l),
(641,260,o),
(609,264,o),
(609,296,cs),
(609,298,ls),
(609,330,o),
(641,334,o),
(673,334,c),
(673,530,ls),
(673,637,o),
(593,716,o),
(484,716,cs),
(175,716,ls),
(26,716,o),
(-8,627,o),
(-8,563,cs),
(-8,530,o),
(-3,493,o),
(5,476,c),
(132,476,l),
(114,503,o),
(98,542,o),
(98,576,cs),
(98,613,o),
(118,641,o),
(175,641,c),
(175,495,ls),
(175,455,o),
(158,434,o),
(108,434,c),
(108,334,l),
(140,334,o),
(172,330,o),
(172,298,cs),
(172,296,ls),
(172,264,o),
(140,260,o),
(108,260,c),
(108,209,l),
(140,209,o),
(172,205,o),
(172,173,cs),
(172,171,ls),
(172,139,o),
(140,135,o),
(108,135,c),
(108,0,l)
);
},
{
closed = 1;
nodes = (
(343,636,l),
(413,636,ls),
(463,636,o),
(481,619,o),
(481,569,cs),
(481,506,ls),
(481,456,o),
(463,439,o),
(413,439,cs),
(343,439,l)
);
}
);
width = 702;
},
{
anchors = (
{
name = bottom;
pos = (382,0);
},
{
name = center;
pos = (382,358);
},
{
name = hook;
pos = (108,636);
},
{
name = top;
pos = (401,716);
},
{
name = topright;
pos = (731,589);
}
);
associatedMasterId = m01;
attr = {
coordinates = (
100
);
};
layerId = "74AC331C-8D0F-4ED8-870B-2C2064429215";
name = "Jan 26, 24 at 07:54";
shapes = (
{
closed = 1;
nodes = (
(484,0,ls),
(577,0,o),
(650,52,o),
(669,135,c),
(636,137,o),
(570,164,o),
(558,250,c),
(561,251,l),
(602,209,o),
(662,209,o),
(673,209,c),
(673,260,l),
(642,260,o),
(570,285,o),
(558,375,c),
(561,376,l),
(602,334,o),
(662,334,o),
(673,334,c),
(673,530,ls),
(673,637,o),
(593,716,o),
(484,716,cs),
(175,716,ls),
(26,716,o),
(-8,627,o),
(-8,563,cs),
(-8,530,o),
(-3,493,o),
(5,476,c),
(132,476,l),
(114,503,o),
(98,542,o),
(98,576,cs),
(98,613,o),
(118,641,o),
(175,641,c),
(175,495,ls),
(175,455,o),
(158,434,o),
(108,434,c),
(108,334,l),
(119,334,o),
(179,334,o),
(220,376,c),
(223,375,l),
(211,285,o),
(139,260,o),
(108,260,c),
(108,209,l),
(119,209,o),
(179,209,o),
(220,251,c),
(223,250,l),
(211,160,o),
(139,135,o),
(108,135,c),
(108,0,l)
);
},
{
closed = 1;
nodes = (
(343,636,l),
(413,636,ls),
(463,636,o),
(481,619,o),
(481,569,cs),
(481,506,ls),
(481,456,o),
(463,439,o),
(413,439,cs),
(343,439,l)
);
}
);
width = 702;
}
);
unicode = 394;
},
{
glyphname = Eth;
kernLeft = H;
kernRight = O;
lastChange = "2024-01-31 14:46:24 +0000";
layers = (
{
anchors = (
{
name = bottom;
pos = (303,0);
},
{
name = center;
pos = (303,358);
},
{
name = hook;
pos = (29,636);
},
{
name = top;
pos = (322,716);
},
{
name = topright;
pos = (652,589);
}
);
layerId = m01;
shapes = (
{
closed = 1;
nodes = (
(405,0,ls),
(498,0,o),
(571,52,o),
(590,135,cs),
(592,144,o),
(594,158,o),
(594,171,cs),
(594,172,ls),
(594,185,o),
(594,176,o),
(594,209,cs),
(594,260,ls),
(594,293,o),
(594,283,o),
(594,296,cs),
(594,297,ls),
(594,310,o),
(594,301,o),
(594,334,c),
(594,530,ls),
(594,637,o),
(514,716,o),
(405,716,cs),
(29,716,l),
(29,636,l),
(79,636,o),
(96,609,o),
(96,569,cs),
(96,495,ls),
(96,455,o),
(79,434,o),
(29,434,c),
(29,334,ls),
(29,301,o),
(29,310,o),
(29,297,cs),
(29,296,ls),
(29,283,o),
(29,293,o),
(29,260,cs),
(29,209,ls),
(29,176,o),
(29,185,o),
(29,172,cs),
(29,171,ls),
(29,158,o),
(29,168,o),
(29,135,cs),
(29,0,l)
);
},
{
closed = 1;
nodes = (
(323,501,l),
(323,571,l),
(31,571,l),
(31,501,l)
);
},
{
closed = 1;
nodes = (
(264,636,l),
(334,636,ls),
(384,636,o),
(402,619,o),
(402,569,cs),
(402,506,ls),
(402,456,o),
(384,439,o),
(334,439,cs),
(264,439,l)
);
}
);
width = 623;
},
{
anchors = (
{
name = bottom;
pos = (303,0);
},
{
name = center;
pos = (303,358);
},
{
name = hook;
pos = (29,636);
},
{
name = top;
pos = (322,716);
},
{
name = topright;
pos = (652,589);
}
);
associatedMasterId = m01;
attr = {
coordinates = (
50
);
};
layerId = "BDDDF001-7605-4740-99FE-6E1D7BF2AD8A";
name = "Jan 26, 24 at 07:51";
shapes = (
{
closed = 1;
nodes = (
(405,0,ls),
(498,0,o),
(571,52,o),
(590,135,c),
(559,135,o),
(530,140,o),
(530,171,cs),
(530,173,ls),
(530,205,o),
(562,209,o),
(594,209,c),
(594,260,l),
(562,260,o),
(530,264,o),
(530,296,cs),
(530,298,ls),
(530,330,o),
(562,334,o),
(594,334,c),
(594,530,ls),
(594,637,o),
(514,716,o),
(405,716,cs),
(29,716,l),
(29,636,l),
(79,636,o),
(96,609,o),
(96,569,cs),
(96,495,ls),
(96,455,o),
(79,434,o),
(29,434,c),
(29,334,l),
(61,334,o),
(93,330,o),
(93,298,cs),
(93,296,ls),
(93,264,o),
(61,260,o),
(29,260,c),
(29,209,l),
(61,209,o),
(93,205,o),
(93,173,cs),
(93,171,ls),
(93,139,o),
(61,135,o),
(29,135,c),
(29,0,l)
);
},
{
closed = 1;
nodes = (
(323,501,l),
(323,571,l),
(31,571,l),
(31,501,l)
);
},
{
closed = 1;
nodes = (
(264,636,l),
(334,636,ls),
(384,636,o),
(402,619,o),
(402,569,cs),
(402,506,ls),
(402,456,o),
(384,439,o),
(334,439,cs),
(264,439,l)
);
}
);
width = 623;
},
{
anchors = (
{
name = bottom;
pos = (303,0);
},
{
name = center;
pos = (303,358);
},
{
name = hook;
pos = (29,636);
},
{
name = top;
pos = (322,716);
},
{
name = topright;
pos = (652,589);
}
);
associatedMasterId = m01;
attr = {
coordinates = (
100
);
};
layerId = "75DFF0A4-8F9A-4E68-9A3C-EAD8096DB8FC";
name = "Jan 26, 24 at 07:51";
shapes = (
{
closed = 1;
nodes = (
(405,0,ls),
(498,0,o),
(571,52,o),
(590,135,c),
(557,137,o),
(491,164,o),
(479,250,c),
(482,251,l),
(523,209,o),
(583,209,o),
(594,209,c),
(594,260,l),
(563,260,o),
(491,285,o),
(479,375,c),
(482,376,l),
(523,334,o),
(583,334,o),
(594,334,c),
(594,530,ls),
(594,637,o),
(514,716,o),
(405,716,cs),
(29,716,l),
(29,636,l),
(79,636,o),
(96,609,o),
(96,569,cs),
(96,495,ls),
(96,455,o),
(79,434,o),
(29,434,c),
(29,334,l),
(40,334,o),
(100,334,o),
(141,376,c),
(144,375,l),
(132,285,o),
(60,260,o),
(29,260,c),
(29,209,l),
(40,209,o),
(100,209,o),
(141,251,c),
(144,250,l),
(132,160,o),
(60,135,o),
(29,135,c),
(29,0,l)
);
},
{
closed = 1;
nodes = (
(323,501,l),
(323,571,l),
(31,571,l),
(31,501,l)
);
},
{
closed = 1;
nodes = (
(264,636,l),
(334,636,ls),
(384,636,o),
(402,619,o),
(402,569,cs),
(402,506,ls),
(402,456,o),
(384,439,o),
(334,439,cs),
(264,439,l)
);
}
);
width = 623;
}
);
metricLeft = D;
metricRight = D;
unicode = 208;
},
{
glyphname = E;
kernLeft = H;
kernRight = E;
lastChange = "2024-01-31 14:46:24 +0000";
layers = (
{
anchors = (
{
name = bottom;
pos = (306,0);
},
{
name = ogonek;
pos = (547,0);
},
{
name = top;
pos = (298,716);
}
);
layerId = m01;
shapes = (
{
closed = 1;
nodes = (
(547,0,l),
(547,135,ls),
(547,168,o),
(547,158,o),
(547,171,cs),
(547,172,ls),
(547,185,o),
(547,176,o),
(547,209,cs),
(547,260,ls),
(547,293,o),
(547,283,o),
(547,296,cs),
(547,297,ls),
(547,310,o),
(547,301,o),
(547,334,c),
(547,500,l),
(457,500,l),
(457,460,o),
(440,439,o),
(390,439,cs),
(263,439,l),
(263,505,l),
(380,505,l),
(380,575,l),
(263,575,l),
(263,636,l),
(384,636,ls),
(434,636,o),
(451,609,o),
(451,569,c),
(541,569,l),
(541,716,l),
(29,716,l),
(29,636,l),
(79,636,o),
(97,604,o),
(97,564,cs),
(97,500,ls),
(97,460,o),
(80,434,o),
(30,434,c),
(30,334,ls),
(30,302,o),
(30,310,o),
(30,297,cs),
(30,296,ls),
(30,283,o),
(30,293,o),
(30,260,cs),
(30,209,ls),
(30,176,o),
(30,185,o),
(30,172,cs),
(30,171,ls),
(30,158,o),
(30,168,o),
(30,135,cs),
(30,0,l)
);
}
);
width = 576;
},
{
anchors = (
{
name = bottom;
pos = (306,0);
},
{
name = ogonek;
pos = (547,0);
},
{
name = top;
pos = (298,716);
}
);
associatedMasterId = m01;
attr = {
coordinates = (
50
);
};
layerId = "B65E3FE2-8280-425A-8FC6-7230ECED0DBA";
name = "Jan 26, 24 at 06:58";
shapes = (
{
closed = 1;
nodes = (
(547,0,l),
(547,135,l),
(515,135,o),
(483,139,o),
(483,171,cs),
(483,173,ls),
(483,205,o),
(515,209,o),
(547,209,c),
(547,260,l),
(515,260,o),
(483,264,o),
(483,296,cs),
(483,298,ls),
(483,330,o),
(515,334,o),
(547,334,c),
(547,500,l),
(457,500,l),
(457,460,o),
(440,439,o),
(390,439,cs),
(263,439,l),
(263,505,l),
(380,505,l),
(380,575,l),
(263,575,l),
(263,636,l),
(384,636,ls),
(434,636,o),
(451,609,o),
(451,569,c),
(541,569,l),
(541,716,l),
(29,716,l),
(29,636,l),
(79,636,o),
(97,604,o),
(97,564,cs),
(97,500,ls),
(97,460,o),
(80,434,o),
(30,434,c),
(30,334,l),
(62,334,o),
(94,330,o),
(94,298,cs),
(94,296,ls),
(94,264,o),
(62,260,o),
(30,260,c),
(30,209,l),
(62,209,o),
(94,205,o),
(94,173,cs),
(94,171,ls),
(94,139,o),
(62,135,o),
(30,135,c),
(30,0,l)
);
}
);
width = 576;
},
{
anchors = (
{
name = bottom;
pos = (306,0);
},
{
name = ogonek;
pos = (547,0);
},
{
name = top;
pos = (298,716);
}
);
associatedMasterId = m01;
attr = {
coordinates = (
100
);
};
layerId = "6AA9FAAD-E20D-4729-B736-CBCBB0571F7A";
name = "Jan 26, 24 at 06:58";
shapes = (
{
closed = 1;
nodes = (
(547,0,l),
(547,135,l),
(516,135,o),
(444,160,o),
(432,250,c),
(435,251,l),
(476,209,o),
(536,209,o),
(547,209,c),
(547,260,l),
(516,260,o),
(444,285,o),
(432,375,c),
(435,376,l),
(476,334,o),
(536,334,o),
(547,334,c),
(547,500,l),
(457,500,l),
(457,460,o),
(440,439,o),
(390,439,cs),
(263,439,l),
(263,505,l),
(380,505,l),
(380,575,l),
(263,575,l),
(263,636,l),
(384,636,ls),
(434,636,o),
(451,609,o),
(451,569,c),
(541,569,l),
(541,716,l),
(29,716,l),
(29,636,l),
(79,636,o),
(97,604,o),
(97,564,cs),
(97,500,ls),
(97,460,o),
(80,434,o),
(30,434,c),
(30,334,l),
(41,334,o),
(101,334,o),
(142,376,c),
(145,375,l),
(133,285,o),
(61,260,o),
(30,260,c),
(30,209,l),
(41,209,o),
(101,209,o),
(142,251,c),
(145,250,l),
(133,160,o),
(61,135,o),
(30,135,c),
(30,0,l)
);
}
);
width = 576;
}
);
metricLeft = H;
unicode = 69;
},
{
color = 7;
glyphname = Eopen;
kernLeft = H;
kernRight = E;
lastChange = "2024-01-31 14:46:24 +0000";
layers = (
{
background = {
shapes = (
{
closed = 1;
nodes = (
(403,453,o),
(388,439,o),
(356,439,cs),
(266,439,ls),
(237,439,o),
(219,449,o),
(219,472,cs),
(219,492,o),
(236,505,o),
(266,505,cs),
(346,505,l),
(346,575,l),
(292,575,ls),
(263,575,o),
(245,587,o),
(245,606,cs),
(245,625,o),
(262,636,o),
(292,636,cs),
(341,636,ls),
(371,636,o),
(388,625,o),
(388,606,cs),
(388,575,l),
(554,575,l),
(554,629,ls),
(554,687,o),
(510,722,o),
(416,722,cs),
(189,722,ls),
(95,722,o),
(51,689,o),
(51,631,cs),
(51,578,o),
(86,543,o),
(140,543,cs),
(178,543,l),
(178,540,l),
(75,540,o),
(20,483,o),
(20,375,cs),
(20,183,ls),
(20,76,o),
(100,-6,o),
(209,-6,cs),
(403,-6,ls),
(512,-6,o),
(574,75,o),
(574,182,cs),
(574,492,l),
(403,492,l),
(403,470,l)
);
}
);
};
layerId = m01;
shapes = (
{
closed = 1;
nodes = (
(385,-6,ls),
(478,-6,o),
(551,52,o),
(570,135,cs),
(572,144,o),
(574,158,o),
(574,171,cs),
(574,172,ls),
(574,185,o),
(574,176,o),
(574,209,cs),
(574,260,ls),
(574,293,o),
(574,283,o),
(574,296,cs),
(574,297,ls),
(574,310,o),
(574,301,o),
(574,334,c),
(574,492,l),
(403,492,l),
(403,470,l),
(403,453,o),
(388,439,o),
(356,439,cs),
(266,439,ls),
(237,439,o),
(219,449,o),
(219,472,cs),
(219,492,o),
(236,505,o),
(266,505,cs),
(346,505,l),
(346,575,l),
(292,575,ls),
(263,575,o),
(245,587,o),
(245,606,cs),
(245,625,o),
(262,636,o),
(298,636,cs),
(353,636,ls),
(390,636,o),
(408,619,o),
(408,573,c),
(562,573,l),
(562,656,o),
(496,722,o),
(410,722,cs),
(205,722,ls),
(103,722,o),
(51,697,o),
(51,631,cs),
(51,578,o),
(86,550,o),
(140,550,cs),
(178,550,l),
(178,540,l),
(75,540,o),
(20,483,o),
(20,375,cs),
(20,334,l),
(20,301,o),
(20,310,o),
(20,297,cs),
(20,296,ls),
(20,283,o),
(20,293,o),
(20,260,cs),
(20,209,ls),
(20,175,o),
(20,184,o),
(20,171,cs),
(20,170,ls),
(20,164,o),
(22,144,o),
(24,135,cs),
(43,52,o),
(116,-6,o),
(209,-6,cs)
);
}
);
width = 603;
},
{
associatedMasterId = m01;
attr = {
coordinates = (
50
);
};
background = {
shapes = (
{
closed = 1;
nodes = (
(403,453,o),
(388,439,o),
(356,439,cs),
(266,439,ls),
(237,439,o),
(219,449,o),
(219,472,cs),
(219,492,o),
(236,505,o),
(266,505,cs),
(346,505,l),
(346,575,l),
(292,575,ls),
(263,575,o),
(245,587,o),
(245,606,cs),
(245,625,o),
(262,636,o),
(292,636,cs),
(341,636,ls),
(371,636,o),
(388,625,o),
(388,606,cs),
(388,575,l),
(554,575,l),
(554,629,ls),
(554,687,o),
(510,722,o),
(416,722,cs),
(189,722,ls),
(95,722,o),
(51,689,o),
(51,631,cs),
(51,578,o),
(86,543,o),
(140,543,cs),
(178,543,l),
(178,540,l),
(75,540,o),
(20,483,o),
(20,375,cs),
(20,183,ls),
(20,76,o),
(100,-6,o),
(209,-6,cs),
(403,-6,ls),
(512,-6,o),
(574,75,o),
(574,182,cs),
(574,492,l),
(403,492,l),
(403,470,l)
);
}
);
};
layerId = "0A528E3A-1412-4374-8CA0-05A1DE001CCC";
name = "Jan 26, 24 at 08:08";
shapes = (
{
closed = 1;
nodes = (
(385,-6,ls),
(478,-6,o),
(551,52,o),
(570,135,c),
(539,135,o),
(510,140,o),
(510,171,cs),
(510,173,ls),
(510,205,o),
(542,209,o),
(574,209,c),
(574,260,l),
(542,260,o),
(510,264,o),
(510,296,cs),
(510,298,ls),
(510,330,o),
(542,334,o),
(574,334,c),
(574,492,l),
(403,492,l),
(403,470,l),
(403,453,o),
(388,439,o),
(356,439,cs),
(266,439,ls),
(237,439,o),
(219,449,o),
(219,472,cs),
(219,492,o),
(236,505,o),
(266,505,cs),
(346,505,l),
(346,575,l),
(292,575,ls),
(263,575,o),
(245,587,o),
(245,606,cs),
(245,625,o),
(262,636,o),
(298,636,cs),
(353,636,ls),
(390,636,o),
(408,619,o),
(408,573,c),
(562,573,l),
(562,656,o),
(496,722,o),
(410,722,cs),
(205,722,ls),
(103,722,o),
(51,697,o),
(51,631,cs),
(51,578,o),
(86,550,o),
(140,550,cs),
(178,550,l),
(178,540,l),
(75,540,o),
(20,483,o),
(20,375,cs),
(20,334,l),
(52,334,o),
(84,330,o),
(84,298,cs),
(84,296,ls),
(84,264,o),
(52,260,o),
(20,260,c),
(20,209,l),
(52,209,o),
(84,205,o),
(84,173,cs),
(84,171,ls),
(84,140,o),
(55,135,o),
(24,135,c),
(43,52,o),
(116,-6,o),
(209,-6,cs)
);
}
);
width = 603;
},
{
associatedMasterId = m01;
attr = {
coordinates = (
100
);
};
background = {
shapes = (
{
closed = 1;
nodes = (
(403,453,o),
(388,439,o),
(356,439,cs),
(266,439,ls),
(237,439,o),
(219,449,o),
(219,472,cs),
(219,492,o),
(236,505,o),
(266,505,cs),
(346,505,l),
(346,575,l),
(292,575,ls),
(263,575,o),
(245,587,o),
(245,606,cs),
(245,625,o),
(262,636,o),
(292,636,cs),
(341,636,ls),
(371,636,o),
(388,625,o),
(388,606,cs),
(388,575,l),
(554,575,l),
(554,629,ls),
(554,687,o),
(510,722,o),
(416,722,cs),
(189,722,ls),
(95,722,o),
(51,689,o),
(51,631,cs),
(51,578,o),
(86,543,o),
(140,543,cs),
(178,543,l),
(178,540,l),
(75,540,o),
(20,483,o),
(20,375,cs),
(20,183,ls),
(20,76,o),
(100,-6,o),
(209,-6,cs),
(403,-6,ls),
(512,-6,o),
(574,75,o),
(574,182,cs),
(574,492,l),
(403,492,l),
(403,470,l)
);
}
);
};
layerId = "5AF319F1-076F-4380-A388-F2EB809CEBC8";
name = "Jan 26, 24 at 08:08";
shapes = (
{
closed = 1;
nodes = (
(385,-6,ls),
(478,-6,o),
(551,52,o),
(570,135,c),
(537,137,o),
(471,164,o),
(459,250,c),
(462,251,l),
(503,209,o),
(563,209,o),
(574,209,c),
(574,260,l),
(543,260,o),
(471,285,o),
(459,375,c),
(462,376,l),
(503,334,o),
(563,334,o),
(574,334,c),
(574,492,l),
(403,492,l),
(403,470,l),
(403,453,o),
(388,439,o),
(356,439,cs),
(266,439,ls),
(237,439,o),
(219,449,o),
(219,472,cs),
(219,492,o),
(236,505,o),
(266,505,cs),
(346,505,l),
(346,575,l),
(292,575,ls),
(263,575,o),
(245,587,o),
(245,606,cs),
(245,625,o),
(262,636,o),
(298,636,cs),
(353,636,ls),
(390,636,o),
(408,619,o),
(408,573,c),
(562,573,l),
(562,656,o),
(496,722,o),
(410,722,cs),
(205,722,ls),
(103,722,o),
(51,697,o),
(51,631,cs),
(51,578,o),
(86,550,o),
(140,550,cs),
(178,550,l),
(178,540,l),
(75,540,o),
(20,483,o),
(20,375,cs),
(20,334,l),
(31,334,o),
(91,334,o),
(132,376,c),
(135,375,l),
(123,285,o),
(51,260,o),
(20,260,c),
(20,209,l),
(31,209,o),
(91,209,o),
(132,251,c),
(135,250,l),
(123,164,o),
(57,137,o),
(24,135,c),
(43,52,o),
(116,-6,o),
(209,-6,cs)
);
}
);
width = 603;
}
);
metricRight = E;
unicode = 400;
},
{
glyphname = Esh;
kernLeft = H;
kernRight = E;
lastChange = "2024-01-31 14:46:24 +0000";
layers = (
{
layerId = m01;
shapes = (
{
closed = 1;
nodes = (
(544,0,l),
(544,135,ls),
(544,168,o),
(544,158,o),
(544,171,cs),
(544,172,ls),
(544,185,o),
(544,176,o),
(544,209,cs),
(544,260,ls),
(544,293,o),
(544,283,o),
(544,296,cs),
(544,297,ls),
(544,310,o),
(544,301,o),
(544,334,c),
(544,497,l),
(448,497,l),
(448,457,o),
(430,437,o),
(388,437,cs),
(258,437,l),
(384,527,l),
(238,634,l),
(377,634,ls),
(429,634,o),
(446,607,o),
(446,567,c),
(540,567,l),
(540,716,l),
(27,716,l),
(27,628,l),
(161,529,l),
(27,434,l),
(27,334,ls),
(27,302,o),
(27,310,o),
(27,297,cs),
(27,296,ls),
(27,283,o),
(27,293,o),
(27,260,cs),
(27,209,ls),
(27,176,o),
(27,185,o),
(27,172,cs),
(27,171,ls),
(27,158,o),
(27,168,o),
(27,135,cs),
(27,0,l)
);
}
);
width = 573;
},
{
associatedMasterId = m01;
attr = {
coordinates = (
50
);
};
layerId = "58BD0CD7-2CB2-42D3-AEDD-3897B46A4213";
name = "Jan 26, 24 at 08:10";
shapes = (
{
closed = 1;
nodes = (
(544,0,l),
(544,135,l),
(512,135,o),
(480,139,o),
(480,171,cs),
(480,173,ls),
(480,205,o),
(512,209,o),
(544,209,c),
(544,260,l),
(512,260,o),
(480,264,o),
(480,296,cs),
(480,298,ls),
(480,330,o),
(512,334,o),
(544,334,c),
(544,497,l),
(448,497,l),
(448,457,o),
(430,437,o),
(388,437,cs),
(258,437,l),
(384,527,l),
(238,634,l),
(377,634,ls),
(429,634,o),
(446,607,o),
(446,567,c),
(540,567,l),
(540,716,l),
(27,716,l),
(27,628,l),
(161,529,l),
(27,434,l),
(27,334,l),
(59,334,o),
(91,330,o),
(91,298,cs),
(91,296,ls),
(91,264,o),
(59,260,o),
(27,260,c),
(27,209,l),
(59,209,o),
(91,205,o),
(91,173,cs),
(91,171,ls),
(91,139,o),
(59,135,o),
(27,135,c),
(27,0,l)
);
}
);
width = 573;
},
{
associatedMasterId = m01;
attr = {
coordinates = (
100
);
};
layerId = "5911F2FE-8A2B-4FC4-B33E-2A90AB894F52";
name = "Jan 26, 24 at 08:10";
shapes = (
{
closed = 1;
nodes = (
(544,0,l),
(544,135,l),
(513,135,o),
(441,160,o),
(429,250,c),
(432,251,l),
(473,209,o),
(533,209,o),
(544,209,c),
(544,260,l),
(513,260,o),
(441,285,o),
(429,375,c),
(432,376,l),
(473,334,o),
(533,334,o),
(544,334,c),
(544,497,l),
(448,497,l),
(448,457,o),
(430,437,o),
(388,437,cs),
(258,437,l),
(384,527,l),
(238,634,l),
(377,634,ls),
(429,634,o),
(446,607,o),
(446,567,c),
(540,567,l),
(540,716,l),
(27,716,l),
(27,628,l),
(161,529,l),
(27,434,l),
(27,334,l),
(38,334,o),
(98,334,o),
(139,376,c),
(142,375,l),
(130,285,o),
(58,260,o),
(27,260,c),
(27,209,l),
(38,209,o),
(98,209,o),
(139,251,c),
(142,250,l),
(130,160,o),
(58,135,o),
(27,135,c),
(27,0,l)
);
}
);
width = 573;
}
);
metricRight = E;
unicode = 425;
},
{
glyphname = Estroke;
kernLeft = H;
kernRight = E;
lastChange = "2024-01-31 14:46:24 +0000";
layers = (
{
anchors = (
{
name = bottom;
pos = (306,0);
},
{
name = ogonek;
pos = (547,0);
},
{
name = top;
pos = (298,716);
}
);
layerId = m01;
shapes = (
{
closed = 1;
nodes = (
(547,0,l),
(547,135,ls),
(547,168,o),
(547,158,o),
(547,171,cs),
(547,172,ls),
(547,185,o),
(547,176,o),
(547,209,cs),
(547,260,ls),
(547,293,o),
(547,283,o),
(547,296,cs),
(547,297,ls),
(547,310,o),
(547,301,o),
(547,334,c),
(547,500,l),
(457,500,l),
(457,460,o),
(440,439,o),
(390,439,cs),
(263,439,l),
(263,505,l),
(380,505,l),
(380,575,l),
(263,575,l),
(263,636,l),
(384,636,ls),
(434,636,o),
(451,609,o),
(451,569,c),
(541,569,l),
(541,716,l),
(29,716,l),
(29,636,l),
(79,636,o),
(97,604,o),
(97,564,cs),
(97,500,ls),
(97,460,o),
(80,434,o),
(30,434,c),
(30,334,ls),
(30,302,o),
(30,310,o),
(30,297,cs),
(30,296,ls),
(30,283,o),
(30,293,o),
(30,260,cs),
(30,209,ls),
(30,176,o),
(30,185,o),
(30,172,cs),
(30,171,ls),
(30,158,o),
(30,168,o),
(30,135,cs),
(30,0,l)
);
},
{
closed = 1;
nodes = (
(71,-59,l),
(129,57,l),
(69,137,l),
(-19,-59,l)
);
},
{
closed = 1;
nodes = (
(613,792,l),
(523,792,l),
(446,672,l),
(515,627,l)
);
}
);
width = 576;
},
{
anchors = (
{
name = bottom;
pos = (306,0);
},
{
name = ogonek;
pos = (547,0);
},
{
name = top;
pos = (298,716);
}
);
associatedMasterId = m01;
attr = {
coordinates = (
50
);
};
layerId = "1E48855D-8EC0-408F-8404-8353C4F17055";
name = "Jan 26, 24 at 08:01";
shapes = (
{
closed = 1;
nodes = (
(547,0,l),
(547,135,l),
(515,135,o),
(483,139,o),
(483,171,cs),
(483,173,ls),
(483,205,o),
(515,209,o),
(547,209,c),
(547,260,l),
(515,260,o),
(483,264,o),
(483,296,cs),
(483,298,ls),
(483,330,o),
(515,334,o),
(547,334,c),
(547,500,l),
(457,500,l),
(457,460,o),
(440,439,o),
(390,439,cs),
(263,439,l),
(263,505,l),
(380,505,l),
(380,575,l),
(263,575,l),
(263,636,l),
(384,636,ls),
(434,636,o),
(451,609,o),
(451,569,c),
(541,569,l),
(541,716,l),
(29,716,l),
(29,636,l),
(79,636,o),
(97,604,o),
(97,564,cs),
(97,500,ls),
(97,460,o),
(80,434,o),
(30,434,c),
(30,334,l),
(62,334,o),
(94,330,o),
(94,298,cs),
(94,296,ls),
(94,264,o),
(62,260,o),
(30,260,c),
(30,209,l),
(62,209,o),
(94,205,o),
(94,173,cs),
(94,171,ls),
(94,139,o),
(62,135,o),
(30,135,c),
(30,0,l)
);
},
{
closed = 1;
nodes = (
(71,-59,l),
(129,57,l),
(69,137,l),
(-19,-59,l)
);
},
{
closed = 1;
nodes = (
(613,792,l),
(523,792,l),
(446,672,l),
(515,627,l)
);
}
);
width = 576;
},
{
anchors = (
{
name = bottom;
pos = (306,0);
},
{
name = ogonek;
pos = (547,0);
},
{
name = top;
pos = (298,716);
}
);
associatedMasterId = m01;
attr = {
coordinates = (
100
);
};
layerId = "8805428F-5F0C-4BBC-9DDC-86303DDA1A8F";
name = "Jan 26, 24 at 08:01";
shapes = (
{
closed = 1;
nodes = (
(547,0,l),
(547,135,l),
(516,135,o),
(444,160,o),
(432,250,c),
(435,251,l),
(476,209,o),
(536,209,o),
(547,209,c),
(547,260,l),
(516,260,o),
(444,285,o),
(432,375,c),
(435,376,l),
(476,334,o),
(536,334,o),
(547,334,c),
(547,500,l),
(457,500,l),
(457,460,o),
(440,439,o),
(390,439,cs),
(263,439,l),
(263,505,l),
(380,505,l),
(380,575,l),
(263,575,l),
(263,636,l),
(384,636,ls),
(434,636,o),
(451,609,o),
(451,569,c),
(541,569,l),
(541,716,l),
(29,716,l),
(29,636,l),
(79,636,o),
(97,604,o),
(97,564,cs),
(97,500,ls),
(97,460,o),
(80,434,o),
(30,434,c),
(30,334,l),
(41,334,o),
(101,334,o),
(142,376,c),
(145,375,l),
(133,285,o),
(61,260,o),
(30,260,c),
(30,209,l),
(41,209,o),
(101,209,o),
(142,251,c),
(145,250,l),
(133,160,o),
(61,135,o),
(30,135,c),
(30,0,l)
);
},
{
closed = 1;
nodes = (
(71,-59,l),
(129,57,l),
(69,137,l),
(-19,-59,l)
);
},
{
closed = 1;
nodes = (
(613,792,l),
(523,792,l),
(446,672,l),
(515,627,l)
);
}
);
width = 576;
}
);
unicode = 582;
},
{
color = 7;
glyphname = Ezh;
lastChange = "2024-01-31 14:46:24 +0000";
layers = (
{
anchors = (
{
name = bottom;
pos = (305,0);
},
{
name = top;
pos = (305,716);
}
);
background = {
shapes = (
{
pos = (-20,0);
ref = Z;
}
);
};
layerId = m01;
shapes = (
{
closed = 1;
nodes = (
(401,-6,ls),
(494,-6,o),
(567,52,o),
(586,135,cs),
(588,144,o),
(590,158,o),
(590,171,cs),
(590,172,ls),
(590,185,o),
(590,176,o),
(590,209,cs),
(590,260,ls),
(590,293,o),
(590,283,o),
(590,296,cs),
(590,297,ls),
(590,310,o),
(590,301,o),
(590,334,c),
(590,404,ls),
(590,547,o),
(502,569,o),
(447,569,c),
(557,642,l),
(557,716,l),
(44,716,l),
(44,568,l),
(154,568,l),
(154,608,o),
(171,633,o),
(221,633,cs),
(374,633,l),
(278,575,l),
(278,505,l),
(353,505,ls),
(386,505,o),
(391,495,o),
(391,474,cs),
(391,454,o),
(376,439,o),
(343,439,cs),
(230,439,ls),
(206,439,o),
(189,462,o),
(189,497,c),
(25,497,l),
(25,334,l),
(25,301,o),
(25,310,o),
(25,297,cs),
(25,296,ls),
(25,283,o),
(25,293,o),
(25,260,cs),
(25,209,ls),
(25,175,o),
(25,184,o),
(25,171,cs),
(25,170,ls),
(25,157,o),
(27,144,o),
(29,135,cs),
(48,52,o),
(121,-6,o),
(214,-6,cs)
);
}
);
width = 610;
},
{
anchors = (
{
name = bottom;
pos = (305,0);
},
{
name = top;
pos = (305,716);
}
);
associatedMasterId = m01;
attr = {
coordinates = (
50
);
};
background = {
shapes = (
{
pos = (-20,0);
ref = Z;
}
);
};
layerId = "C91964CA-A0A2-4ABA-946C-B97DEA127DF3";
name = "{50} Jan 26, 24 at 08:14";
shapes = (
{
closed = 1;
nodes = (
(401,-6,ls),
(494,-6,o),
(567,52,o),
(586,135,c),
(555,135,o),
(526,140,o),
(526,171,cs),
(526,173,ls),
(526,205,o),
(558,209,o),
(590,209,c),
(590,260,l),
(558,260,o),
(526,264,o),
(526,296,cs),
(526,298,ls),
(526,330,o),
(558,334,o),
(590,334,c),
(590,404,ls),
(590,547,o),
(502,569,o),
(447,569,c),
(557,642,l),
(557,716,l),
(44,716,l),
(44,568,l),
(154,568,l),
(154,608,o),
(171,633,o),
(221,633,cs),
(374,633,l),
(278,575,l),
(278,505,l),
(353,505,ls),
(386,505,o),
(391,495,o),
(391,474,cs),
(391,454,o),
(376,439,o),
(343,439,cs),
(230,439,ls),
(206,439,o),
(189,462,o),
(189,497,c),
(25,497,l),
(25,334,l),
(57,334,o),
(89,330,o),
(89,298,cs),
(89,296,ls),
(89,264,o),
(57,260,o),
(25,260,c),
(25,209,l),
(57,209,o),
(89,205,o),
(89,173,cs),
(89,171,ls),
(89,140,o),
(60,135,o),
(29,135,c),
(48,52,o),
(121,-6,o),
(214,-6,cs)
);
}
);
width = 610;
},
{
anchors = (
{
name = bottom;
pos = (305,0);
},
{
name = top;
pos = (305,716);
}
);
associatedMasterId = m01;
attr = {
coordinates = (
100
);
};
background = {
shapes = (
{
pos = (-20,0);
ref = Z;
}
);
};
layerId = "BE1FDF8D-6974-4BE6-91A7-1A4499602F4F";
name = "Jan 26, 24 at 08:13";
shapes = (
{
closed = 1;
nodes = (
(401,-6,ls),
(494,-6,o),
(567,52,o),
(586,135,c),
(553,137,o),
(487,164,o),
(475,250,c),
(478,251,l),
(519,209,o),
(579,209,o),
(590,209,c),
(590,260,l),
(559,260,o),
(487,285,o),
(475,375,c),
(478,376,l),
(519,334,o),
(579,334,o),
(590,334,c),
(590,404,ls),
(590,547,o),
(502,569,o),
(447,569,c),
(557,642,l),
(557,716,l),
(44,716,l),
(44,568,l),
(154,568,l),
(154,608,o),
(171,633,o),
(221,633,cs),
(374,633,l),
(278,575,l),
(278,505,l),
(353,505,ls),
(386,505,o),
(391,495,o),
(391,474,cs),
(391,454,o),
(376,439,o),
(343,439,cs),
(230,439,ls),
(206,439,o),
(189,462,o),
(189,497,c),
(25,497,l),
(25,334,l),
(36,334,o),
(96,334,o),
(137,376,c),
(140,375,l),
(128,285,o),
(56,260,o),
(25,260,c),
(25,209,l),
(36,209,o),
(96,209,o),
(137,251,c),
(140,250,l),
(128,164,o),
(62,137,o),
(29,135,c),
(48,52,o),
(121,-6,o),
(214,-6,cs)
);
}
);
width = 610;
}
);
unicode = 439;
},
{
glyphname = F;
kernLeft = H;
kernRight = F;
lastChange = "2024-01-31 14:46:24 +0000";
layers = (
{
anchors = (
{
name = bottom;
pos = (324,0);
},
{
name = top;
pos = (286,716);
}
);
layerId = m01;
shapes = (
{
closed = 1;
nodes = (
(443,0,l),
(443,439,l),
(329,439,ls),
(279,439,o),
(262,462,o),
(262,502,c),
(380,502,l),
(380,572,l),
(262,572,l),
(262,636,l),
(380,636,ls),
(430,636,o),
(447,609,o),
(447,569,c),
(537,569,l),
(537,716,l),
(29,716,l),
(29,636,l),
(78,636,o),
(96,604,o),
(96,564,cs),
(96,500,ls),
(96,460,o),
(79,434,o),
(29,434,c),
(29,334,ls),
(29,302,o),
(29,310,o),
(29,297,cs),
(29,296,ls),
(29,283,o),
(29,293,o),
(29,260,cs),
(29,209,ls),
(29,176,o),
(29,185,o),
(29,172,cs),
(29,171,ls),
(29,158,o),
(29,168,o),
(29,135,cs),
(29,0,l)
);
}
);
width = 557;
},
{
anchors = (
{
name = bottom;
pos = (324,0);
},
{
name = top;
pos = (286,716);
}
);
associatedMasterId = m01;
attr = {
coordinates = (
50
);
};
layerId = "683FD384-2BCF-46FA-A505-24ED5AD199B7";
name = "Jan 26, 24 at 08:17";
shapes = (
{
closed = 1;
nodes = (
(443,0,l),
(443,439,l),
(329,439,ls),
(279,439,o),
(262,462,o),
(262,502,c),
(380,502,l),
(380,572,l),
(262,572,l),
(262,636,l),
(380,636,ls),
(430,636,o),
(447,609,o),
(447,569,c),
(537,569,l),
(537,716,l),
(29,716,l),
(29,636,l),
(78,636,o),
(96,604,o),
(96,564,cs),
(96,500,ls),
(96,460,o),
(79,434,o),
(29,434,c),
(29,334,l),
(61,334,o),
(93,330,o),
(93,298,cs),
(93,296,ls),
(93,264,o),
(61,260,o),
(29,260,c),
(29,209,l),
(61,209,o),
(93,205,o),
(93,173,cs),
(93,171,ls),
(93,139,o),
(61,135,o),
(29,135,c),
(29,0,l)
);
}
);
width = 553;
},
{
anchors = (
{
name = bottom;
pos = (324,0);
},
{
name = top;
pos = (286,716);
}
);
associatedMasterId = m01;
attr = {
coordinates = (
100
);
};
layerId = "CA0B858F-CA75-4273-AB18-F8319A89FCB3";
name = "{100} Jan 30, 24 at 15:13";
shapes = (
{
closed = 1;
nodes = (
(443,0,l),
(443,439,l),
(329,439,ls),
(279,439,o),
(262,462,o),
(262,502,c),
(380,502,l),
(380,572,l),
(262,572,l),
(262,636,l),
(380,636,ls),
(430,636,o),
(447,609,o),
(447,569,c),
(537,569,l),
(537,716,l),
(29,716,l),
(29,636,l),
(78,636,o),
(96,604,o),
(96,564,cs),
(96,500,ls),
(96,460,o),
(79,434,o),
(29,434,c),
(29,334,l),
(40,334,o),
(100,334,o),
(141,376,c),
(144,375,l),
(132,285,o),
(60,260,o),
(29,260,c),
(29,209,l),
(40,209,o),
(100,209,o),
(141,251,c),
(144,250,l),
(132,160,o),
(60,135,o),
(29,135,c),
(29,0,l)
);
}
);
width = 553;
}
);
metricLeft = H;
unicode = 70;
},
{
glyphname = G;
kernLeft = O;
kernRight = G;
lastChange = "2024-01-31 14:46:24 +0000";
layers = (
{
anchors = (
{
name = bottom;
pos = (274,0);
},
{
name = hooktop;
pos = (587,564);
},
{
name = top;
pos = (317,716);
}
);
background = {
shapes = (
{
pos = (-15,5);
ref = cutdetail.part;
},
{
closed = 0;
nodes = (
(29,186,ls),
(29,75,o),
(109,-6,o),
(218,-6,cs)
);
}
);
};
layerId = m01;
shapes = (
{
closed = 1;
nodes = (
(302,-6,ls),
(405,-6,o),
(439,50,o),
(439,112,cs),
(439,172,l),
(482,172,o),
(497,148,o),
(497,113,cs),
(497,0,l),
(587,0,l),
(587,260,l),
(587,293,o),
(587,283,o),
(587,296,cs),
(587,297,ls),
(587,310,o),
(587,301,o),
(587,334,cs),
(587,544,l),
(333,544,l),
(333,476,l),
(423,476,l),
(423,454,o),
(411,439,o),
(390,439,cs),
(299,439,ls),
(249,439,o),
(231,456,o),
(231,506,cs),
(231,569,ls),
(231,619,o),
(249,636,o),
(299,636,cs),
(356,636,ls),
(399,636,o),
(423,620,o),
(423,591,c),
(587,591,l),
(587,664,o),
(524,722,o),
(426,722,cs),
(218,722,ls),
(109,722,o),
(29,643,o),
(29,536,cs),
(29,334,ls),
(29,301,o),
(29,310,o),
(29,297,cs),
(29,296,ls),
(29,283,o),
(29,293,o),
(29,260,cs),
(29,209,ls),
(29,175,o),
(29,184,o),
(29,171,cs),
(29,170,ls),
(29,161,o),
(31,144,o),
(33,135,cs),
(52,52,o),
(125,-6,o),
(218,-6,cs)
);
}
);
width = 616;
},
{
anchors = (
{
name = bottom;
pos = (260,0);
},
{
name = hooktop;
pos = (587,564);
},
{
name = top;
pos = (317,716);
}
);
associatedMasterId = m01;
attr = {
coordinates = (
50
);
};
background = {
shapes = (
{
pos = (-15,5);
ref = cutdetail.part;
},
{
closed = 0;
nodes = (
(29,186,ls),
(29,75,o),
(109,-6,o),
(218,-6,cs)
);
}
);
};
layerId = "CB22ECEB-B021-46B9-9CA8-38FAAEA01940";
name = "Jan 26, 24 at 08:27";
shapes = (
{
closed = 1;
nodes = (
(302,-6,ls),
(405,-6,o),
(439,50,o),
(439,112,cs),
(439,172,l),
(482,172,o),
(497,148,o),
(497,113,cs),
(497,0,l),
(587,0,l),
(587,260,l),
(555,260,o),
(523,264,o),
(523,296,cs),
(523,298,ls),
(523,330,o),
(555,334,o),
(587,334,c),
(587,544,l),
(333,544,l),
(333,476,l),
(423,476,l),
(423,454,o),
(411,439,o),
(390,439,cs),
(299,439,ls),
(249,439,o),
(231,456,o),
(231,506,cs),
(231,569,ls),
(231,619,o),
(249,636,o),
(299,636,cs),
(356,636,ls),
(399,636,o),
(423,620,o),
(423,591,c),
(587,591,l),
(587,664,o),
(524,722,o),
(426,722,cs),
(218,722,ls),
(109,722,o),
(29,643,o),
(29,536,cs),
(29,334,l),
(61,334,o),
(93,330,o),
(93,298,cs),
(93,296,ls),
(93,264,o),
(61,260,o),
(29,260,c),
(29,209,l),
(61,209,o),
(93,205,o),
(93,173,cs),
(93,171,ls),
(93,140,o),
(64,135,o),
(33,135,c),
(52,52,o),
(125,-6,o),
(218,-6,cs)
);
}
);
width = 616;
},
{
anchors = (
{
name = bottom;
pos = (260,0);
},
{
name = hooktop;
pos = (587,564);
},
{
name = top;
pos = (317,716);
}
);
associatedMasterId = m01;
attr = {
coordinates = (
100
);
};
background = {
shapes = (
{
pos = (-15,5);
ref = cutdetail.part;
},
{
closed = 0;
nodes = (
(29,186,ls),
(29,75,o),
(109,-6,o),
(218,-6,cs)
);
}
);
};
layerId = "AB3BA8C6-2032-4A5A-962A-6C9CE091DBDA";
name = "Jan 26, 24 at 08:27";
shapes = (
{
closed = 1;
nodes = (
(302,-6,ls),
(405,-6,o),
(439,50,o),
(439,112,cs),
(439,172,l),
(482,172,o),
(497,148,o),
(497,113,cs),
(497,0,l),
(587,0,l),
(587,260,l),
(556,260,o),
(484,285,o),
(472,375,c),
(475,376,l),
(516,334,o),
(576,334,o),
(587,334,c),
(587,544,l),
(333,544,l),
(333,476,l),
(423,476,l),
(423,454,o),
(411,439,o),
(390,439,cs),
(299,439,ls),
(249,439,o),
(231,456,o),
(231,506,cs),
(231,569,ls),
(231,619,o),
(249,636,o),
(299,636,cs),
(356,636,ls),
(399,636,o),
(423,620,o),
(423,591,c),
(587,591,l),
(587,664,o),
(524,722,o),
(426,722,cs),
(218,722,ls),
(109,722,o),
(29,643,o),
(29,536,cs),
(29,334,l),
(40,334,o),
(100,334,o),
(141,376,c),
(144,375,l),
(132,285,o),
(60,260,o),
(29,260,c),
(29,209,l),
(40,209,o),
(100,209,o),
(141,251,c),
(144,250,l),
(132,164,o),
(66,137,o),
(33,135,c),
(52,52,o),
(125,-6,o),
(218,-6,cs)
);
}
);
width = 616;
}
);
unicode = 71;
},
{
color = 7;
glyphname = Ghook;
kernLeft = O;
lastChange = "2024-01-31 14:46:24 +0000";
layers = (
{
anchors = (
{
name = bottom;
pos = (260,0);
},
{
name = hooktop;
pos = (587,564);
},
{
name = top;
pos = (324,716);
}
);
layerId = m01;
shapes = (
{
closed = 1;
nodes = (
(302,-6,ls),
(405,-6,o),
(439,50,o),
(439,112,cs),
(439,172,l),
(482,172,o),
(497,148,o),
(497,113,cs),
(497,0,l),
(587,0,l),
(587,260,l),
(587,293,o),
(587,283,o),
(587,296,cs),
(587,297,ls),
(587,310,o),
(587,301,o),
(587,334,c),
(587,544,l),
(333,544,l),
(333,476,l),
(423,476,l),
(423,454,o),
(411,439,o),
(390,439,c),
(299,439,ls),
(249,439,o),
(231,456,o),
(231,506,cs),
(231,569,ls),
(231,619,o),
(249,636,o),
(299,636,cs),
(356,636,ls),
(399,636,o),
(423,620,o),
(423,591,c),
(587,591,l),
(587,703,o),
(526,723,o),
(426,723,cs),
(218,723,ls),
(109,723,o),
(29,643,o),
(29,536,cs),
(29,334,l),
(29,301,o),
(29,310,o),
(29,297,cs),
(29,296,ls),
(29,283,o),
(29,293,o),
(29,260,cs),
(29,209,ls),
(29,175,o),
(29,184,o),
(29,171,cs),
(29,170,ls),
(29,161,o),
(31,144,o),
(33,135,cs),
(52,52,o),
(125,-6,o),
(218,-6,cs)
);
},
{
closed = 1;
nodes = (
(587,591,l),
(587,700,l),
(587,749,o),
(610,770,o),
(645,770,cs),
(667,770,o),
(693,761,o),
(712,749,c),
(712,866,l),
(695,874,o),
(674,879,o),
(652,879,cs),
(561,879,o),
(504,822,o),
(504,700,c),
(504,591,l)
);
}
);
width = 616;
},
{
anchors = (
{
name = bottom;
pos = (260,0);
},
{
name = hooktop;
pos = (587,564);
},
{
name = top;
pos = (324,716);
}
);
associatedMasterId = m01;
attr = {
coordinates = (
50
);
};
layerId = "1E92A81D-85A4-4E4D-8116-536299C87CDC";
name = "Jan 26, 24 at 08:37";
shapes = (
{
closed = 1;
nodes = (
(302,-6,ls),
(405,-6,o),
(439,50,o),
(439,112,cs),
(439,172,l),
(482,172,o),
(497,148,o),
(497,113,cs),
(497,0,l),
(587,0,l),
(587,260,l),
(555,260,o),
(523,264,o),
(523,296,cs),
(523,298,ls),
(523,330,o),
(555,334,o),
(587,334,c),
(587,544,l),
(333,544,l),
(333,476,l),
(423,476,l),
(423,454,o),
(411,439,o),
(390,439,c),
(299,439,ls),
(249,439,o),
(231,456,o),
(231,506,cs),
(231,569,ls),
(231,619,o),
(249,636,o),
(299,636,cs),
(356,636,ls),
(399,636,o),
(423,620,o),
(423,591,c),
(587,591,l),
(587,703,o),
(526,723,o),
(426,723,cs),
(218,723,ls),
(109,723,o),
(29,643,o),
(29,536,cs),
(29,334,l),
(61,334,o),
(93,330,o),
(93,298,cs),
(93,296,ls),
(93,264,o),
(61,260,o),
(29,260,c),
(29,209,l),
(61,209,o),
(93,205,o),
(93,173,cs),
(93,171,ls),
(93,140,o),
(64,135,o),
(33,135,c),
(52,52,o),
(125,-6,o),
(218,-6,cs)
);
},
{
closed = 1;
nodes = (
(587,591,l),
(587,700,l),
(587,749,o),
(610,770,o),
(645,770,cs),
(667,770,o),
(693,761,o),
(712,749,c),
(712,866,l),
(695,874,o),
(674,879,o),
(652,879,cs),
(561,879,o),
(504,822,o),
(504,700,c),
(504,591,l)
);
}
);
width = 616;
},
{
anchors = (
{
name = bottom;
pos = (260,0);
},
{
name = hooktop;
pos = (587,564);
},
{
name = top;
pos = (324,716);
}
);
associatedMasterId = m01;
attr = {
coordinates = (
100
);
};
layerId = "527582AF-E34E-40AD-B07E-69851364A795";
name = "Jan 26, 24 at 08:37";
shapes = (
{
closed = 1;
nodes = (
(302,-6,ls),
(405,-6,o),
(439,50,o),
(439,112,cs),
(439,172,l),
(482,172,o),
(497,148,o),
(497,113,cs),
(497,0,l),
(587,0,l),
(587,260,l),
(556,260,o),
(484,285,o),
(472,375,c),
(475,376,l),
(516,334,o),
(576,334,o),
(587,334,c),
(587,544,l),
(333,544,l),
(333,476,l),
(423,476,l),
(423,454,o),
(411,439,o),
(390,439,c),
(299,439,ls),
(249,439,o),
(231,456,o),
(231,506,cs),
(231,569,ls),
(231,619,o),
(249,636,o),
(299,636,cs),
(356,636,ls),
(399,636,o),
(423,620,o),
(423,591,c),
(587,591,l),
(587,703,o),
(526,723,o),
(426,723,cs),
(218,723,ls),
(109,723,o),
(29,643,o),
(29,536,cs),
(29,334,l),
(40,334,o),
(100,334,o),
(141,376,c),
(144,375,l),
(132,285,o),
(60,260,o),
(29,260,c),
(29,209,l),
(40,209,o),
(100,209,o),
(141,251,c),
(144,250,l),
(132,164,o),
(66,137,o),
(33,135,c),
(52,52,o),
(125,-6,o),
(218,-6,cs)
);
},
{
closed = 1;
nodes = (
(587,591,l),
(587,700,l),
(587,749,o),
(610,770,o),
(645,770,cs),
(667,770,o),
(693,761,o),
(712,749,c),
(712,866,l),
(695,874,o),
(674,879,o),
(652,879,cs),
(561,879,o),
(504,822,o),
(504,700,c),
(504,591,l)
);
}
);
width = 616;
}
);
unicode = 403;
},
{
glyphname = Glottalstopsmall;
kernLeft = Glottal;
kernRight = Glottal;
lastChange = "2024-01-31 14:46:24 +0000";
layers = (
{
layerId = m01;
name = Regular;
shapes = (
{
closed = 1;
nodes = (
(423,-1,l),
(423,307,l),
(374,307,o),
(356,332,o),
(356,371,cs),
(356,402,l),
(466,402,o),
(565,445,o),
(565,552,cs),
(565,679,o),
(467,722,o),
(295,722,cs),
(122,722,o),
(33,673,o),
(33,564,c),
(197,564,l),
(197,611,o),
(226,636,o),
(281,636,cs),
(303,636,ls),
(343,636,o),
(371,620,o),
(371,580,cs),
(371,518,o),
(295,513,o),
(255,513,cs),
(178,513,l),
(178,368,ls),
(178,328,o),
(161,307,o),
(111,307,c),
(111,208,l),
(111,175,o),
(111,184,o),
(111,171,cs),
(111,170,ls),
(111,157,o),
(111,167,o),
(111,134,c),
(111,-1,l)
);
}
);
width = 565;
},
{
associatedMasterId = m01;
attr = {
coordinates = (
50
);
};
layerId = "02570BAB-676A-4BB2-A2D6-30DB5E22BFD2";
name = "Jan 26, 24 at 08:40";
shapes = (
{
closed = 1;
nodes = (
(423,-1,l),
(423,307,l),
(374,307,o),
(356,332,o),
(356,371,cs),
(356,402,l),
(466,402,o),
(565,445,o),
(565,552,cs),
(565,679,o),
(467,722,o),
(295,722,cs),
(122,722,o),
(33,673,o),
(33,564,c),
(197,564,l),
(197,611,o),
(226,636,o),
(281,636,cs),
(303,636,ls),
(343,636,o),
(371,620,o),
(371,580,cs),
(371,518,o),
(295,513,o),
(255,513,cs),
(178,513,l),
(178,368,ls),
(178,328,o),
(161,307,o),
(111,307,c),
(111,208,l),
(143,208,o),
(175,204,o),
(175,172,cs),
(175,170,ls),
(175,138,o),
(143,134,o),
(111,134,c),
(111,-1,l)
);
}
);
width = 565;
},
{
associatedMasterId = m01;
attr = {
coordinates = (
100
);
};
layerId = "E6F36910-3B91-4655-AFDF-5C97F937F0CC";
name = "Jan 26, 24 at 08:40";
shapes = (
{
closed = 1;
nodes = (
(423,-1,l),
(423,307,l),
(374,307,o),
(356,332,o),
(356,371,cs),
(356,402,l),
(466,402,o),
(565,445,o),
(565,552,cs),
(565,679,o),
(467,722,o),
(295,722,cs),
(122,722,o),
(33,673,o),
(33,564,c),
(197,564,l),
(197,611,o),
(226,636,o),
(281,636,cs),
(303,636,ls),
(343,636,o),
(371,620,o),
(371,580,cs),
(371,518,o),
(295,513,o),
(255,513,cs),
(178,513,l),
(178,368,ls),
(178,328,o),
(161,307,o),
(111,307,c),
(111,208,l),
(122,208,o),
(182,208,o),
(223,250,c),
(226,249,l),
(214,159,o),
(142,134,o),
(111,134,c),
(111,-1,l)
);
}
);
width = 565;
}
);
unicode = 577;
},
{
glyphname = Gstroke;
kernLeft = O;
kernRight = G;
lastChange = "2024-01-31 14:46:24 +0000";
layers = (
{
anchors = (
{
name = bottom;
pos = (260,0);
},
{
name = hooktop;
pos = (587,564);
},
{
name = top;
pos = (317,716);
}
);
layerId = m01;
shapes = (
{
closed = 1;
nodes = (
(302,-6,ls),
(405,-6,o),
(439,50,o),
(439,112,cs),
(439,172,l),
(482,172,o),
(497,148,o),
(497,113,cs),
(497,0,l),
(587,0,l),
(587,260,l),
(587,293,o),
(587,283,o),
(587,296,cs),
(587,297,ls),
(587,310,o),
(587,301,o),
(587,334,cs),
(587,544,l),
(333,544,l),
(333,476,l),
(423,476,l),
(423,454,o),
(411,439,o),
(390,439,cs),
(299,439,ls),
(249,439,o),
(231,456,o),
(231,506,cs),
(231,569,ls),
(231,619,o),
(249,636,o),
(299,636,cs),
(356,636,ls),
(399,636,o),
(423,620,o),
(423,591,c),
(587,591,l),
(587,664,o),
(524,722,o),
(426,722,cs),
(218,722,ls),
(109,722,o),
(29,643,o),
(29,536,cs),
(29,334,ls),
(29,301,o),
(29,310,o),
(29,297,cs),
(29,296,ls),
(29,283,o),
(29,293,o),
(29,260,cs),
(29,209,ls),
(29,175,o),
(29,184,o),
(29,171,cs),
(29,170,ls),
(29,161,o),
(31,144,o),
(33,135,cs),
(52,52,o),
(125,-6,o),
(218,-6,cs)
);
},
{
closed = 1;
nodes = (
(658,196,l),
(658,260,l),
(571,260,l),
(571,196,l)
);
}
);
width = 668;
},
{
anchors = (
{
name = bottom;
pos = (260,0);
},
{
name = hooktop;
pos = (587,564);
},
{
name = top;
pos = (317,716);
}
);
associatedMasterId = m01;
attr = {
coordinates = (
50
);
};
layerId = "3712A05E-C748-40E5-971F-6C0CB137F24D";
name = "Jan 26, 24 at 08:39";
shapes = (
{
closed = 1;
nodes = (
(302,-6,ls),
(405,-6,o),
(439,50,o),
(439,112,cs),
(439,172,l),
(482,172,o),
(497,148,o),
(497,113,cs),
(497,0,l),
(587,0,l),
(587,260,l),
(555,260,o),
(523,264,o),
(523,296,cs),
(523,298,ls),
(523,330,o),
(555,334,o),
(587,334,c),
(587,544,l),
(333,544,l),
(333,476,l),
(423,476,l),
(423,454,o),
(411,439,o),
(390,439,cs),
(299,439,ls),
(249,439,o),
(231,456,o),
(231,506,cs),
(231,569,ls),
(231,619,o),
(249,636,o),
(299,636,cs),
(356,636,ls),
(399,636,o),
(423,620,o),
(423,591,c),
(587,591,l),
(587,664,o),
(524,722,o),
(426,722,cs),
(218,722,ls),
(109,722,o),
(29,643,o),
(29,536,cs),
(29,334,l),
(61,334,o),
(93,330,o),
(93,298,cs),
(93,296,ls),
(93,264,o),
(61,260,o),
(29,260,c),
(29,209,l),
(61,209,o),
(93,205,o),
(93,173,cs),
(93,171,ls),
(93,140,o),
(64,135,o),
(33,135,c),
(52,52,o),
(125,-6,o),
(218,-6,cs)
);
},
{
closed = 1;
nodes = (
(658,196,l),
(658,260,l),
(571,260,l),
(571,196,l)
);
}
);
width = 668;
},
{
anchors = (
{
name = bottom;
pos = (260,0);
},
{
name = hooktop;
pos = (587,564);
},
{
name = top;
pos = (317,716);
}
);
associatedMasterId = m01;
attr = {
coordinates = (
100
);
};
layerId = "F997E024-BFE7-4761-822B-1EB96061E562";
name = "Jan 26, 24 at 08:39";
shapes = (
{
closed = 1;
nodes = (
(302,-6,ls),
(405,-6,o),
(439,50,o),
(439,112,cs),
(439,172,l),
(482,172,o),
(497,148,o),
(497,113,cs),
(497,0,l),
(587,0,l),
(587,260,l),
(556,260,o),
(484,285,o),
(472,375,c),
(475,376,l),
(516,334,o),
(576,334,o),
(587,334,c),
(587,544,l),
(333,544,l),
(333,476,l),
(423,476,l),
(423,454,o),
(411,439,o),
(390,439,cs),
(299,439,ls),
(249,439,o),
(231,456,o),
(231,506,cs),
(231,569,ls),
(231,619,o),
(249,636,o),
(299,636,cs),
(356,636,ls),
(399,636,o),
(423,620,o),
(423,591,c),
(587,591,l),
(587,664,o),
(524,722,o),
(426,722,cs),
(218,722,ls),
(109,722,o),
(29,643,o),
(29,536,cs),
(29,334,l),
(40,334,o),
(100,334,o),
(141,376,c),
(144,375,l),
(132,285,o),
(60,260,o),
(29,260,c),
(29,209,l),
(40,209,o),
(100,209,o),
(141,251,c),
(144,250,l),
(132,164,o),
(66,137,o),
(33,135,c),
(52,52,o),
(125,-6,o),
(218,-6,cs)
);
},
{
closed = 1;
nodes = (
(658,196,l),
(658,260,l),
(571,260,l),
(571,196,l)
);
}
);
width = 668;
}
);
unicode = 484;
},
{
glyphname = H;
kernLeft = H;
kernRight = H;
lastChange = "2024-01-31 14:46:24 +0000";
layers = (
{
anchors = (
{
name = bottom;
pos = (350,0);
},
{
name = center;
pos = (349,358);
},
{
name = hook;
pos = (29,636);
},
{
name = top;
pos = (349,716);
},
{
name = topleft;
pos = (0,716);
}
);
layerId = m01;
shapes = (
{
closed = 1;
nodes = (
(321,0,l),
(321,439,l),
(271,439,o),
(254,465,o),
(254,505,c),
(446,505,l),
(446,465,o),
(429,439,o),
(379,439,c),
(379,334,ls),
(379,301,o),
(379,310,o),
(379,297,cs),
(379,296,ls),
(379,283,o),
(379,293,o),
(379,260,cs),
(379,209,ls),
(379,176,o),
(379,185,o),
(379,172,cs),
(379,171,ls),
(379,158,o),
(379,168,o),
(379,135,cs),
(379,0,l),
(671,0,l),
(671,434,l),
(621,434,o),
(604,460,o),
(604,500,cs),
(604,564,ls),
(604,604,o),
(621,636,o),
(671,636,c),
(671,716,l),
(379,716,l),
(379,631,l),
(424,631,o),
(446,609,o),
(446,575,c),
(254,575,l),
(254,609,o),
(276,631,o),
(321,631,c),
(321,716,l),
(29,716,l),
(29,636,l),
(79,636,o),
(96,604,o),
(96,564,cs),
(96,500,ls),
(96,460,o),
(79,434,o),
(29,434,c),
(29,334,ls),
(29,301,o),
(29,310,o),
(29,297,cs),
(29,296,ls),
(29,283,o),
(29,293,o),
(29,260,cs),
(29,209,ls),
(29,176,o),
(29,185,o),
(29,172,cs),
(29,171,ls),
(29,158,o),
(29,168,o),
(29,135,cs),
(29,0,l)
);
}
);
width = 700;
},
{
anchors = (
{
name = bottom;
pos = (350,0);
},
{
name = center;
pos = (349,358);
},
{
name = hook;
pos = (29,636);
},
{
name = top;
pos = (349,716);
},
{
name = topleft;
pos = (0,716);
}
);
associatedMasterId = m01;
attr = {
coordinates = (
50
);
};
layerId = "CC7896CB-C423-4707-B093-8F933399B656";
name = "{50} Jan 26, 24 at 08:43";
shapes = (
{
closed = 1;
nodes = (
(321,0,l),
(321,439,l),
(271,439,o),
(254,465,o),
(254,505,c),
(446,505,l),
(446,465,o),
(429,439,o),
(379,439,c),
(379,334,l),
(411,334,o),
(443,330,o),
(443,298,cs),
(443,296,ls),
(443,264,o),
(411,260,o),
(379,260,c),
(379,209,l),
(411,209,o),
(443,205,o),
(443,173,cs),
(443,171,ls),
(443,139,o),
(411,135,o),
(379,135,c),
(379,0,l),
(671,0,l),
(671,434,l),
(621,434,o),
(604,460,o),
(604,500,cs),
(604,564,ls),
(604,604,o),
(621,636,o),
(671,636,c),
(671,716,l),
(379,716,l),
(379,631,l),
(424,631,o),
(446,609,o),
(446,575,c),
(254,575,l),
(254,609,o),
(276,631,o),
(321,631,c),
(321,716,l),
(29,716,l),
(29,636,l),
(79,636,o),
(96,604,o),
(96,564,cs),
(96,500,ls),
(96,460,o),
(79,434,o),
(29,434,c),
(29,334,l),
(61,334,o),
(93,330,o),
(93,298,cs),
(93,296,ls),
(93,264,o),
(61,260,o),
(29,260,c),
(29,209,l),
(61,209,o),
(93,205,o),
(93,173,cs),
(93,171,ls),
(93,139,o),
(61,135,o),
(29,135,c),
(29,0,l)
);
}
);
width = 700;
},
{
anchors = (
{
name = bottom;
pos = (350,0);
},
{
name = center;
pos = (349,358);
},
{
name = hook;
pos = (29,636);
},
{
name = top;
pos = (349,716);
},
{
name = topleft;
pos = (0,716);
}
);
associatedMasterId = m01;
attr = {
coordinates = (
100
);
};
layerId = "322B490C-9803-49F9-8597-1AA87ABC6C59";
name = "Jan 26, 24 at 08:42";
shapes = (
{
closed = 1;
nodes = (
(321,0,l),
(321,439,l),
(271,439,o),
(254,465,o),
(254,505,c),
(446,505,l),
(446,465,o),
(429,439,o),
(379,439,c),
(379,334,l),
(390,334,o),
(450,334,o),
(491,376,c),
(494,375,l),
(482,285,o),
(410,260,o),
(379,260,c),
(379,209,l),
(390,209,o),
(450,209,o),
(491,251,c),
(494,250,l),
(482,160,o),
(410,135,o),
(379,135,c),
(379,0,l),
(671,0,l),
(671,434,l),
(621,434,o),
(604,460,o),
(604,500,cs),
(604,564,ls),
(604,604,o),
(621,636,o),
(671,636,c),
(671,716,l),
(379,716,l),
(379,631,l),
(424,631,o),
(446,609,o),
(446,575,c),
(254,575,l),
(254,609,o),
(276,631,o),
(321,631,c),
(321,716,l),
(29,716,l),
(29,636,l),
(79,636,o),
(96,604,o),
(96,564,cs),
(96,500,ls),
(96,460,o),
(79,434,o),
(29,434,c),
(29,334,l),
(40,334,o),
(100,334,o),
(141,376,c),
(144,375,l),
(132,285,o),
(60,260,o),
(29,260,c),
(29,209,l),
(40,209,o),
(100,209,o),
(141,251,c),
(144,250,l),
(132,160,o),
(60,135,o),
(29,135,c),
(29,0,l)
);
}
);
width = 700;
}
);
unicode = 72;
},
{
glyphname = Hbar;
kernLeft = H;
kernRight = H;
lastChange = "2024-01-31 14:46:24 +0000";
layers = (
{
anchors = (
{
name = bottom;
pos = (350,0);
},
{
name = center;
pos = (349,358);
},
{
name = hook;
pos = (29,636);
},
{
name = top;
pos = (349,716);
},
{
name = topleft;
pos = (0,716);
}
);
layerId = m01;
shapes = (
{
closed = 1;
nodes = (
(671,0,l),
(671,434,l),
(621,434,o),
(604,460,o),
(604,500,cs),
(604,564,ls),
(604,604,o),
(621,636,o),
(671,636,c),
(671,716,l),
(379,716,l),
(379,631,l),
(424,631,o),
(446,609,o),
(446,575,cs),
(446,505,l),
(446,465,o),
(429,439,o),
(379,439,c),
(379,334,ls),
(379,301,o),
(379,310,o),
(379,297,cs),
(379,296,ls),
(379,283,o),
(379,293,o),
(379,260,cs),
(379,209,ls),
(379,176,o),
(379,185,o),
(379,172,cs),
(379,171,ls),
(379,158,o),
(379,168,o),
(379,135,cs),
(379,0,l)
);
},
{
closed = 1;
nodes = (
(321,0,l),
(321,439,l),
(271,439,o),
(254,465,o),
(254,505,cs),
(254,575,l),
(254,609,o),
(276,631,o),
(321,631,c),
(321,716,l),
(29,716,l),
(29,636,l),
(79,636,o),
(96,604,o),
(96,564,cs),
(96,500,ls),
(96,460,o),
(79,434,o),
(29,434,c),
(29,334,ls),
(29,301,o),
(29,310,o),
(29,297,cs),
(29,296,ls),
(29,283,o),
(29,293,o),
(29,260,cs),
(29,209,ls),
(29,176,o),
(29,185,o),
(29,172,cs),
(29,171,ls),
(29,158,o),
(29,168,o),
(29,135,cs),
(29,0,l)
);
},
{
closed = 1;
nodes = (
(470,484,l),
(470,529,l),
(229,529,l),
(229,484,l)
);
},
{
closed = 1;
nodes = (
(667,551,l),
(667,596,l),
(29,596,l),
(29,551,l)
);
}
);
width = 700;
},
{
anchors = (
{
name = bottom;
pos = (350,0);
},
{
name = center;
pos = (349,358);
},
{
name = hook;
pos = (29,636);
},
{
name = top;
pos = (349,716);
},
{
name = topleft;
pos = (0,716);
}
);
associatedMasterId = m01;
attr = {
coordinates = (
50
);
};
layerId = "63D3CB3B-DC8B-4709-B076-F243F2E59C49";
name = "Jan 26, 24 at 08:45";
shapes = (
{
closed = 1;
nodes = (
(671,0,l),
(671,434,l),
(621,434,o),
(604,460,o),
(604,500,cs),
(604,564,ls),
(604,604,o),
(621,636,o),
(671,636,c),
(671,716,l),
(379,716,l),
(379,631,l),
(424,631,o),
(446,609,o),
(446,575,cs),
(446,505,l),
(446,465,o),
(429,439,o),
(379,439,c),
(379,334,l),
(411,334,o),
(443,330,o),
(443,298,cs),
(443,296,ls),
(443,264,o),
(411,260,o),
(379,260,c),
(379,209,l),
(411,209,o),
(443,205,o),
(443,173,cs),
(443,171,ls),
(443,139,o),
(411,135,o),
(379,135,c),
(379,0,l)
);
},
{
closed = 1;
nodes = (
(321,0,l),
(321,439,l),
(271,439,o),
(254,465,o),
(254,505,c),
(254,575,ls),
(254,609,o),
(276,631,o),
(321,631,c),
(321,716,l),
(29,716,l),
(29,636,l),
(79,636,o),
(96,604,o),
(96,564,cs),
(96,500,ls),
(96,460,o),
(79,434,o),
(29,434,c),
(29,334,l),
(61,334,o),
(93,330,o),
(93,298,cs),
(93,296,ls),
(93,264,o),
(61,260,o),
(29,260,c),
(29,209,l),
(61,209,o),
(93,205,o),
(93,173,cs),
(93,171,ls),
(93,139,o),
(61,135,o),
(29,135,c),
(29,0,l)
);
},
{
closed = 1;
nodes = (
(470,484,l),
(470,529,l),
(229,529,l),
(229,484,l)
);
},
{
closed = 1;
nodes = (
(667,551,l),
(667,596,l),
(29,596,l),
(29,551,l)
);
}
);
width = 700;
},
{
anchors = (
{
name = bottom;
pos = (350,0);
},
{
name = center;
pos = (349,358);
},
{
name = hook;
pos = (29,636);
},
{
name = top;
pos = (349,716);
},
{
name = topleft;
pos = (0,716);
}
);
associatedMasterId = m01;
attr = {
coordinates = (
100
);
};
layerId = "6B55ABC6-4159-4EDB-9DEF-8288783D0B5A";
name = "Jan 26, 24 at 08:45";
shapes = (
{
closed = 1;
nodes = (
(671,0,l),
(671,434,l),
(621,434,o),
(604,460,o),
(604,500,cs),
(604,564,ls),
(604,604,o),
(621,636,o),
(671,636,c),
(671,716,l),
(379,716,l),
(379,631,l),
(424,631,o),
(446,609,o),
(446,575,cs),
(446,505,l),
(446,465,o),
(429,439,o),
(379,439,c),
(379,334,l),
(390,334,o),
(450,334,o),
(491,376,c),
(494,375,l),
(482,285,o),
(410,260,o),
(379,260,c),
(379,209,l),
(390,209,o),
(450,209,o),
(491,251,c),
(494,250,l),
(482,160,o),
(410,135,o),
(379,135,c),
(379,0,l)
);
},
{
closed = 1;
nodes = (
(321,0,l),
(321,439,l),
(271,439,o),
(254,465,o),
(254,505,cs),
(254,575,l),
(254,609,o),
(276,631,o),
(321,631,c),
(321,716,l),
(29,716,l),
(29,636,l),
(79,636,o),
(96,604,o),
(96,564,cs),
(96,500,ls),
(96,460,o),
(79,434,o),
(29,434,c),
(29,334,l),
(40,334,o),
(100,334,o),
(141,376,c),
(144,375,l),
(132,285,o),
(60,260,o),
(29,260,c),
(29,209,l),
(40,209,o),
(100,209,o),
(141,251,c),
(144,250,l),
(132,160,o),
(60,135,o),
(29,135,c),
(29,0,l)
);
},
{
closed = 1;
nodes = (
(470,484,l),
(470,529,l),
(229,529,l),
(229,484,l)
);
},
{
closed = 1;
nodes = (
(667,551,l),
(667,596,l),
(29,596,l),
(29,551,l)
);
}
);
width = 700;
}
);
unicode = 294;
},
{
glyphname = Heng;
kernLeft = H;
kernRight = H;
lastChange = "2024-01-31 14:46:24 +0000";
layers = (
{
anchors = (
{
name = bottom;
pos = (338,0);
},
{
name = center;
pos = (349,358);
},
{
name = top;
pos = (349,716);
},
{
name = topleft;
pos = (0,716);
}
);
layerId = m01;
shapes = (
{
closed = 1;
nodes = (
(519,-140,o),
(671,-121,o),
(671,74,cs),
(671,434,l),
(621,434,o),
(604,460,o),
(604,500,cs),
(604,564,ls),
(604,604,o),
(621,636,o),
(671,636,c),
(671,716,l),
(379,716,l),
(379,631,l),
(424,631,o),
(442,609,o),
(446,575,c),
(254,575,l),
(258,609,o),
(276,631,o),
(321,631,c),
(321,716,l),
(29,716,l),
(29,636,l),
(79,636,o),
(96,604,o),
(96,564,cs),
(96,500,ls),
(96,460,o),
(79,434,o),
(29,434,c),
(29,334,l),
(29,301,o),
(29,310,o),
(29,297,cs),
(29,296,ls),
(29,283,o),
(29,293,o),
(29,260,c),
(29,209,l),
(29,176,o),
(29,185,o),
(29,172,cs),
(29,171,ls),
(29,158,o),
(29,168,o),
(29,135,c),
(29,0,l),
(321,0,l),
(321,439,l),
(271,439,o),
(254,460,o),
(254,500,cs),
(254,505,l),
(446,505,l),
(446,500,ls),
(446,460,o),
(429,439,o),
(379,439,c),
(379,334,l),
(379,301,o),
(379,310,o),
(379,297,cs),
(379,296,ls),
(379,283,o),
(379,293,o),
(379,260,c),
(379,209,l),
(379,176,o),
(379,185,o),
(379,172,cs),
(379,171,ls),
(379,158,o),
(379,168,o),
(379,135,c),
(379,26,ls),
(379,-11,o),
(379,-66,o),
(326,-99,c),
(347,-140,l)
);
}
);
width = 700;
},
{
anchors = (
{
name = bottom;
pos = (338,0);
},
{
name = center;
pos = (349,358);
},
{
name = top;
pos = (349,716);
},
{
name = topleft;
pos = (0,716);
}
);
associatedMasterId = m01;
attr = {
coordinates = (
50
);
};
layerId = "6F905541-C90A-4382-A003-7CDFFD42C10B";
name = "Jan 26, 24 at 08:49";
shapes = (
{
closed = 1;
nodes = (
(519,-140,o),
(671,-121,o),
(671,74,cs),
(671,434,l),
(621,434,o),
(604,460,o),
(604,500,cs),
(604,564,ls),
(604,604,o),
(621,636,o),
(671,636,c),
(671,716,l),
(379,716,l),
(379,631,l),
(424,631,o),
(442,609,o),
(446,575,c),
(254,575,l),
(258,609,o),
(276,631,o),
(321,631,c),
(321,716,l),
(29,716,l),
(29,636,l),
(79,636,o),
(96,604,o),
(96,564,cs),
(96,500,ls),
(96,460,o),
(79,434,o),
(29,434,c),
(29,334,l),
(61,334,o),
(93,330,o),
(93,298,cs),
(93,296,ls),
(93,264,o),
(61,260,o),
(29,260,c),
(29,209,l),
(61,209,o),
(93,205,o),
(93,173,cs),
(93,171,ls),
(93,139,o),
(61,135,o),
(29,135,c),
(29,0,l),
(321,0,l),
(321,439,l),
(271,439,o),
(254,460,o),
(254,500,cs),
(254,505,l),
(446,505,l),
(446,500,ls),
(446,460,o),
(431,439,o),
(379,439,c),
(379,334,l),
(411,334,o),
(443,330,o),
(443,298,cs),
(443,296,ls),
(443,264,o),
(411,260,o),
(379,260,c),
(379,209,l),
(411,209,o),
(443,205,o),
(443,173,cs),
(443,171,ls),
(443,139,o),
(411,135,o),
(379,135,c),
(379,26,ls),
(379,-11,o),
(379,-66,o),
(326,-99,c),
(347,-140,l)
);
}
);
width = 700;
},
{
anchors = (
{
name = bottom;
pos = (338,0);
},
{
name = center;
pos = (349,358);
},
{
name = top;
pos = (349,716);
},
{
name = topleft;
pos = (0,716);
}
);
associatedMasterId = m01;
attr = {
coordinates = (
100
);
};
layerId = "B0C21333-72DF-4542-BC1E-45AD7BD6C3C5";
name = "Jan 26, 24 at 08:49";
shapes = (
{
closed = 1;
nodes = (
(521,-140,o),
(671,-121,o),
(671,74,cs),
(671,434,l),
(621,434,o),
(604,460,o),
(604,500,cs),
(604,564,ls),
(604,604,o),
(621,636,o),
(671,636,c),
(671,716,l),
(379,716,l),
(379,631,l),
(424,631,o),
(442,609,o),
(446,575,c),
(254,575,l),
(258,609,o),
(276,631,o),
(321,631,c),
(321,716,l),
(29,716,l),
(29,636,l),
(79,636,o),
(96,604,o),
(96,564,cs),
(96,500,ls),
(96,460,o),
(79,434,o),
(29,434,c),
(29,334,l),
(40,334,o),
(100,334,o),
(141,376,c),
(144,375,l),
(132,285,o),
(60,260,o),
(29,260,c),
(29,209,l),
(40,209,o),
(100,209,o),
(141,251,c),
(144,250,l),
(132,160,o),
(60,135,o),
(29,135,c),
(29,0,l),
(321,0,l),
(321,439,l),
(271,439,o),
(254,460,o),
(254,500,cs),
(254,505,l),
(446,505,l),
(446,500,ls),
(446,460,o),
(431,439,o),
(379,439,c),
(379,334,l),
(390,334,o),
(450,334,o),
(491,376,c),
(494,375,l),
(482,285,o),
(410,260,o),
(379,260,c),
(379,209,l),
(390,209,o),
(450,209,o),
(491,251,c),
(494,250,l),
(482,160,o),
(410,135,o),
(379,135,c),
(379,26,ls),
(379,-11,o),
(379,-66,o),
(326,-99,c),
(347,-140,l)
);
}
);
width = 700;
}
);
unicode = 42790;
},
{
glyphname = Hhook;
kernLeft = LeftHook;
kernRight = H;
lastChange = "2024-01-31 14:46:24 +0000";
layers = (
{
anchors = (
{
name = bottom;
pos = (437,0);
},
{
name = center;
pos = (436,358);
},
{
name = hook;
pos = (116,636);
},
{
name = top;
pos = (436,716);
},
{
name = topleft;
pos = (87,716);
}
);
layerId = m01;
shapes = (
{
closed = 1;
nodes = (
(408,0,l),
(408,439,l),
(358,439,o),
(341,465,o),
(341,505,c),
(533,505,l),
(533,465,o),
(516,439,o),
(466,439,c),
(466,334,ls),
(466,301,o),
(466,310,o),
(466,297,cs),
(466,296,ls),
(466,283,o),
(466,293,o),
(466,260,cs),
(466,209,ls),
(466,176,o),
(466,185,o),
(466,172,cs),
(466,171,ls),
(466,158,o),
(466,168,o),
(466,135,cs),
(466,0,l),
(758,0,l),
(758,434,l),
(708,434,o),
(691,460,o),
(691,500,cs),
(691,564,ls),
(691,604,o),
(708,636,o),
(758,636,c),
(758,716,l),
(466,716,l),
(466,631,l),
(511,631,o),
(533,609,o),
(533,575,c),
(341,575,l),
(341,609,o),
(363,631,o),
(408,631,c),
(408,716,l),
(183,716,l),
(183,500,l),
(183,460,o),
(166,434,o),
(116,434,c),
(116,334,ls),
(116,301,o),
(116,310,o),
(116,297,cs),
(116,296,ls),
(116,283,o),
(116,293,o),
(116,260,cs),
(116,209,ls),
(116,176,o),
(116,185,o),
(116,172,cs),
(116,171,ls),
(116,158,o),
(116,168,o),
(116,135,cs),
(116,0,l)
);
},
{
closed = 1;
nodes = (
(140,476,l),
(122,503,o),
(106,542,o),
(106,576,cs),
(106,613,o),
(126,641,o),
(183,641,c),
(183,716,l),
(34,716,o),
(0,627,o),
(0,563,cs),
(0,530,o),
(5,493,o),
(13,476,c)
);
}
);
width = 787;
},
{
anchors = (
{
name = bottom;
pos = (437,0);
},
{
name = center;
pos = (436,358);
},
{
name = hook;
pos = (116,636);
},
{
name = top;
pos = (436,716);
},
{
name = topleft;
pos = (87,716);
}
);
associatedMasterId = m01;
attr = {
coordinates = (
50
);
};
layerId = "FA151FE0-6F61-4907-933A-93CAAAF6E3D3";
name = "Jan 26, 24 at 08:51";
shapes = (
{
closed = 1;
nodes = (
(408,0,l),
(408,439,l),
(358,439,o),
(341,465,o),
(341,505,c),
(533,505,l),
(533,465,o),
(516,439,o),
(466,439,c),
(466,334,l),
(498,334,o),
(530,330,o),
(530,298,cs),
(530,296,ls),
(530,264,o),
(498,260,o),
(466,260,c),
(466,209,l),
(498,209,o),
(530,205,o),
(530,173,cs),
(530,171,ls),
(530,139,o),
(498,135,o),
(466,135,c),
(466,0,l),
(758,0,l),
(758,434,l),
(708,434,o),
(691,460,o),
(691,500,cs),
(691,564,ls),
(691,604,o),
(708,636,o),
(758,636,c),
(758,716,l),
(466,716,l),
(466,631,l),
(511,631,o),
(533,609,o),
(533,575,c),
(341,575,l),
(341,609,o),
(363,631,o),
(408,631,c),
(408,716,l),
(183,716,l),
(183,500,ls),
(183,460,o),
(166,434,o),
(116,434,c),
(116,334,l),
(148,334,o),
(180,330,o),
(180,298,cs),
(180,296,ls),
(180,264,o),
(148,260,o),
(116,260,c),
(116,209,l),
(148,209,o),
(180,205,o),
(180,173,cs),
(180,171,ls),
(180,139,o),
(148,135,o),
(116,135,c),
(116,0,l)
);
},
{
closed = 1;
nodes = (
(140,476,l),
(122,503,o),
(106,542,o),
(106,576,cs),
(106,613,o),
(126,641,o),
(183,641,c),
(183,716,l),
(34,716,o),
(0,627,o),
(0,563,cs),
(0,530,o),
(5,493,o),
(13,476,c)
);
}
);
width = 787;
},
{
anchors = (
{
name = bottom;
pos = (437,0);
},
{
name = center;
pos = (436,358);
},
{
name = hook;
pos = (116,636);
},
{
name = top;
pos = (436,716);
},
{
name = topleft;
pos = (87,716);
}
);
associatedMasterId = m01;
attr = {
coordinates = (
100
);
};
layerId = "32B976FD-9F85-43D0-81E0-58E2FF9EC90B";
name = "Jan 26, 24 at 08:51";
shapes = (
{
closed = 1;
nodes = (
(408,0,l),
(408,439,l),
(358,439,o),
(341,465,o),
(341,505,c),
(533,505,l),
(533,465,o),
(516,439,o),
(466,439,c),
(466,334,l),
(477,334,o),
(537,334,o),
(578,376,c),
(581,375,l),
(569,285,o),
(497,260,o),
(466,260,c),
(466,209,l),
(477,209,o),
(537,209,o),
(578,251,c),
(581,250,l),
(569,160,o),
(497,135,o),
(466,135,c),
(466,0,l),
(758,0,l),
(758,434,l),
(708,434,o),
(691,460,o),
(691,500,cs),
(691,564,ls),
(691,604,o),
(708,636,o),
(758,636,c),
(758,716,l),
(466,716,l),
(466,631,l),
(511,631,o),
(533,609,o),
(533,575,c),
(341,575,l),
(341,609,o),
(363,631,o),
(408,631,c),
(408,716,l),
(183,716,l),
(183,500,ls),
(183,460,o),
(166,434,o),
(116,434,c),
(116,334,l),
(127,334,o),
(187,334,o),
(228,376,c),
(231,375,l),
(219,285,o),
(147,260,o),
(116,260,c),
(116,209,l),
(127,209,o),
(187,209,o),
(228,251,c),
(231,250,l),
(219,160,o),
(147,135,o),
(116,135,c),
(116,0,l)
);
},
{
closed = 1;
nodes = (
(140,476,l),
(122,503,o),
(106,542,o),
(106,576,cs),
(106,613,o),
(126,641,o),
(183,641,c),
(183,716,l),
(34,716,o),
(0,627,o),
(0,563,cs),
(0,530,o),
(5,493,o),
(13,476,c)
);
}
);
width = 787;
}
);
unicode = 42922;
},
{
glyphname = Hturned;
kernLeft = Hturned;
kernRight = H;
lastChange = "2024-01-31 14:46:24 +0000";
layers = (
{
layerId = m01;
shapes = (
{
closed = 1;
nodes = (
(642,0,l),
(642,434,l),
(592,434,o),
(575,460,o),
(575,500,cs),
(575,564,ls),
(575,604,o),
(592,636,o),
(642,636,c),
(642,716,l),
(350,716,l),
(350,631,l),
(400,631,o),
(417,604,o),
(417,565,c),
(267,565,ls),
(241,565,o),
(225,576,o),
(225,598,cs),
(225,619,o),
(238,631,o),
(266,631,cs),
(292,631,l),
(292,716,l),
(0,716,l),
(0,636,l),
(50,636,o),
(67,627,o),
(67,599,cs),
(67,536,o),
(88,495,o),
(169,495,cs),
(417,495,l),
(417,458,o),
(398,439,o),
(350,439,cs),
(250,439,l),
(250,334,ls),
(250,301,o),
(250,310,o),
(250,297,cs),
(250,296,ls),
(250,283,o),
(250,293,o),
(250,260,cs),
(250,209,ls),
(250,176,o),
(250,185,o),
(250,172,cs),
(250,171,ls),
(250,158,o),
(250,168,o),
(250,135,cs),
(250,0,l)
);
}
);
width = 671;
},
{
associatedMasterId = m01;
attr = {
coordinates = (
50
);
};
layerId = "403263A7-8F1C-4D17-808F-61F26F4F29E0";
name = "Jan 26, 24 at 08:54";
shapes = (
{
closed = 1;
nodes = (
(642,0,l),
(642,434,l),
(592,434,o),
(575,460,o),
(575,500,cs),
(575,564,ls),
(575,604,o),
(592,636,o),
(642,636,c),
(642,716,l),
(350,716,l),
(350,631,l),
(400,631,o),
(417,604,o),
(417,565,c),
(267,565,ls),
(241,565,o),
(225,576,o),
(225,598,cs),
(225,619,o),
(238,631,o),
(266,631,cs),
(292,631,l),
(292,716,l),
(0,716,l),
(0,636,l),
(50,636,o),
(67,627,o),
(67,599,cs),
(67,544,o),
(126,495,o),
(191,495,cs),
(417,495,l),
(417,458,o),
(398,439,o),
(350,439,cs),
(250,439,l),
(250,334,l),
(282,334,o),
(314,330,o),
(314,298,cs),
(314,296,ls),
(314,264,o),
(282,260,o),
(250,260,c),
(250,209,l),
(282,209,o),
(314,205,o),
(314,173,cs),
(314,171,ls),
(314,139,o),
(282,135,o),
(250,135,c),
(250,0,l)
);
}
);
width = 671;
},
{
associatedMasterId = m01;
attr = {
coordinates = (
100
);
};
layerId = "A172F85B-EB06-4BE7-A4C6-50B47FE501DA";
name = "Jan 26, 24 at 08:54";
shapes = (
{
closed = 1;
nodes = (
(642,0,l),
(642,434,l),
(592,434,o),
(575,460,o),
(575,500,cs),
(575,564,ls),
(575,604,o),
(592,636,o),
(642,636,c),
(642,716,l),
(350,716,l),
(350,631,l),
(400,631,o),
(417,604,o),
(417,565,c),
(267,565,ls),
(241,565,o),
(225,576,o),
(225,598,cs),
(225,619,o),
(238,631,o),
(266,631,cs),
(292,631,l),
(292,716,l),
(0,716,l),
(0,636,l),
(50,636,o),
(67,627,o),
(67,599,cs),
(67,544,o),
(126,495,o),
(191,495,cs),
(417,495,l),
(417,458,o),
(398,439,o),
(350,439,cs),
(250,439,l),
(250,334,l),
(261,334,o),
(321,334,o),
(362,376,c),
(365,375,l),
(353,285,o),
(281,260,o),
(250,260,c),
(250,209,l),
(261,209,o),
(321,209,o),
(362,251,c),
(365,250,l),
(353,160,o),
(281,135,o),
(250,135,c),
(250,0,l)
);
}
);
width = 671;
}
);
unicode = 42893;
},
{
glyphname = I;
kernLeft = H;
kernRight = H;
lastChange = "2024-01-31 14:46:24 +0000";
layers = (
{
anchors = (
{
name = bottom;
pos = (175,0);
},
{
name = center;
pos = (174,535);
},
{
name = ogonek;
pos = (321,0);
},
{
name = top;
pos = (175,716);
},
{
name = topleft;
pos = (1,716);
}
);
layerId = m01;
shapes = (
{
closed = 1;
nodes = (
(321,0,l),
(321,434,l),
(271,434,o),
(254,460,o),
(254,498,cs),
(254,567,ls),
(254,604,o),
(271,636,o),
(321,636,c),
(321,716,l),
(29,716,l),
(29,636,l),
(79,636,o),
(96,609,o),
(96,567,cs),
(96,498,ls),
(96,455,o),
(79,434,o),
(29,434,c),
(29,334,ls),
(29,301,o),
(29,310,o),
(29,297,cs),
(29,296,ls),
(29,283,o),
(29,293,o),
(29,260,cs),
(29,209,ls),
(29,176,o),
(29,185,o),
(29,172,cs),
(29,171,ls),
(29,158,o),
(29,168,o),
(29,135,cs),
(29,0,l)
);
}
);
width = 350;
},
{
anchors = (
{
name = bottom;
pos = (175,0);
},
{
name = center;
pos = (174,535);
},
{
name = ogonek;
pos = (321,0);
},
{
name = top;
pos = (175,716);
},
{
name = topleft;
pos = (1,716);
}
);
associatedMasterId = m01;
attr = {
coordinates = (
50
);
};
layerId = "5420DE78-C95A-44A0-B8ED-B776BBC2B43F";
name = "Jan 3, 24 at 08:22";
shapes = (
{
closed = 1;
nodes = (
(321,0,l),
(321,434,l),
(271,434,o),
(254,460,o),
(254,498,cs),
(254,567,ls),
(254,604,o),
(271,636,o),
(321,636,c),
(321,716,l),
(29,716,l),
(29,636,l),
(79,636,o),
(96,609,o),
(96,567,cs),
(96,498,ls),
(96,455,o),
(79,434,o),
(29,434,c),
(29,334,l),
(61,334,o),
(93,330,o),
(93,298,cs),
(93,296,ls),
(93,264,o),
(61,260,o),
(29,260,c),
(29,209,l),
(61,209,o),
(93,205,o),
(93,173,cs),
(93,171,ls),
(93,139,o),
(61,135,o),
(29,135,c),
(29,0,l)
);
}
);
width = 350;
},
{
anchors = (
{
name = bottom;
pos = (175,0);
},
{
name = center;
pos = (174,535);
},
{
name = ogonek;
pos = (321,0);
},
{
name = top;
pos = (175,716);
},
{
name = topleft;
pos = (1,716);
}
);
associatedMasterId = m01;
attr = {
coordinates = (
100
);
};
layerId = "F8320619-8BC2-4DEC-8FA1-B9F731792DE3";
name = "Jan 3, 24 at 08:22";
shapes = (
{
closed = 1;
nodes = (
(321,0,l),
(321,434,l),
(271,434,o),
(254,460,o),
(254,498,cs),
(254,567,ls),
(254,604,o),
(271,636,o),
(321,636,c),
(321,716,l),
(29,716,l),
(29,636,l),
(79,636,o),
(96,609,o),
(96,567,cs),
(96,498,ls),
(96,455,o),
(79,434,o),
(29,434,c),
(29,334,l),
(40,334,o),
(100,334,o),
(141,376,c),
(144,375,l),
(132,285,o),
(60,260,o),
(29,260,c),
(29,209,l),
(40,209,o),
(100,209,o),
(141,251,c),
(144,250,l),
(132,160,o),
(60,135,o),
(29,135,c),
(29,0,l)
);
}
);
width = 350;
}
);
metricLeft = H;
metricRight = H;
unicode = 73;
},
{
glyphname = J;
kernLeft = J;
kernRight = J;
lastChange = "2024-01-31 14:46:24 +0000";
layers = (
{
anchors = (
{
name = bottom;
pos = (327,0);
},
{
name = center;
pos = (438,533);
},
{
name = top;
pos = (438,716);
}
);
layerId = m01;
shapes = (
{
closed = 1;
nodes = (
(395,-6,ls),
(488,-6,o),
(561,52,o),
(580,135,cs),
(582,144,o),
(584,158,o),
(584,171,cs),
(584,172,ls),
(584,185,o),
(584,176,o),
(584,209,cs),
(584,260,ls),
(584,293,o),
(584,283,o),
(584,296,cs),
(584,297,ls),
(584,310,o),
(584,301,o),
(584,334,cs),
(584,434,l),
(534,434,o),
(517,460,o),
(517,500,cs),
(517,564,ls),
(517,604,o),
(534,636,o),
(584,636,c),
(584,716,l),
(292,716,l),
(292,636,l),
(342,636,o),
(359,609,o),
(359,569,cs),
(359,500,ls),
(359,460,o),
(342,439,o),
(292,439,cs),
(193,439,ls),
(143,439,o),
(126,460,o),
(126,500,cs),
(126,544,l),
(31,544,l),
(31,334,ls),
(31,301,o),
(31,310,o),
(31,297,cs),
(31,296,ls),
(31,283,o),
(31,293,o),
(31,260,cs),
(31,209,ls),
(31,175,o),
(31,184,o),
(31,171,cs),
(31,170,ls),
(31,157,o),
(33,144,o),
(35,135,cs),
(54,52,o),
(127,-6,o),
(220,-6,cs)
);
}
);
width = 620;
},
{
anchors = (
{
name = bottom;
pos = (327,0);
},
{
name = center;
pos = (438,533);
},
{
name = top;
pos = (438,716);
}
);
associatedMasterId = m01;
attr = {
coordinates = (
50
);
};
layerId = "6E1B4629-B9D1-4BA9-975C-1B1C1A7AE474";
name = "Jan 25, 24 at 17:33";
shapes = (
{
closed = 1;
nodes = (
(395,-6,ls),
(488,-6,o),
(561,52,o),
(580,135,c),
(549,135,o),
(520,140,o),
(520,171,cs),
(520,173,ls),
(520,205,o),
(552,209,o),
(584,209,c),
(584,260,l),
(552,260,o),
(520,264,o),
(520,296,cs),
(520,298,ls),
(520,330,o),
(552,334,o),
(584,334,c),
(584,434,l),
(534,434,o),
(517,460,o),
(517,500,cs),
(517,564,ls),
(517,604,o),
(534,636,o),
(584,636,c),
(584,716,l),
(292,716,l),
(292,636,l),
(342,636,o),
(359,609,o),
(359,569,cs),
(359,500,ls),
(359,460,o),
(342,439,o),
(292,439,cs),
(193,439,ls),
(143,439,o),
(126,460,o),
(126,500,cs),
(126,544,l),
(31,544,l),
(31,334,l),
(63,334,o),
(95,330,o),
(95,298,cs),
(95,296,ls),
(95,264,o),
(63,260,o),
(31,260,c),
(31,209,l),
(63,209,o),
(95,205,o),
(95,173,cs),
(95,171,ls),
(95,140,o),
(66,135,o),
(35,135,c),
(54,52,o),
(127,-6,o),
(220,-6,cs)
);
}
);
width = 620;
},
{
anchors = (
{
name = bottom;
pos = (327,0);
},
{
name = center;
pos = (438,533);
},
{
name = top;
pos = (438,716);
}
);
associatedMasterId = m01;
attr = {
coordinates = (
100
);
};
layerId = "AD0B7104-17DF-4D8D-A700-A5291EB56703";
name = "Jan 25, 24 at 17:33";
shapes = (
{
closed = 1;
nodes = (
(395,-6,ls),
(488,-6,o),
(561,52,o),
(580,135,c),
(547,137,o),
(481,164,o),
(469,250,c),
(472,251,l),
(513,209,o),
(573,209,o),
(584,209,c),
(584,260,l),
(553,260,o),
(481,285,o),
(469,375,c),
(472,376,l),
(513,334,o),
(573,334,o),
(584,334,c),
(584,434,l),
(534,434,o),
(517,460,o),
(517,500,cs),
(517,564,ls),
(517,604,o),
(534,636,o),
(584,636,c),
(584,716,l),
(292,716,l),
(292,636,l),
(342,636,o),
(359,609,o),
(359,569,cs),
(359,500,ls),
(359,460,o),
(342,439,o),
(292,439,cs),
(193,439,ls),
(143,439,o),
(126,460,o),
(126,500,cs),
(126,544,l),
(31,544,l),
(31,334,l),
(42,334,o),
(102,334,o),
(143,376,c),
(146,375,l),
(134,285,o),
(62,260,o),
(31,260,c),
(31,209,l),
(42,209,o),
(102,209,o),
(143,251,c),
(146,250,l),
(134,164,o),
(68,137,o),
(35,135,c),
(54,52,o),
(127,-6,o),
(220,-6,cs)
);
}
);
width = 620;
}
);
unicode = 74;
},
{
glyphname = Jcrossedtail;
kernLeft = J;
kernRight = J;
lastChange = "2024-01-31 14:46:24 +0000";
layers = (
{
background = {
shapes = (
{
closed = 1;
nodes = (
(193,573,l),
(87,573,o),
(31,551,o),
(31,428,cs),
(31,186,ls),
(31,79,o),
(111,0,o),
(220,0,cs),
(395,0,l),
(504,0,o),
(584,79,o),
(584,186,cs),
(584,434,l),
(534,434,o),
(517,460,o),
(517,500,cs),
(517,564,ls),
(517,604,o),
(534,636,o),
(584,636,c),
(584,716,l),
(292,716,l),
(292,636,l),
(342,636,o),
(359,609,o),
(359,569,cs),
(359,500,ls),
(359,460,o),
(342,439,o),
(292,439,cs),
(173,439,l),
(142,439,o),
(126,449,o),
(126,469,cs),
(126,489,o),
(142,499,o),
(173,499,c),
(585,499,l),
(585,573,l)
);
}
);
};
layerId = m01;
shapes = (
{
closed = 1;
nodes = (
(395,-6,ls),
(488,-6,o),
(561,52,o),
(580,135,cs),
(582,144,o),
(584,158,o),
(584,171,cs),
(584,172,ls),
(584,185,o),
(584,176,o),
(584,209,cs),
(584,260,ls),
(584,293,o),
(584,283,o),
(584,296,cs),
(584,297,ls),
(584,310,o),
(584,301,o),
(584,334,c),
(584,434,l),
(534,434,o),
(517,460,o),
(517,500,cs),
(517,564,ls),
(517,604,o),
(534,636,o),
(584,636,c),
(584,716,l),
(292,716,l),
(292,636,l),
(342,636,o),
(359,609,o),
(359,569,cs),
(359,550,ls),
(359,460,o),
(284,439,o),
(224,439,cs),
(164,439,o),
(131,457,o),
(131,485,cs),
(131,496,o),
(140,526,o),
(272,526,cs),
(331,526,o),
(423,515,o),
(585,470,c),
(585,536,l),
(430,579,o),
(374,589,o),
(248,589,cs),
(150,589,o),
(31,563,o),
(31,428,cs),
(31,334,l),
(31,301,o),
(31,310,o),
(31,297,cs),
(31,296,ls),
(31,283,o),
(31,293,o),
(31,260,cs),
(31,209,ls),
(31,175,o),
(31,184,o),
(31,171,cs),
(31,170,ls),
(31,157,o),
(33,144,o),
(35,135,cs),
(54,52,o),
(127,-6,o),
(220,-6,cs)
);
}
);
width = 621;
},
{
associatedMasterId = m01;
attr = {
coordinates = (
50
);
};
background = {
shapes = (
{
closed = 1;
nodes = (
(193,573,l),
(87,573,o),
(31,551,o),
(31,428,cs),
(31,186,ls),
(31,79,o),
(111,0,o),
(220,0,cs),
(395,0,l),
(504,0,o),
(584,79,o),
(584,186,cs),
(584,434,l),
(534,434,o),
(517,460,o),
(517,500,cs),
(517,564,ls),
(517,604,o),
(534,636,o),
(584,636,c),
(584,716,l),
(292,716,l),
(292,636,l),
(342,636,o),
(359,609,o),
(359,569,cs),
(359,500,ls),
(359,460,o),
(342,439,o),
(292,439,cs),
(173,439,l),
(142,439,o),
(126,449,o),
(126,469,cs),
(126,489,o),
(142,499,o),
(173,499,c),
(585,499,l),
(585,573,l)
);
}
);
};
layerId = "1AA39C5A-A6C6-4B57-9533-124E46631C36";
name = "Jan 25, 24 at 17:37";
shapes = (
{
closed = 1;
nodes = (
(395,-6,ls),
(488,-6,o),
(561,52,o),
(580,135,c),
(549,135,o),
(520,140,o),
(520,171,cs),
(520,173,ls),
(520,205,o),
(552,209,o),
(584,209,c),
(584,260,l),
(552,260,o),
(520,264,o),
(520,296,cs),
(520,298,ls),
(520,330,o),
(552,334,o),
(584,334,c),
(584,434,l),
(534,434,o),
(517,460,o),
(517,500,cs),
(517,564,ls),
(517,604,o),
(534,636,o),
(584,636,c),
(584,716,l),
(292,716,l),
(292,636,l),
(342,636,o),
(359,609,o),
(359,569,cs),
(359,550,ls),
(359,460,o),
(284,439,o),
(224,439,cs),
(164,439,o),
(131,457,o),
(131,485,cs),
(131,505,o),
(140,526,o),
(272,526,cs),
(331,526,o),
(423,515,o),
(585,470,c),
(585,536,l),
(430,579,o),
(362,589,o),
(248,589,cs),
(139,589,o),
(31,563,o),
(31,428,cs),
(31,334,l),
(63,334,o),
(95,330,o),
(95,298,cs),
(95,296,ls),
(95,264,o),
(63,260,o),
(31,260,c),
(31,209,l),
(63,209,o),
(95,205,o),
(95,173,cs),
(95,171,ls),
(95,140,o),
(66,135,o),
(35,135,c),
(54,52,o),
(127,-6,o),
(220,-6,cs)
);
}
);
width = 621;
},
{
associatedMasterId = m01;
attr = {
coordinates = (
100
);
};
background = {
shapes = (
{
closed = 1;
nodes = (
(193,573,l),
(87,573,o),
(31,551,o),
(31,428,cs),
(31,186,ls),
(31,79,o),
(111,0,o),
(220,0,cs),
(395,0,l),
(504,0,o),
(584,79,o),
(584,186,cs),
(584,434,l),
(534,434,o),
(517,460,o),
(517,500,cs),
(517,564,ls),
(517,604,o),
(534,636,o),
(584,636,c),
(584,716,l),
(292,716,l),
(292,636,l),
(342,636,o),
(359,609,o),
(359,569,cs),
(359,500,ls),
(359,460,o),
(342,439,o),
(292,439,cs),
(173,439,l),
(142,439,o),
(126,449,o),
(126,469,cs),
(126,489,o),
(142,499,o),
(173,499,c),
(585,499,l),
(585,573,l)
);
}
);
};
layerId = "2C300553-A9CA-4117-BFB1-467133F2881B";
name = "Jan 25, 24 at 17:37";
shapes = (
{
closed = 1;
nodes = (
(395,-6,ls),
(488,-6,o),
(561,52,o),
(580,135,c),
(547,137,o),
(481,164,o),
(469,250,c),
(472,251,l),
(513,209,o),
(573,209,o),
(584,209,c),
(584,260,l),
(553,260,o),
(481,285,o),
(469,375,c),
(472,376,l),
(513,334,o),
(573,334,o),
(584,334,c),
(584,434,l),
(534,434,o),
(517,460,o),
(517,500,cs),
(517,564,ls),
(517,604,o),
(534,636,o),
(584,636,c),
(584,716,l),
(292,716,l),
(292,636,l),
(342,636,o),
(359,609,o),
(359,569,cs),
(359,550,ls),
(359,460,o),
(284,439,o),
(224,439,cs),
(164,439,o),
(131,457,o),
(131,485,cs),
(131,505,o),
(140,526,o),
(272,526,cs),
(331,526,o),
(423,515,o),
(585,470,c),
(585,536,l),
(430,579,o),
(362,589,o),
(248,589,cs),
(139,589,o),
(31,563,o),
(31,428,cs),
(31,334,l),
(42,334,o),
(102,334,o),
(143,376,c),
(146,375,l),
(134,285,o),
(62,260,o),
(31,260,c),
(31,209,l),
(42,209,o),
(102,209,o),
(143,251,c),
(146,250,l),
(134,164,o),
(68,137,o),
(35,135,c),
(54,52,o),
(127,-6,o),
(220,-6,cs)
);
}
);
width = 621;
}
);
unicode = 42930;
},
{
glyphname = K;
kernLeft = H;
kernRight = K;
lastChange = "2024-01-31 14:46:24 +0000";
layers = (
{
anchors = (
{
name = bottom;
pos = (331,0);
},
{
name = hook;
pos = (591,636);
},
{
name = top;
pos = (345,716);
}
);
background = {
shapes = (
{
closed = 1;
nodes = (
(312,0,l),
(312,439,l),
(266,439,o),
(249,460,o),
(249,500,cs),
(249,564,ls),
(249,604,o),
(266,631,o),
(312,631,c),
(312,716,l),
(29,716,l),
(29,636,l),
(79,636,o),
(96,604,o),
(96,564,cs),
(96,500,ls),
(96,460,o),
(79,434,o),
(29,434,c),
(29,0,l)
);
},
{
closed = 1;
nodes = (
(668,0,l),
(668,435,l),
(649,435,ls),
(622,435,o),
(608,449,o),
(551,512,cs),
(462,610,l),
(341,536,l),
(399,467,l),
(410,454,o),
(400,439,o),
(382,439,cs),
(370,439,l),
(370,0,l)
);
},
{
closed = 1;
nodes = (
(568,613,ls),
(584,620,o),
(611,636,o),
(638,636,cs),
(648,636,l),
(648,716,l),
(361,716,l),
(361,631,l),
(382,631,ls),
(403,631,o),
(406,614,o),
(391,607,cs),
(198,522,l),
(198,446,l)
);
}
);
};
guides = (
{
angle = 90;
pos = (286,525);
}
);
layerId = m01;
shapes = (
{
closed = 1;
nodes = (
(312,0,l),
(312,439,l),
(280,439,o),
(253,449,o),
(253,471,c),
(355,520,l),
(384,485,ls),
(402,463,o),
(404,460,o),
(404,452,cs),
(404,442,o),
(395,439,o),
(382,439,cs),
(370,439,l),
(370,334,l),
(370,301,o),
(370,310,o),
(370,297,cs),
(370,296,ls),
(370,283,o),
(370,293,o),
(370,260,c),
(370,209,l),
(370,176,o),
(370,185,o),
(370,172,cs),
(370,171,ls),
(370,158,o),
(370,168,o),
(370,135,c),
(370,0,l),
(668,0,l),
(668,435,l),
(649,435,ls),
(624,435,o),
(613,444,o),
(551,512,cs),
(489,580,l),
(563,613,ls),
(611,635,o),
(617,636,o),
(633,636,cs),
(643,636,l),
(643,716,l),
(361,716,l),
(361,631,l),
(380,631,ls),
(388,631,o),
(395,627,o),
(395,620,cs),
(395,613,o),
(392,610,o),
(386,607,cs),
(249,544,l),
(249,564,ls),
(249,608,o),
(270,631,o),
(312,631,c),
(312,716,l),
(29,716,l),
(29,636,l),
(73,636,o),
(96,611,o),
(96,564,cs),
(96,500,ls),
(96,455,o),
(74,434,o),
(29,434,c),
(29,334,l),
(29,301,o),
(29,310,o),
(29,297,cs),
(29,296,ls),
(29,283,o),
(29,293,o),
(29,260,c),
(29,209,l),
(29,176,o),
(29,185,o),
(29,172,cs),
(29,171,ls),
(29,158,o),
(29,168,o),
(29,135,c),
(29,0,l)
);
}
);
width = 697;
},
{
anchors = (
{
name = bottom;
pos = (331,0);
},
{
name = hook;
pos = (591,636);
},
{
name = top;
pos = (345,716);
}
);
associatedMasterId = m01;
attr = {
coordinates = (
50
);
};
background = {
shapes = (
{
closed = 1;
nodes = (
(312,0,l),
(312,439,l),
(266,439,o),
(249,460,o),
(249,500,cs),
(249,564,ls),
(249,604,o),
(266,631,o),
(312,631,c),
(312,716,l),
(29,716,l),
(29,636,l),
(79,636,o),
(96,604,o),
(96,564,cs),
(96,500,ls),
(96,460,o),
(79,434,o),
(29,434,c),
(29,0,l)
);
},
{
closed = 1;
nodes = (
(668,0,l),
(668,435,l),
(649,435,ls),
(622,435,o),
(608,449,o),
(551,512,cs),
(462,610,l),
(341,536,l),
(399,467,l),
(410,454,o),
(400,439,o),
(382,439,cs),
(370,439,l),
(370,0,l)
);
},
{
closed = 1;
nodes = (
(568,613,ls),
(584,620,o),
(611,636,o),
(638,636,cs),
(648,636,l),
(648,716,l),
(361,716,l),
(361,631,l),
(382,631,ls),
(403,631,o),
(406,614,o),
(391,607,cs),
(198,522,l),
(198,446,l)
);
}
);
};
guides = (
{
angle = 90;
pos = (286,525);
}
);
layerId = "378A8C85-4F18-4359-92B1-4F5368CB6A47";
name = "Jan 18, 24 at 10:38";
shapes = (
{
closed = 1;
nodes = (
(312,0,l),
(312,439,l),
(280,439,o),
(253,449,o),
(253,471,c),
(355,520,l),
(384,485,ls),
(402,463,o),
(404,460,o),
(404,452,cs),
(404,442,o),
(395,439,o),
(382,439,cs),
(370,439,l),
(370,334,l),
(402,334,o),
(434,330,o),
(434,298,cs),
(434,296,ls),
(434,264,o),
(402,260,o),
(370,260,c),
(370,209,l),
(402,209,o),
(434,205,o),
(434,173,cs),
(434,171,ls),
(434,139,o),
(402,135,o),
(370,135,c),
(370,0,l),
(668,0,l),
(668,435,l),
(649,435,ls),
(624,435,o),
(613,444,o),
(551,512,cs),
(489,580,l),
(563,613,ls),
(611,635,o),
(617,636,o),
(633,636,cs),
(643,636,l),
(643,716,l),
(361,716,l),
(361,631,l),
(380,631,ls),
(388,631,o),
(395,627,o),
(395,620,cs),
(395,613,o),
(392,610,o),
(386,607,cs),
(249,544,l),
(249,564,ls),
(249,608,o),
(270,631,o),
(312,631,c),
(312,716,l),
(29,716,l),
(29,636,l),
(73,636,o),
(96,611,o),
(96,564,cs),
(96,500,ls),
(96,455,o),
(74,434,o),
(29,434,c),
(29,334,l),
(61,334,o),
(93,330,o),
(93,298,cs),
(93,296,ls),
(93,264,o),
(61,260,o),
(29,260,c),
(29,209,l),
(61,209,o),
(93,205,o),
(93,173,cs),
(93,171,ls),
(93,139,o),
(61,135,o),
(29,135,c),
(29,0,l)
);
}
);
width = 697;
},
{
anchors = (
{
name = bottom;
pos = (331,0);
},
{
name = hook;
pos = (591,636);
},
{
name = top;
pos = (345,716);
}
);
associatedMasterId = m01;
attr = {
coordinates = (
100
);
};
background = {
shapes = (
{
closed = 1;
nodes = (
(312,0,l),
(312,439,l),
(266,439,o),
(249,460,o),
(249,500,cs),
(249,564,ls),
(249,604,o),
(266,631,o),
(312,631,c),
(312,716,l),
(29,716,l),
(29,636,l),
(79,636,o),
(96,604,o),
(96,564,cs),
(96,500,ls),
(96,460,o),
(79,434,o),
(29,434,c),
(29,0,l)
);
},
{
closed = 1;
nodes = (
(668,0,l),
(668,435,l),
(649,435,ls),
(622,435,o),
(608,449,o),
(551,512,cs),
(462,610,l),
(341,536,l),
(399,467,l),
(410,454,o),
(400,439,o),
(382,439,cs),
(370,439,l),
(370,0,l)
);
},
{
closed = 1;
nodes = (
(568,613,ls),
(584,620,o),
(611,636,o),
(638,636,cs),
(648,636,l),
(648,716,l),
(361,716,l),
(361,631,l),
(382,631,ls),
(403,631,o),
(406,614,o),
(391,607,cs),
(198,522,l),
(198,446,l)
);
}
);
};
guides = (
{
angle = 90;
pos = (286,525);
}
);
layerId = "FC98C917-EBFD-4F5C-A2DA-049290F5343C";
name = "Jan 18, 24 at 10:38";
shapes = (
{
closed = 1;
nodes = (
(312,0,l),
(312,439,l),
(280,439,o),
(253,449,o),
(253,471,c),
(355,520,l),
(384,485,ls),
(402,463,o),
(404,460,o),
(404,452,cs),
(404,442,o),
(395,439,o),
(382,439,cs),
(370,439,l),
(370,334,l),
(381,334,o),
(441,334,o),
(482,376,c),
(485,375,l),
(473,285,o),
(401,260,o),
(370,260,c),
(370,209,l),
(381,209,o),
(441,209,o),
(482,251,c),
(485,250,l),
(473,160,o),
(401,135,o),
(370,135,c),
(370,0,l),
(668,0,l),
(668,435,l),
(649,435,ls),
(624,435,o),
(613,444,o),
(551,512,cs),
(489,580,l),
(563,613,ls),
(611,635,o),
(617,636,o),
(633,636,cs),
(643,636,l),
(643,716,l),
(361,716,l),
(361,631,l),
(380,631,ls),
(388,631,o),
(395,627,o),
(395,620,cs),
(395,613,o),
(392,610,o),
(386,607,cs),
(249,544,l),
(249,564,ls),
(249,608,o),
(270,631,o),
(312,631,c),
(312,716,l),
(29,716,l),
(29,636,l),
(73,636,o),
(96,611,o),
(96,564,cs),
(96,500,ls),
(96,455,o),
(74,434,o),
(29,434,c),
(29,334,l),
(40,334,o),
(100,334,o),
(141,376,c),
(144,375,l),
(132,285,o),
(60,260,o),
(29,260,c),
(29,209,l),
(40,209,o),
(100,209,o),
(141,251,c),
(144,250,l),
(132,160,o),
(60,135,o),
(29,135,c),
(29,0,l)
);
}
);
width = 697;
}
);
metricLeft = H;
unicode = 75;
},
{
color = 7;
glyphname = Khook;
kernLeft = H;
kernRight = RightHook;
lastChange = "2024-01-31 14:46:24 +0000";
layers = (
{
anchors = (
{
name = bottom;
pos = (331,0);
},
{
name = hook;
pos = (591,636);
},
{
name = top;
pos = (345,716);
}
);
layerId = m01;
shapes = (
{
closed = 1;
nodes = (
(312,0,l),
(312,439,l),
(280,439,o),
(253,449,o),
(253,471,c),
(355,520,l),
(384,485,ls),
(402,463,o),
(404,460,o),
(404,452,cs),
(404,442,o),
(395,439,o),
(382,439,cs),
(370,439,l),
(370,334,l),
(370,301,o),
(370,310,o),
(370,297,cs),
(370,296,ls),
(370,283,o),
(370,293,o),
(370,260,c),
(370,209,l),
(370,176,o),
(370,185,o),
(370,172,cs),
(370,171,ls),
(370,158,o),
(370,168,o),
(370,135,c),
(370,0,l),
(668,0,l),
(668,435,l),
(649,435,ls),
(624,435,o),
(613,444,o),
(551,512,cs),
(489,580,l),
(563,613,ls),
(611,635,o),
(617,636,o),
(633,636,cs),
(643,636,l),
(578,716,l),
(361,716,l),
(361,631,l),
(380,631,ls),
(388,631,o),
(395,627,o),
(395,620,cs),
(395,613,o),
(392,610,o),
(386,607,cs),
(249,544,l),
(249,564,ls),
(249,608,o),
(270,631,o),
(312,631,c),
(312,716,l),
(29,716,l),
(29,636,l),
(73,636,o),
(96,611,o),
(96,564,cs),
(96,500,ls),
(96,455,o),
(74,434,o),
(29,434,c),
(29,334,l),
(29,301,o),
(29,310,o),
(29,297,cs),
(29,296,ls),
(29,283,o),
(29,293,o),
(29,260,c),
(29,209,l),
(29,176,o),
(29,185,o),
(29,172,cs),
(29,171,ls),
(29,158,o),
(29,168,o),
(29,135,c),
(29,0,l)
);
},
{
closed = 1;
nodes = (
(748,476,l),
(756,493,o),
(761,530,o),
(761,563,cs),
(761,627,o),
(727,716,o),
(578,716,c),
(578,641,l),
(635,641,o),
(655,613,o),
(655,576,cs),
(655,542,o),
(639,503,o),
(621,476,c)
);
}
);
width = 756;
},
{
anchors = (
{
name = bottom;
pos = (331,0);
},
{
name = hook;
pos = (591,636);
},
{
name = top;
pos = (345,716);
}
);
associatedMasterId = m01;
attr = {
coordinates = (
50
);
};
layerId = "3E2B4F2C-648C-4FA3-A9D6-285C58F4BA4E";
name = "Jan 25, 24 at 17:43";
shapes = (
{
closed = 1;
nodes = (
(312,0,l),
(312,439,l),
(280,439,o),
(253,449,o),
(253,471,c),
(355,520,l),
(384,485,ls),
(402,463,o),
(404,460,o),
(404,452,cs),
(404,442,o),
(395,439,o),
(382,439,cs),
(370,439,l),
(370,334,l),
(402,334,o),
(434,330,o),
(434,298,cs),
(434,296,ls),
(434,264,o),
(402,260,o),
(370,260,c),
(370,209,l),
(402,209,o),
(434,205,o),
(434,173,cs),
(434,171,ls),
(434,139,o),
(402,135,o),
(370,135,c),
(370,0,l),
(668,0,l),
(668,435,l),
(649,435,ls),
(624,435,o),
(613,444,o),
(551,512,cs),
(489,580,l),
(563,613,ls),
(611,635,o),
(617,636,o),
(633,636,cs),
(643,636,l),
(578,716,l),
(361,716,l),
(361,631,l),
(380,631,ls),
(388,631,o),
(395,627,o),
(395,620,cs),
(395,613,o),
(392,610,o),
(386,607,cs),
(249,544,l),
(249,564,ls),
(249,608,o),
(270,631,o),
(312,631,c),
(312,716,l),
(29,716,l),
(29,636,l),
(73,636,o),
(96,611,o),
(96,564,cs),
(96,500,ls),
(96,455,o),
(74,434,o),
(29,434,c),
(29,334,l),
(61,334,o),
(93,330,o),
(93,298,cs),
(93,296,ls),
(93,264,o),
(61,260,o),
(29,260,c),
(29,209,l),
(61,209,o),
(93,205,o),
(93,173,cs),
(93,171,ls),
(93,139,o),
(61,135,o),
(29,135,c),
(29,0,l)
);
},
{
closed = 1;
nodes = (
(748,476,l),
(756,493,o),
(761,530,o),
(761,563,cs),
(761,627,o),
(727,716,o),
(578,716,c),
(578,641,l),
(635,641,o),
(655,613,o),
(655,576,cs),
(655,542,o),
(639,503,o),
(621,476,c)
);
}
);
width = 756;
},
{
anchors = (
{
name = bottom;
pos = (331,0);
},
{
name = hook;
pos = (591,636);
},
{
name = top;
pos = (345,716);
}
);
associatedMasterId = m01;
attr = {
coordinates = (
100
);
};
layerId = "8A618710-1D48-4FF9-A37E-0E506124FB37";
name = "Jan 25, 24 at 17:43";
shapes = (
{
closed = 1;
nodes = (
(312,0,l),
(312,439,l),
(280,439,o),
(253,449,o),
(253,471,c),
(355,520,l),
(384,485,ls),
(402,463,o),
(404,460,o),
(404,452,cs),
(404,442,o),
(395,439,o),
(382,439,cs),
(370,439,l),
(370,334,l),
(381,334,o),
(441,334,o),
(482,376,c),
(485,375,l),
(473,285,o),
(401,260,o),
(370,260,c),
(370,209,l),
(381,209,o),
(441,209,o),
(482,251,c),
(485,250,l),
(473,160,o),
(401,135,o),
(370,135,c),
(370,0,l),
(668,0,l),
(668,435,l),
(649,435,ls),
(624,435,o),
(613,444,o),
(551,512,cs),
(489,580,l),
(563,613,ls),
(611,635,o),
(617,636,o),
(633,636,cs),
(643,636,l),
(578,716,l),
(361,716,l),
(361,631,l),
(380,631,ls),
(388,631,o),
(395,627,o),
(395,620,cs),
(395,613,o),
(392,610,o),
(386,607,cs),
(249,544,l),
(249,564,ls),
(249,608,o),
(270,631,o),
(312,631,c),
(312,716,l),
(29,716,l),
(29,636,l),
(73,636,o),
(96,611,o),
(96,564,cs),
(96,500,ls),
(96,455,o),
(74,434,o),
(29,434,c),
(29,334,l),
(40,334,o),
(100,334,o),
(141,376,c),
(144,375,l),
(132,285,o),
(60,260,o),
(29,260,c),
(29,209,l),
(40,209,o),
(100,209,o),
(141,251,c),
(144,250,l),
(132,160,o),
(60,135,o),
(29,135,c),
(29,0,l)
);
},
{
closed = 1;
nodes = (
(748,476,l),
(756,493,o),
(761,530,o),
(761,563,cs),
(761,627,o),
(727,716,o),
(578,716,c),
(578,641,l),
(635,641,o),
(655,613,o),
(655,576,cs),
(655,542,o),
(639,503,o),
(621,476,c)
);
}
);
width = 756;
}
);
unicode = 408;
},
{
glyphname = Kstroke;
kernLeft = H;
kernRight = K;
lastChange = "2024-01-31 14:46:24 +0000";
layers = (
{
anchors = (
{
name = bottom;
pos = (331,0);
},
{
name = hook;
pos = (591,636);
},
{
name = top;
pos = (345,716);
}
);
layerId = m01;
shapes = (
{
closed = 1;
nodes = (
(312,0,l),
(312,439,l),
(280,439,o),
(253,449,o),
(253,471,c),
(355,520,l),
(384,485,ls),
(402,463,o),
(404,460,o),
(404,452,cs),
(404,442,o),
(395,439,o),
(382,439,cs),
(370,439,l),
(370,334,l),
(370,301,o),
(370,310,o),
(370,297,cs),
(370,296,ls),
(370,283,o),
(370,293,o),
(370,260,c),
(370,209,l),
(370,176,o),
(370,185,o),
(370,172,cs),
(370,171,ls),
(370,158,o),
(370,168,o),
(370,135,c),
(370,0,l),
(668,0,l),
(668,435,l),
(649,435,ls),
(624,435,o),
(613,444,o),
(551,512,cs),
(489,580,l),
(563,613,ls),
(611,635,o),
(617,636,o),
(633,636,cs),
(643,636,l),
(643,716,l),
(361,716,l),
(361,631,l),
(380,631,ls),
(388,631,o),
(395,627,o),
(395,620,cs),
(395,613,o),
(392,610,o),
(386,607,cs),
(249,544,l),
(249,564,ls),
(249,608,o),
(270,631,o),
(312,631,c),
(312,716,l),
(29,716,l),
(29,636,l),
(73,636,o),
(96,611,o),
(96,564,cs),
(96,500,ls),
(96,455,o),
(74,434,o),
(29,434,c),
(29,334,l),
(29,301,o),
(29,310,o),
(29,297,cs),
(29,296,ls),
(29,283,o),
(29,293,o),
(29,260,c),
(29,209,l),
(29,176,o),
(29,185,o),
(29,172,cs),
(29,171,ls),
(29,158,o),
(29,168,o),
(29,135,c),
(29,0,l)
);
},
{
closed = 1;
nodes = (
(112,505,l),
(112,575,l),
(29,575,l),
(29,505,l)
);
}
);
width = 697;
},
{
anchors = (
{
name = bottom;
pos = (331,0);
},
{
name = hook;
pos = (591,636);
},
{
name = top;
pos = (345,716);
}
);
associatedMasterId = m01;
attr = {
coordinates = (
50
);
};
layerId = "B4F7ED43-544D-4B0F-B69A-92EF8CC08B03";
name = "Jan 25, 24 at 17:45";
shapes = (
{
closed = 1;
nodes = (
(312,0,l),
(312,439,l),
(280,439,o),
(253,449,o),
(253,471,c),
(355,520,l),
(384,485,ls),
(402,463,o),
(404,460,o),
(404,452,cs),
(404,442,o),
(395,439,o),
(382,439,cs),
(370,439,l),
(370,334,l),
(402,334,o),
(434,330,o),
(434,298,cs),
(434,296,ls),
(434,264,o),
(402,260,o),
(370,260,c),
(370,209,l),
(402,209,o),
(434,205,o),
(434,173,cs),
(434,171,ls),
(434,139,o),
(402,135,o),
(370,135,c),
(370,0,l),
(668,0,l),
(668,435,l),
(649,435,ls),
(624,435,o),
(613,444,o),
(551,512,cs),
(489,580,l),
(563,613,ls),
(611,635,o),
(617,636,o),
(633,636,cs),
(643,636,l),
(643,716,l),
(361,716,l),
(361,631,l),
(380,631,ls),
(388,631,o),
(395,627,o),
(395,620,cs),
(395,613,o),
(392,610,o),
(386,607,cs),
(249,544,l),
(249,564,ls),
(249,608,o),
(270,631,o),
(312,631,c),
(312,716,l),
(29,716,l),
(29,636,l),
(73,636,o),
(96,611,o),
(96,564,cs),
(96,500,ls),
(96,455,o),
(74,434,o),
(29,434,c),
(29,334,l),
(61,334,o),
(93,330,o),
(93,298,cs),
(93,296,ls),
(93,264,o),
(61,260,o),
(29,260,c),
(29,209,l),
(61,209,o),
(93,205,o),
(93,173,cs),
(93,171,ls),
(93,139,o),
(61,135,o),
(29,135,c),
(29,0,l)
);
},
{
closed = 1;
nodes = (
(112,505,l),
(112,575,l),
(29,575,l),
(29,505,l)
);
}
);
width = 697;
},
{
anchors = (
{
name = bottom;
pos = (331,0);
},
{
name = hook;
pos = (591,636);
},
{
name = top;
pos = (345,716);
}
);
associatedMasterId = m01;
attr = {
coordinates = (
100
);
};
layerId = "282D4EBC-8C7B-40EA-894A-87616A1C05E3";
name = "Jan 25, 24 at 17:45";
shapes = (
{
closed = 1;
nodes = (
(312,0,l),
(312,439,l),
(280,439,o),
(253,449,o),
(253,471,c),
(355,520,l),
(384,485,ls),
(402,463,o),
(404,460,o),
(404,452,cs),
(404,442,o),
(395,439,o),
(382,439,cs),
(370,439,l),
(370,334,l),
(381,334,o),
(441,334,o),
(482,376,c),
(485,375,l),
(473,285,o),
(401,260,o),
(370,260,c),
(370,209,l),
(381,209,o),
(441,209,o),
(482,251,c),
(485,250,l),
(473,160,o),
(401,135,o),
(370,135,c),
(370,0,l),
(668,0,l),
(668,435,l),
(649,435,ls),
(624,435,o),
(613,444,o),
(551,512,cs),
(489,580,l),
(563,613,ls),
(611,635,o),
(617,636,o),
(633,636,cs),
(643,636,l),
(643,716,l),
(361,716,l),
(361,631,l),
(380,631,ls),
(388,631,o),
(395,627,o),
(395,620,cs),
(395,613,o),
(392,610,o),
(386,607,cs),
(249,544,l),
(249,564,ls),
(249,608,o),
(270,631,o),
(312,631,c),
(312,716,l),
(29,716,l),
(29,636,l),
(73,636,o),
(96,611,o),
(96,564,cs),
(96,500,ls),
(96,455,o),
(74,434,o),
(29,434,c),
(29,334,l),
(40,334,o),
(100,334,o),
(141,376,c),
(144,375,l),
(132,285,o),
(60,260,o),
(29,260,c),
(29,209,l),
(40,209,o),
(100,209,o),
(141,251,c),
(144,250,l),
(132,160,o),
(60,135,o),
(29,135,c),
(29,0,l)
);
},
{
closed = 1;
nodes = (
(112,505,l),
(112,575,l),
(29,575,l),
(29,505,l)
);
}
);
width = 697;
}
);
unicode = 42816;
},
{
glyphname = L;
kernLeft = L;
kernRight = L;
lastChange = "2024-01-31 14:46:24 +0000";
layers = (
{
anchors = (
{
name = bottom;
pos = (298,0);
},
{
name = center;
pos = (176,537);
},
{
name = top;
pos = (176,716);
},
{
name = topright;
pos = (391,589);
}
);
layerId = m01;
shapes = (
{
closed = 1;
nodes = (
(553,0,l),
(553,135,ls),
(553,168,o),
(553,158,o),
(553,171,cs),
(553,172,ls),
(553,185,o),
(553,176,o),
(553,209,cs),
(553,260,ls),
(553,293,o),
(553,283,o),
(553,296,cs),
(553,297,ls),
(553,310,o),
(553,301,o),
(553,334,c),
(553,544,l),
(458,544,l),
(458,500,ls),
(458,460,o),
(441,439,o),
(391,439,c),
(255,439,l),
(255,564,l),
(255,604,o),
(272,636,o),
(322,636,c),
(322,716,l),
(29,716,l),
(29,636,l),
(79,636,o),
(97,604,o),
(97,564,cs),
(97,500,ls),
(97,460,o),
(80,434,o),
(29,434,c),
(29,334,ls),
(29,301,o),
(29,310,o),
(29,297,cs),
(29,296,ls),
(29,283,o),
(29,293,o),
(29,260,cs),
(29,209,ls),
(29,176,o),
(29,185,o),
(29,172,cs),
(29,171,ls),
(29,158,o),
(29,168,o),
(29,135,cs),
(29,0,l)
);
}
);
width = 584;
},
{
anchors = (
{
name = bottom;
pos = (298,0);
},
{
name = center;
pos = (176,537);
},
{
name = top;
pos = (176,716);
},
{
name = topright;
pos = (391,589);
}
);
associatedMasterId = m01;
attr = {
coordinates = (
50
);
};
layerId = "B222D493-CE53-4B6B-ABD8-E54E1BD5B512";
name = "Jan 25, 24 at 17:47";
shapes = (
{
closed = 1;
nodes = (
(553,0,l),
(553,135,l),
(521,135,o),
(489,139,o),
(489,171,cs),
(489,173,ls),
(489,205,o),
(521,209,o),
(553,209,c),
(553,260,l),
(521,260,o),
(489,264,o),
(489,296,cs),
(489,298,ls),
(489,330,o),
(521,334,o),
(553,334,c),
(553,544,l),
(458,544,l),
(458,500,ls),
(458,460,o),
(441,439,o),
(391,439,c),
(255,439,l),
(255,564,l),
(255,604,o),
(272,636,o),
(322,636,c),
(322,716,l),
(29,716,l),
(29,636,l),
(79,636,o),
(97,604,o),
(97,564,cs),
(97,500,ls),
(97,460,o),
(80,434,o),
(29,434,c),
(29,334,l),
(61,334,o),
(93,330,o),
(93,298,cs),
(93,296,ls),
(93,264,o),
(61,260,o),
(29,260,c),
(29,209,l),
(61,209,o),
(93,205,o),
(93,173,cs),
(93,171,ls),
(93,139,o),
(61,135,o),
(29,135,c),
(29,0,l)
);
}
);
width = 584;
},
{
anchors = (
{
name = bottom;
pos = (298,0);
},
{
name = center;
pos = (176,537);
},
{
name = top;
pos = (176,716);
},
{
name = topright;
pos = (391,589);
}
);
associatedMasterId = m01;
attr = {
coordinates = (
100
);
};
layerId = "9CAA111B-A23D-4AD8-ADDC-39A36680BE9C";
name = "Jan 25, 24 at 17:47";
shapes = (
{
closed = 1;
nodes = (
(553,0,l),
(553,135,l),
(522,135,o),
(450,160,o),
(438,250,c),
(441,251,l),
(482,209,o),
(542,209,o),
(553,209,c),
(553,260,l),
(522,260,o),
(450,285,o),
(438,375,c),
(441,376,l),
(482,334,o),
(542,334,o),
(553,334,c),
(553,544,l),
(458,544,l),
(458,500,ls),
(458,460,o),
(441,439,o),
(391,439,c),
(255,439,l),
(255,564,l),
(255,604,o),
(272,636,o),
(322,636,c),
(322,716,l),
(29,716,l),
(29,636,l),
(79,636,o),
(97,604,o),
(97,564,cs),
(97,500,ls),
(97,460,o),
(80,434,o),
(29,434,c),
(29,334,l),
(40,334,o),
(100,334,o),
(141,376,c),
(144,375,l),
(132,285,o),
(60,260,o),
(29,260,c),
(29,209,l),
(40,209,o),
(100,209,o),
(141,251,c),
(144,250,l),
(132,160,o),
(60,135,o),
(29,135,c),
(29,0,l)
);
}
);
width = 584;
}
);
metricLeft = H;
unicode = 76;
},
{
glyphname = Lbelt;
kernLeft = L;
kernRight = L;
lastChange = "2024-01-31 14:46:24 +0000";
layers = (
{
anchors = (
{
name = bottom;
pos = (298,0);
},
{
name = center;
pos = (176,537);
},
{
name = top;
pos = (176,716);
},
{
name = topright;
pos = (391,589);
}
);
layerId = m01;
shapes = (
{
closed = 1;
nodes = (
(553,0,l),
(553,135,ls),
(553,168,o),
(553,158,o),
(553,171,cs),
(553,172,ls),
(553,185,o),
(553,176,o),
(553,209,cs),
(553,260,ls),
(553,293,o),
(553,283,o),
(553,296,cs),
(553,297,ls),
(553,310,o),
(553,301,o),
(553,334,c),
(553,544,l),
(458,544,l),
(458,500,ls),
(458,460,o),
(441,439,o),
(391,439,c),
(255,439,l),
(255,564,l),
(255,604,o),
(272,636,o),
(322,636,c),
(322,716,l),
(29,716,l),
(29,636,l),
(79,636,o),
(97,604,o),
(97,564,cs),
(97,500,ls),
(97,460,o),
(80,434,o),
(29,434,c),
(29,334,ls),
(29,301,o),
(29,310,o),
(29,297,cs),
(29,296,ls),
(29,283,o),
(29,293,o),
(29,260,cs),
(29,209,ls),
(29,176,o),
(29,185,o),
(29,172,cs),
(29,171,ls),
(29,158,o),
(29,168,o),
(29,135,cs),
(29,0,l)
);
},
{
closed = 1;
nodes = (
(317,467,l),
(317,531,l),
(64,531,ls),
(50,531,o),
(41,533,o),
(41,541,cs),
(41,550,o),
(50,553,o),
(60,553,cs),
(83,553,o),
(97,542,o),
(97,519,c),
(149,538,l),
(149,578,o),
(110,609,o),
(59,609,cs),
(14,609,o),
(-25,584,o),
(-25,544,cs),
(-25,492,o),
(11,467,o),
(56,467,cs)
);
}
);
width = 584;
},
{
anchors = (
{
name = bottom;
pos = (298,0);
},
{
name = center;
pos = (176,537);
},
{
name = top;
pos = (176,716);
},
{
name = topright;
pos = (391,589);
}
);
associatedMasterId = m01;
attr = {
coordinates = (
50
);
};
layerId = "C833E694-B2FA-4063-AAE2-439EACA113D3";
name = "Jan 25, 24 at 17:51";
shapes = (
{
closed = 1;
nodes = (
(553,0,l),
(553,135,l),
(521,135,o),
(489,139,o),
(489,171,cs),
(489,173,ls),
(489,205,o),
(521,209,o),
(553,209,c),
(553,260,l),
(521,260,o),
(489,264,o),
(489,296,cs),
(489,298,ls),
(489,330,o),
(521,334,o),
(553,334,c),
(553,544,l),
(458,544,l),
(458,500,ls),
(458,460,o),
(441,439,o),
(391,439,c),
(255,439,l),
(255,564,l),
(255,604,o),
(272,636,o),
(322,636,c),
(322,716,l),
(29,716,l),
(29,636,l),
(79,636,o),
(97,604,o),
(97,564,cs),
(97,500,ls),
(97,460,o),
(80,434,o),
(29,434,c),
(29,334,l),
(61,334,o),
(93,330,o),
(93,298,cs),
(93,296,ls),
(93,264,o),
(61,260,o),
(29,260,c),
(29,209,l),
(61,209,o),
(93,205,o),
(93,173,cs),
(93,171,ls),
(93,139,o),
(61,135,o),
(29,135,c),
(29,0,l)
);
},
{
closed = 1;
nodes = (
(317,467,l),
(317,531,l),
(64,531,ls),
(50,531,o),
(41,533,o),
(41,541,cs),
(41,550,o),
(50,553,o),
(60,553,cs),
(83,553,o),
(97,542,o),
(97,519,c),
(149,538,l),
(149,578,o),
(110,609,o),
(59,609,cs),
(14,609,o),
(-25,584,o),
(-25,544,cs),
(-25,492,o),
(11,467,o),
(56,467,cs)
);
}
);
width = 584;
},
{
anchors = (
{
name = bottom;
pos = (298,0);
},
{
name = center;
pos = (176,537);
},
{
name = top;
pos = (176,716);
},
{
name = topright;
pos = (391,589);
}
);
associatedMasterId = m01;
attr = {
coordinates = (
100
);
};
layerId = "A4F225FF-09B2-41BA-BD97-AC9B6FEAE495";
name = "Jan 25, 24 at 17:51";
shapes = (
{
closed = 1;
nodes = (
(553,0,l),
(553,135,l),
(522,135,o),
(450,160,o),
(438,250,c),
(441,251,l),
(482,209,o),
(542,209,o),
(553,209,c),
(553,260,l),
(522,260,o),
(450,285,o),
(438,375,c),
(441,376,l),
(482,334,o),
(542,334,o),
(553,334,c),
(553,544,l),
(458,544,l),
(458,500,ls),
(458,460,o),
(441,439,o),
(391,439,c),
(255,439,l),
(255,564,l),
(255,604,o),
(272,636,o),
(322,636,c),
(322,716,l),
(29,716,l),
(29,636,l),
(79,636,o),
(97,604,o),
(97,564,cs),
(97,500,ls),
(97,460,o),
(80,434,o),
(29,434,c),
(29,334,l),
(40,334,o),
(100,334,o),
(141,376,c),
(144,375,l),
(132,285,o),
(60,260,o),
(29,260,c),
(29,209,l),
(40,209,o),
(100,209,o),
(141,251,c),
(144,250,l),
(132,160,o),
(60,135,o),
(29,135,c),
(29,0,l)
);
},
{
closed = 1;
nodes = (
(317,467,l),
(317,531,l),
(64,531,ls),
(50,531,o),
(41,533,o),
(41,541,cs),
(41,550,o),
(50,553,o),
(60,553,cs),
(83,553,o),
(97,542,o),
(97,519,c),
(149,538,l),
(149,578,o),
(110,609,o),
(59,609,cs),
(14,609,o),
(-25,584,o),
(-25,544,cs),
(-25,492,o),
(11,467,o),
(56,467,cs)
);
}
);
width = 584;
}
);
unicode = 42925;
},
{
glyphname = Ldoublebar;
kernLeft = L;
kernRight = L;
lastChange = "2024-01-31 14:46:24 +0000";
layers = (
{
anchors = (
{
name = bottom;
pos = (298,0);
},
{
name = center;
pos = (176,537);
},
{
name = top;
pos = (176,716);
},
{
name = topright;
pos = (391,589);
}
);
layerId = m01;
shapes = (
{
closed = 1;
nodes = (
(553,0,l),
(553,135,ls),
(553,168,o),
(553,158,o),
(553,171,cs),
(553,172,ls),
(553,185,o),
(553,176,o),
(553,209,cs),
(553,260,ls),
(553,293,o),
(553,283,o),
(553,296,cs),
(553,297,ls),
(553,310,o),
(553,301,o),
(553,334,c),
(553,544,l),
(458,544,l),
(458,500,ls),
(458,460,o),
(441,439,o),
(391,439,c),
(255,439,l),
(255,564,l),
(255,604,o),
(272,636,o),
(322,636,c),
(322,716,l),
(29,716,l),
(29,636,l),
(79,636,o),
(97,604,o),
(97,564,cs),
(97,500,ls),
(97,460,o),
(80,434,o),
(29,434,c),
(29,334,ls),
(29,301,o),
(29,310,o),
(29,297,cs),
(29,296,ls),
(29,283,o),
(29,293,o),
(29,260,cs),
(29,209,ls),
(29,176,o),
(29,185,o),
(29,172,cs),
(29,171,ls),
(29,158,o),
(29,168,o),
(29,135,cs),
(29,0,l)
);
},
{
closed = 1;
nodes = (
(322,478,l),
(322,523,l),
(29,523,l),
(29,478,l)
);
},
{
closed = 1;
nodes = (
(322,545,l),
(322,590,l),
(29,590,l),
(29,545,l)
);
}
);
width = 584;
},
{
anchors = (
{
name = bottom;
pos = (298,0);
},
{
name = center;
pos = (176,537);
},
{
name = top;
pos = (176,716);
},
{
name = topright;
pos = (391,589);
}
);
associatedMasterId = m01;
attr = {
coordinates = (
50
);
};
layerId = "E8211128-9848-41A6-8E01-E731FEEF56B0";
name = "Jan 25, 24 at 17:50";
shapes = (
{
closed = 1;
nodes = (
(553,0,l),
(553,135,l),
(521,135,o),
(489,139,o),
(489,171,cs),
(489,173,ls),
(489,205,o),
(521,209,o),
(553,209,c),
(553,260,l),
(521,260,o),
(489,264,o),
(489,296,cs),
(489,298,ls),
(489,330,o),
(521,334,o),
(553,334,c),
(553,544,l),
(458,544,l),
(458,500,ls),
(458,460,o),
(441,439,o),
(391,439,c),
(255,439,l),
(255,564,l),
(255,604,o),
(272,636,o),
(322,636,c),
(322,716,l),
(29,716,l),
(29,636,l),
(79,636,o),
(97,604,o),
(97,564,cs),
(97,500,ls),
(97,460,o),
(80,434,o),
(29,434,c),
(29,334,l),
(61,334,o),
(93,330,o),
(93,298,cs),
(93,296,ls),
(93,264,o),
(61,260,o),
(29,260,c),
(29,209,l),
(61,209,o),
(93,205,o),
(93,173,cs),
(93,171,ls),
(93,139,o),
(61,135,o),
(29,135,c),
(29,0,l)
);
},
{
closed = 1;
nodes = (
(322,478,l),
(322,523,l),
(29,523,l),
(29,478,l)
);
},
{
closed = 1;
nodes = (
(322,545,l),
(322,590,l),
(29,590,l),
(29,545,l)
);
}
);
width = 584;
},
{
anchors = (
{
name = bottom;
pos = (298,0);
},
{
name = center;
pos = (176,537);
},
{
name = top;
pos = (176,716);
},
{
name = topright;
pos = (391,589);
}
);
associatedMasterId = m01;
attr = {
coordinates = (
100
);
};
layerId = "65AC72E8-6455-4AB0-8231-1B565A39229D";
name = "Jan 25, 24 at 17:50";
shapes = (
{
closed = 1;
nodes = (
(553,0,l),
(553,135,l),
(522,135,o),
(450,160,o),
(438,250,c),
(441,251,l),
(482,209,o),
(542,209,o),
(553,209,c),
(553,260,l),
(522,260,o),
(450,285,o),
(438,375,c),
(441,376,l),
(482,334,o),
(542,334,o),
(553,334,c),
(553,544,l),
(458,544,l),
(458,500,ls),
(458,460,o),
(441,439,o),
(391,439,c),
(255,439,l),
(255,564,l),
(255,604,o),
(272,636,o),
(322,636,c),
(322,716,l),
(29,716,l),
(29,636,l),
(79,636,o),
(97,604,o),
(97,564,cs),
(97,500,ls),
(97,460,o),
(80,434,o),
(29,434,c),
(29,334,l),
(40,334,o),
(100,334,o),
(141,376,c),
(144,375,l),
(132,285,o),
(60,260,o),
(29,260,c),
(29,209,l),
(40,209,o),
(100,209,o),
(141,251,c),
(144,250,l),
(132,160,o),
(60,135,o),
(29,135,c),
(29,0,l)
);
},
{
closed = 1;
nodes = (
(322,478,l),
(322,523,l),
(29,523,l),
(29,478,l)
);
},
{
closed = 1;
nodes = (
(322,545,l),
(322,590,l),
(29,590,l),
(29,545,l)
);
}
);
width = 584;
}
);
unicode = 11360;
},
{
glyphname = Lmiddletilde;
kernLeft = L;
kernRight = L;
lastChange = "2024-01-31 14:46:24 +0000";
layers = (
{
anchors = (
{
name = bottom;
pos = (298,0);
},
{
name = center;
pos = (176,537);
},
{
name = top;
pos = (235,581);
},
{
name = topright;
pos = (391,589);
}
);
layerId = m01;
shapes = (
{
closed = 1;
nodes = (
(553,0,l),
(553,135,ls),
(553,168,o),
(553,158,o),
(553,171,cs),
(553,172,ls),
(553,185,o),
(553,176,o),
(553,209,cs),
(553,260,ls),
(553,293,o),
(553,283,o),
(553,296,cs),
(553,297,ls),
(553,310,o),
(553,301,o),
(553,334,c),
(553,544,l),
(458,544,l),
(458,500,ls),
(458,460,o),
(441,439,o),
(391,439,c),
(255,439,l),
(255,564,l),
(255,604,o),
(272,636,o),
(322,636,c),
(322,716,l),
(29,716,l),
(29,636,l),
(79,636,o),
(97,604,o),
(97,564,cs),
(97,500,ls),
(97,460,o),
(80,434,o),
(29,434,c),
(29,334,ls),
(29,301,o),
(29,310,o),
(29,297,cs),
(29,296,ls),
(29,283,o),
(29,293,o),
(29,260,cs),
(29,209,ls),
(29,176,o),
(29,185,o),
(29,172,cs),
(29,171,ls),
(29,158,o),
(29,168,o),
(29,135,cs),
(29,0,l)
);
},
{
pos = (-38,10);
ref = tildeoverlaycomb;
}
);
width = 584;
},
{
anchors = (
{
name = bottom;
pos = (298,0);
},
{
name = center;
pos = (176,537);
},
{
name = top;
pos = (235,581);
},
{
name = topright;
pos = (391,589);
}
);
associatedMasterId = m01;
attr = {
coordinates = (
50
);
};
layerId = "010F3ED7-AB5A-44FD-90FB-15DCC7CCB91C";
name = "Jan 25, 24 at 17:52";
shapes = (
{
closed = 1;
nodes = (
(553,0,l),
(553,135,l),
(521,135,o),
(489,139,o),
(489,171,cs),
(489,173,ls),
(489,205,o),
(521,209,o),
(553,209,c),
(553,260,l),
(521,260,o),
(489,264,o),
(489,296,cs),
(489,298,ls),
(489,330,o),
(521,334,o),
(553,334,c),
(553,544,l),
(458,544,l),
(458,500,ls),
(458,460,o),
(441,439,o),
(391,439,c),
(255,439,l),
(255,564,l),
(255,604,o),
(272,636,o),
(322,636,c),
(322,716,l),
(29,716,l),
(29,636,l),
(79,636,o),
(97,604,o),
(97,564,cs),
(97,500,ls),
(97,460,o),
(80,434,o),
(29,434,c),
(29,334,l),
(61,334,o),
(93,330,o),
(93,298,cs),
(93,296,ls),
(93,264,o),
(61,260,o),
(29,260,c),
(29,209,l),
(61,209,o),
(93,205,o),
(93,173,cs),
(93,171,ls),
(93,139,o),
(61,135,o),
(29,135,c),
(29,0,l)
);
},
{
pos = (-38,10);
ref = tildeoverlaycomb;
}
);
width = 584;
},
{
anchors = (
{
name = bottom;
pos = (298,0);
},
{
name = center;
pos = (176,537);
},
{
name = top;
pos = (235,581);
},
{
name = topright;
pos = (391,589);
}
);
associatedMasterId = m01;
attr = {
coordinates = (
100
);
};
layerId = "AC94F28B-BABF-4E0B-9AAA-BAE500BA863B";
name = "Jan 25, 24 at 17:52";
shapes = (
{
closed = 1;
nodes = (
(553,0,l),
(553,135,l),
(522,135,o),
(450,160,o),
(438,250,c),
(441,251,l),
(482,209,o),
(542,209,o),
(553,209,c),
(553,260,l),
(522,260,o),
(450,285,o),
(438,375,c),
(441,376,l),
(482,334,o),
(542,334,o),
(553,334,c),
(553,544,l),
(458,544,l),
(458,500,ls),
(458,460,o),
(441,439,o),
(391,439,c),
(255,439,l),
(255,564,l),
(255,604,o),
(272,636,o),
(322,636,c),
(322,716,l),
(29,716,l),
(29,636,l),
(79,636,o),
(97,604,o),
(97,564,cs),
(97,500,ls),
(97,460,o),
(80,434,o),
(29,434,c),
(29,334,l),
(40,334,o),
(100,334,o),
(141,376,c),
(144,375,l),
(132,285,o),
(60,260,o),
(29,260,c),
(29,209,l),
(40,209,o),
(100,209,o),
(141,251,c),
(144,250,l),
(132,160,o),
(60,135,o),
(29,135,c),
(29,0,l)
);
},
{
pos = (-38,10);
ref = tildeoverlaycomb;
}
);
width = 584;
}
);
unicode = 11362;
},
{
glyphname = Lslash;
kernLeft = L;
kernRight = L;
lastChange = "2024-01-31 14:46:24 +0000";
layers = (
{
anchors = (
{
name = bottom;
pos = (298,0);
},
{
name = center;
pos = (176,537);
},
{
name = top;
pos = (176,716);
},
{
name = topright;
pos = (391,589);
}
);
layerId = m01;
shapes = (
{
closed = 1;
nodes = (
(553,0,l),
(553,135,ls),
(553,168,o),
(553,158,o),
(553,171,cs),
(553,172,ls),
(553,185,o),
(553,176,o),
(553,209,cs),
(553,260,ls),
(553,293,o),
(553,283,o),
(553,296,cs),
(553,297,ls),
(553,310,o),
(553,301,o),
(553,334,c),
(553,544,l),
(458,544,l),
(458,500,ls),
(458,460,o),
(441,439,o),
(391,439,c),
(255,439,l),
(255,564,l),
(255,604,o),
(272,636,o),
(322,636,c),
(322,716,l),
(29,716,l),
(29,636,l),
(79,636,o),
(97,604,o),
(97,564,cs),
(97,500,ls),
(97,460,o),
(80,434,o),
(29,434,c),
(29,334,ls),
(29,301,o),
(29,310,o),
(29,297,cs),
(29,296,ls),
(29,283,o),
(29,293,o),
(29,260,cs),
(29,209,ls),
(29,176,o),
(29,185,o),
(29,172,cs),
(29,171,ls),
(29,158,o),
(29,168,o),
(29,135,cs),
(29,0,l)
);
},
{
closed = 1;
nodes = (
(362,536,l),
(362,603,l),
(30,540,l),
(30,473,l)
);
}
);
width = 584;
},
{
anchors = (
{
name = bottom;
pos = (298,0);
},
{
name = center;
pos = (176,537);
},
{
name = top;
pos = (176,716);
},
{
name = topright;
pos = (391,589);
}
);
associatedMasterId = m01;
attr = {
coordinates = (
50
);
};
layerId = "FF9402D3-0F87-4424-B5D4-294E1D64E850";
name = "Jan 25, 24 at 17:53";
shapes = (
{
closed = 1;
nodes = (
(553,0,l),
(553,135,l),
(521,135,o),
(489,139,o),
(489,171,cs),
(489,173,ls),
(489,205,o),
(521,209,o),
(553,209,c),
(553,260,l),
(521,260,o),
(489,264,o),
(489,296,cs),
(489,298,ls),
(489,330,o),
(521,334,o),
(553,334,c),
(553,544,l),
(458,544,l),
(458,500,ls),
(458,460,o),
(441,439,o),
(391,439,c),
(255,439,l),
(255,564,l),
(255,604,o),
(272,636,o),
(322,636,c),
(322,716,l),
(29,716,l),
(29,636,l),
(79,636,o),
(97,604,o),
(97,564,cs),
(97,500,ls),
(97,460,o),
(80,434,o),
(29,434,c),
(29,334,l),
(61,334,o),
(93,330,o),
(93,298,cs),
(93,296,ls),
(93,264,o),
(61,260,o),
(29,260,c),
(29,209,l),
(61,209,o),
(93,205,o),
(93,173,cs),
(93,171,ls),
(93,139,o),
(61,135,o),
(29,135,c),
(29,0,l)
);
},
{
closed = 1;
nodes = (
(362,536,l),
(362,603,l),
(30,540,l),
(30,473,l)
);
}
);
width = 584;
},
{
anchors = (
{
name = bottom;
pos = (298,0);
},
{
name = center;
pos = (176,537);
},
{
name = top;
pos = (176,716);
},
{
name = topright;
pos = (391,589);
}
);
associatedMasterId = m01;
attr = {
coordinates = (
100
);
};
layerId = "11C25BC1-8003-489B-9EED-9A5454D9CFE1";
name = "Jan 25, 24 at 17:53";
shapes = (
{
closed = 1;
nodes = (
(553,0,l),
(553,135,l),
(522,135,o),
(450,160,o),
(438,250,c),
(441,251,l),
(482,209,o),
(542,209,o),
(553,209,c),
(553,260,l),
(522,260,o),
(450,285,o),
(438,375,c),
(441,376,l),
(482,334,o),
(542,334,o),
(553,334,c),
(553,544,l),
(458,544,l),
(458,500,ls),
(458,460,o),
(441,439,o),
(391,439,c),
(255,439,l),
(255,564,l),
(255,604,o),
(272,636,o),
(322,636,c),
(322,716,l),
(29,716,l),
(29,636,l),
(79,636,o),
(97,604,o),
(97,564,cs),
(97,500,ls),
(97,460,o),
(80,434,o),
(29,434,c),
(29,334,l),
(40,334,o),
(100,334,o),
(141,376,c),
(144,375,l),
(132,285,o),
(60,260,o),
(29,260,c),
(29,209,l),
(40,209,o),
(100,209,o),
(141,251,c),
(144,250,l),
(132,160,o),
(60,135,o),
(29,135,c),
(29,0,l)
);
},
{
closed = 1;
nodes = (
(362,536,l),
(362,603,l),
(30,540,l),
(30,473,l)
);
}
);
width = 584;
}
);
unicode = 321;
},
{
glyphname = M;
kernLeft = H;
kernRight = H;
lastChange = "2024-01-31 14:46:24 +0000";
layers = (
{
anchors = (
{
name = bottom;
pos = (384,0);
},
{
name = top;
pos = (378,716);
}
);
layerId = m01;
shapes = (
{
closed = 1;
nodes = (
(354,0,l),
(354,439,l),
(321,439,ls),
(271,439,o),
(254,461,o),
(254,501,cs),
(254,603,l),
(384,472,l),
(514,603,l),
(514,501,ls),
(514,461,o),
(497,439,o),
(447,439,cs),
(414,439,l),
(414,334,l),
(414,301,o),
(414,310,o),
(414,297,cs),
(414,296,ls),
(414,283,o),
(414,293,o),
(414,260,c),
(414,209,l),
(414,176,o),
(414,185,o),
(414,172,cs),
(414,171,ls),
(414,158,o),
(414,168,o),
(414,135,c),
(414,0,l),
(739,0,l),
(739,433,l),
(689,433,o),
(672,454,o),
(672,494,cs),
(672,566,ls),
(672,606,o),
(689,633,o),
(739,633,c),
(739,716,l),
(511,716,l),
(384,584,l),
(257,716,l),
(29,716,l),
(29,633,l),
(79,633,o),
(96,606,o),
(96,566,cs),
(96,494,ls),
(96,454,o),
(79,433,o),
(29,433,c),
(29,334,l),
(29,301,o),
(29,310,o),
(29,297,cs),
(29,296,ls),
(29,283,o),
(29,293,o),
(29,260,c),
(29,209,l),
(29,176,o),
(29,185,o),
(29,172,cs),
(29,171,ls),
(29,158,o),
(29,168,o),
(29,135,c),
(29,0,l)
);
}
);
width = 768;
},
{
anchors = (
{
name = bottom;
pos = (384,0);
},
{
name = top;
pos = (378,716);
}
);
associatedMasterId = m01;
attr = {
coordinates = (
50
);
};
layerId = "F5201F7D-2EC9-4FA4-8FEA-D64DFCEFCE47";
name = "Jan 3, 24 at 09:18";
shapes = (
{
closed = 1;
nodes = (
(354,0,l),
(354,439,l),
(321,439,ls),
(271,439,o),
(254,461,o),
(254,501,cs),
(254,603,l),
(384,472,l),
(514,603,l),
(514,501,ls),
(514,461,o),
(497,439,o),
(447,439,cs),
(414,439,l),
(414,334,l),
(446,334,o),
(478,330,o),
(478,298,cs),
(478,296,ls),
(478,264,o),
(446,260,o),
(414,260,c),
(414,209,l),
(446,209,o),
(478,205,o),
(478,173,cs),
(478,171,ls),
(478,139,o),
(446,135,o),
(414,135,c),
(414,0,l),
(739,0,l),
(739,433,l),
(689,433,o),
(672,454,o),
(672,494,cs),
(672,566,ls),
(672,606,o),
(689,633,o),
(739,633,c),
(739,716,l),
(511,716,l),
(384,584,l),
(257,716,l),
(29,716,l),
(29,633,l),
(79,633,o),
(96,606,o),
(96,566,cs),
(96,494,ls),
(96,454,o),
(79,433,o),
(29,433,c),
(29,334,l),
(61,334,o),
(93,330,o),
(93,298,cs),
(93,296,ls),
(93,264,o),
(61,260,o),
(29,260,c),
(29,209,l),
(61,209,o),
(93,205,o),
(93,173,cs),
(93,171,ls),
(93,139,o),
(61,135,o),
(29,135,c),
(29,0,l)
);
}
);
width = 768;
},
{
anchors = (
{
name = bottom;
pos = (384,0);
},
{
name = top;
pos = (378,716);
}
);
associatedMasterId = m01;
attr = {
coordinates = (
100
);
};
layerId = "A2E76716-DACB-4D7E-BE25-71BBECA0766D";
name = "Jan 3, 24 at 09:18";
shapes = (
{
closed = 1;
nodes = (
(354,0,l),
(354,439,l),
(321,439,ls),
(271,439,o),
(254,461,o),
(254,501,cs),
(254,603,l),
(384,472,l),
(514,603,l),
(514,501,ls),
(514,461,o),
(497,439,o),
(447,439,cs),
(414,439,l),
(414,334,l),
(425,334,o),
(485,334,o),
(526,376,c),
(529,375,l),
(517,285,o),
(445,260,o),
(414,260,c),
(414,209,l),
(425,209,o),
(485,209,o),
(526,251,c),
(529,250,l),
(517,160,o),
(445,135,o),
(414,135,c),
(414,0,l),
(739,0,l),
(739,433,l),
(689,433,o),
(672,454,o),
(672,494,cs),
(672,566,ls),
(672,606,o),
(689,633,o),
(739,633,c),
(739,716,l),
(511,716,l),
(384,584,l),
(257,716,l),
(29,716,l),
(29,633,l),
(79,633,o),
(96,606,o),
(96,566,cs),
(96,494,ls),
(96,454,o),
(79,433,o),
(29,433,c),
(29,334,l),
(40,334,o),
(100,334,o),
(141,376,c),
(144,375,l),
(132,285,o),
(60,260,o),
(29,260,c),
(29,209,l),
(40,209,o),
(100,209,o),
(141,251,c),
(144,250,l),
(132,160,o),
(60,135,o),
(29,135,c),
(29,0,l)
);
}
);
width = 768;
}
);
metricLeft = H;
metricRight = H;
unicode = 77;
},
{
glyphname = N;
kernLeft = H;
kernRight = H;
lastChange = "2024-01-31 14:46:24 +0000";
layers = (
{
anchors = (
{
name = bottom;
pos = (347,0);
},
{
name = ogonek;
pos = (690,0);
},
{
name = top;
pos = (344,716);
},
{
name = topleft;
pos = (347,716);
}
);
guides = (
{
pos = (431,445);
}
);
layerId = m01;
shapes = (
{
closed = 1;
nodes = (
(322,0,l),
(322,439,l),
(274,439,o),
(252,461,o),
(252,501,cs),
(252,601,l),
(377,439,l),
(377,334,l),
(377,301,o),
(377,310,o),
(377,297,cs),
(377,296,ls),
(377,283,o),
(377,293,o),
(377,260,c),
(377,209,l),
(377,176,o),
(377,185,o),
(377,172,cs),
(377,171,ls),
(377,158,o),
(377,168,o),
(377,135,c),
(377,0,l),
(667,0,l),
(667,434,l),
(617,434,o),
(600,460,o),
(600,500,cs),
(600,564,ls),
(600,604,o),
(617,636,o),
(667,636,c),
(667,716,l),
(375,716,l),
(375,636,l),
(425,636,o),
(442,609,o),
(442,569,cs),
(442,480,l),
(261,716,l),
(29,716,l),
(29,636,l),
(82,636,o),
(99,607,o),
(99,567,cs),
(99,500,ls),
(99,457,o),
(90,434,o),
(29,434,c),
(29,334,l),
(29,301,o),
(29,310,o),
(29,297,cs),
(29,296,ls),
(29,283,o),
(29,293,o),
(29,260,c),
(29,209,l),
(29,176,o),
(29,185,o),
(29,172,cs),
(29,171,ls),
(29,158,o),
(29,168,o),
(29,135,c),
(29,0,l)
);
}
);
width = 696;
},
{
anchors = (
{
name = bottom;
pos = (347,0);
},
{
name = ogonek;
pos = (690,0);
},
{
name = top;
pos = (344,716);
},
{
name = topleft;
pos = (347,716);
}
);
associatedMasterId = m01;
attr = {
coordinates = (
50
);
};
guides = (
{
pos = (431,445);
}
);
layerId = "649DE68D-706A-4AC2-9576-BC8F6FA6FD14";
name = "Jan 3, 24 at 09:20";
shapes = (
{
closed = 1;
nodes = (
(322,0,l),
(322,439,l),
(274,439,o),
(252,461,o),
(252,501,cs),
(252,601,l),
(377,439,l),
(377,334,l),
(409,334,o),
(441,330,o),
(441,298,cs),
(441,296,ls),
(441,264,o),
(409,260,o),
(377,260,c),
(377,209,l),
(409,209,o),
(441,205,o),
(441,173,cs),
(441,171,ls),
(441,139,o),
(409,135,o),
(377,135,c),
(377,0,l),
(667,0,l),
(667,434,l),
(617,434,o),
(600,460,o),
(600,500,cs),
(600,564,ls),
(600,604,o),
(617,636,o),
(667,636,c),
(667,716,l),
(375,716,l),
(375,636,l),
(425,636,o),
(442,609,o),
(442,569,cs),
(442,480,l),
(261,716,l),
(29,716,l),
(29,636,l),
(82,636,o),
(99,607,o),
(99,567,cs),
(99,500,ls),
(99,457,o),
(90,434,o),
(29,434,c),
(29,334,l),
(61,334,o),
(93,330,o),
(93,298,cs),
(93,296,ls),
(93,264,o),
(61,260,o),
(29,260,c),
(29,209,l),
(61,209,o),
(93,205,o),
(93,173,cs),
(93,171,ls),
(93,139,o),
(61,135,o),
(29,135,c),
(29,0,l)
);
}
);
width = 696;
},
{
anchors = (
{
name = bottom;
pos = (347,0);
},
{
name = ogonek;
pos = (690,0);
},
{
name = top;
pos = (344,716);
},
{
name = topleft;
pos = (347,716);
}
);
associatedMasterId = m01;
attr = {
coordinates = (
100
);
};
guides = (
{
pos = (431,445);
}
);
layerId = "6F550414-8F4C-42E3-B452-DEF04292FB6C";
name = "Jan 3, 24 at 09:20";
shapes = (
{
closed = 1;
nodes = (
(322,0,l),
(322,439,l),
(274,439,o),
(252,461,o),
(252,501,cs),
(252,601,l),
(377,439,l),
(377,334,l),
(388,334,o),
(448,334,o),
(489,376,c),
(492,375,l),
(480,285,o),
(408,260,o),
(377,260,c),
(377,209,l),
(388,209,o),
(448,209,o),
(489,251,c),
(492,250,l),
(480,160,o),
(408,135,o),
(377,135,c),
(377,0,l),
(667,0,l),
(667,434,l),
(617,434,o),
(600,460,o),
(600,500,cs),
(600,564,ls),
(600,604,o),
(617,636,o),
(667,636,c),
(667,716,l),
(375,716,l),
(375,636,l),
(425,636,o),
(442,609,o),
(442,569,cs),
(442,480,l),
(261,716,l),
(29,716,l),
(29,636,l),
(82,636,o),
(99,607,o),
(99,567,cs),
(99,500,ls),
(99,457,o),
(90,434,o),
(29,434,c),
(29,334,l),
(40,334,o),
(100,334,o),
(141,376,c),
(144,375,l),
(132,285,o),
(60,260,o),
(29,260,c),
(29,209,l),
(40,209,o),
(100,209,o),
(141,251,c),
(144,250,l),
(132,160,o),
(60,135,o),
(29,135,c),
(29,0,l)
);
}
);
width = 696;
}
);
metricLeft = H;
metricRight = H;
unicode = 78;
},
{
color = 7;
glyphname = Nhookleft;
lastChange = "2024-01-31 14:46:24 +0000";
layers = (
{
layerId = m01;
shapes = (
{
closed = 1;
nodes = (
(170,-140,o),
(315,-121,o),
(322,74,c),
(322,439,l),
(274,439,o),
(252,461,o),
(252,501,cs),
(252,601,l),
(377,439,l),
(377,334,l),
(377,301,o),
(377,310,o),
(377,297,cs),
(377,296,ls),
(377,283,o),
(377,293,o),
(377,260,c),
(377,209,l),
(377,176,o),
(377,185,o),
(377,172,cs),
(377,171,ls),
(377,158,o),
(377,168,o),
(377,135,cs),
(377,0,l),
(667,0,l),
(667,434,l),
(617,434,o),
(600,460,o),
(600,500,cs),
(600,564,ls),
(600,604,o),
(617,636,o),
(667,636,c),
(667,716,l),
(375,716,l),
(375,636,l),
(425,636,o),
(442,609,o),
(442,569,cs),
(442,480,l),
(261,716,l),
(29,716,l),
(29,636,l),
(82,636,o),
(99,607,o),
(99,567,cs),
(99,500,ls),
(99,457,o),
(90,434,o),
(29,434,c),
(29,334,l),
(29,301,o),
(29,310,o),
(29,297,cs),
(29,296,ls),
(29,283,o),
(29,293,o),
(29,260,c),
(29,209,l),
(29,176,o),
(29,185,o),
(29,172,cs),
(29,171,ls),
(29,158,o),
(29,168,o),
(29,135,cs),
(29,26,ls),
(29,-11,o),
(29,-65,o),
(-23,-99,c),
(-2,-140,l)
);
}
);
width = 696;
},
{
associatedMasterId = m01;
attr = {
coordinates = (
50
);
};
layerId = "2F23523A-61FB-45D7-B1CB-004F2654AEB7";
name = "Jan 26, 24 at 06:23";
shapes = (
{
closed = 1;
nodes = (
(170,-140,o),
(315,-121,o),
(322,74,c),
(322,439,l),
(274,439,o),
(252,461,o),
(252,501,cs),
(252,601,l),
(377,439,l),
(377,334,l),
(409,334,o),
(441,330,o),
(441,298,cs),
(441,296,ls),
(441,264,o),
(409,260,o),
(377,260,c),
(377,209,l),
(409,209,o),
(441,205,o),
(441,173,cs),
(441,171,ls),
(441,139,o),
(409,135,o),
(377,135,c),
(377,0,l),
(667,0,l),
(667,434,l),
(617,434,o),
(600,460,o),
(600,500,cs),
(600,564,ls),
(600,604,o),
(617,636,o),
(667,636,c),
(667,716,l),
(375,716,l),
(375,636,l),
(425,636,o),
(442,609,o),
(442,569,cs),
(442,480,l),
(261,716,l),
(29,716,l),
(29,636,l),
(82,636,o),
(99,607,o),
(99,567,cs),
(99,500,ls),
(99,457,o),
(90,434,o),
(29,434,c),
(29,334,l),
(61,334,o),
(93,330,o),
(93,298,cs),
(93,296,ls),
(93,264,o),
(61,260,o),
(29,260,c),
(29,209,l),
(61,209,o),
(93,205,o),
(93,173,cs),
(93,171,ls),
(93,139,o),
(61,135,o),
(29,135,c),
(29,26,ls),
(29,-11,o),
(29,-65,o),
(-23,-99,c),
(-2,-140,l)
);
}
);
width = 696;
},
{
associatedMasterId = m01;
attr = {
coordinates = (
100
);
};
layerId = "87A6C68F-C9A2-4B85-B750-D19BAE267A16";
name = "Jan 26, 24 at 06:23";
shapes = (
{
closed = 1;
nodes = (
(170,-140,o),
(315,-121,o),
(322,74,c),
(322,439,l),
(274,439,o),
(252,461,o),
(252,501,cs),
(252,601,l),
(377,439,l),
(377,334,l),
(388,334,o),
(448,334,o),
(489,376,c),
(492,375,l),
(480,285,o),
(408,260,o),
(377,260,c),
(377,209,l),
(388,209,o),
(448,209,o),
(489,251,c),
(492,250,l),
(480,160,o),
(408,135,o),
(377,135,c),
(377,0,l),
(667,0,l),
(667,434,l),
(617,434,o),
(600,460,o),
(600,500,cs),
(600,564,ls),
(600,604,o),
(617,636,o),
(667,636,c),
(667,716,l),
(375,716,l),
(375,636,l),
(425,636,o),
(442,609,o),
(442,569,cs),
(442,480,l),
(261,716,l),
(29,716,l),
(29,636,l),
(82,636,o),
(99,607,o),
(99,567,cs),
(99,500,ls),
(99,457,o),
(90,434,o),
(29,434,c),
(29,334,l),
(40,334,o),
(100,334,o),
(141,376,c),
(144,375,l),
(132,285,o),
(60,260,o),
(29,260,c),
(29,209,l),
(40,209,o),
(100,209,o),
(141,251,c),
(144,250,l),
(132,160,o),
(60,135,o),
(29,135,c),
(29,26,ls),
(29,-11,o),
(29,-65,o),
(-23,-99,c),
(-2,-140,l)
);
}
);
width = 696;
}
);
unicode = 413;
},
{
color = 7;
glyphname = Nlongrightleg;
lastChange = "2024-01-31 14:46:24 +0000";
layers = (
{
layerId = m01;
shapes = (
{
closed = 1;
nodes = (
(667,-138,l),
(667,433,l),
(617,433,o),
(600,459,o),
(600,499,cs),
(600,525,ls),
(600,686,o),
(493,720,o),
(404,720,cs),
(350,720,o),
(301,706,o),
(257,665,c),
(257,735,l),
(225,725,o),
(122,716,o),
(29,716,c),
(29,636,l),
(82,636,o),
(99,607,o),
(99,567,cs),
(99,500,ls),
(99,457,o),
(90,434,o),
(29,434,c),
(29,334,l),
(29,301,o),
(29,310,o),
(29,297,cs),
(29,296,ls),
(29,283,o),
(29,293,o),
(29,260,c),
(29,209,l),
(29,176,o),
(29,185,o),
(29,172,cs),
(29,171,ls),
(29,158,o),
(29,168,o),
(29,135,c),
(29,0,l),
(322,0,l),
(322,439,l),
(274,439,o),
(257,461,o),
(257,501,cs),
(257,600,l),
(279,619,o),
(308,633,o),
(344,633,cs),
(439,633,o),
(442,562,o),
(442,542,cs),
(442,494,ls),
(442,454,o),
(425,439,o),
(377,439,c),
(377,334,l),
(377,301,o),
(377,310,o),
(377,297,cs),
(377,296,ls),
(377,283,o),
(377,293,o),
(377,260,c),
(377,209,l),
(377,176,o),
(377,185,o),
(377,172,cs),
(377,171,ls),
(377,158,o),
(377,168,o),
(377,135,c),
(377,-138,l)
);
}
);
width = 696;
},
{
associatedMasterId = m01;
attr = {
coordinates = (
50
);
};
layerId = "95DA4BBD-42CA-4C10-B1EA-95F300669733";
name = "{50} Jan 26, 24 at 06:28";
shapes = (
{
closed = 1;
nodes = (
(667,-138,l),
(667,433,l),
(617,433,o),
(600,459,o),
(600,499,cs),
(600,525,ls),
(600,686,o),
(493,720,o),
(404,720,cs),
(350,720,o),
(301,706,o),
(257,665,c),
(257,735,l),
(225,725,o),
(122,716,o),
(29,716,c),
(29,636,l),
(82,636,o),
(99,607,o),
(99,567,cs),
(99,500,ls),
(99,457,o),
(90,434,o),
(29,434,c),
(29,334,l),
(61,334,o),
(93,330,o),
(93,298,cs),
(93,296,ls),
(93,264,o),
(61,260,o),
(29,260,c),
(29,209,l),
(61,209,o),
(93,205,o),
(93,173,cs),
(93,171,ls),
(93,139,o),
(61,135,o),
(29,135,c),
(29,0,l),
(322,0,l),
(322,439,l),
(274,439,o),
(257,461,o),
(257,501,cs),
(257,600,l),
(279,619,o),
(308,633,o),
(344,633,cs),
(439,633,o),
(442,562,o),
(442,542,cs),
(442,494,ls),
(442,454,o),
(425,439,o),
(377,439,c),
(377,334,l),
(409,334,o),
(441,330,o),
(441,298,cs),
(441,296,ls),
(441,264,o),
(409,260,o),
(377,260,c),
(377,209,l),
(409,209,o),
(441,205,o),
(441,173,cs),
(441,171,ls),
(441,139,o),
(409,135,o),
(377,135,c),
(377,-138,l)
);
}
);
width = 696;
},
{
associatedMasterId = m01;
attr = {
coordinates = (
100
);
};
layerId = "AAD1871A-976C-4854-9545-D3EAB2353D70";
name = "Jan 26, 24 at 06:26";
shapes = (
{
closed = 1;
nodes = (
(667,-138,l),
(667,433,l),
(617,433,o),
(600,459,o),
(600,499,cs),
(600,525,ls),
(600,686,o),
(493,720,o),
(404,720,cs),
(350,720,o),
(301,706,o),
(257,665,c),
(257,735,l),
(225,725,o),
(122,716,o),
(29,716,c),
(29,636,l),
(82,636,o),
(99,607,o),
(99,567,cs),
(99,500,ls),
(99,457,o),
(90,434,o),
(29,434,c),
(29,334,l),
(40,334,o),
(100,334,o),
(141,376,c),
(144,375,l),
(132,285,o),
(60,260,o),
(29,260,c),
(29,209,l),
(40,209,o),
(100,209,o),
(141,251,c),
(144,250,l),
(132,160,o),
(60,135,o),
(29,135,c),
(29,0,l),
(322,0,l),
(322,439,l),
(274,439,o),
(257,461,o),
(257,501,cs),
(257,600,l),
(279,619,o),
(308,633,o),
(344,633,cs),
(439,633,o),
(442,562,o),
(442,542,cs),
(442,494,ls),
(442,454,o),
(425,439,o),
(377,439,c),
(377,334,l),
(388,334,o),
(448,334,o),
(489,376,c),
(492,375,l),
(480,285,o),
(408,260,o),
(377,260,c),
(377,209,l),
(388,209,o),
(448,209,o),
(489,251,c),
(492,250,l),
(480,160,o),
(408,135,o),
(377,135,c),
(377,-138,l)
);
}
);
width = 696;
}
);
unicode = 544;
},
{
glyphname = Eng;
kernLeft = H;
kernRight = H;
lastChange = "2024-01-31 14:46:24 +0000";
layers = (
{
layerId = m01;
shapes = (
{
closed = 1;
nodes = (
(517,-140,o),
(667,-121,o),
(667,74,cs),
(667,434,l),
(617,434,o),
(600,460,o),
(600,500,cs),
(600,564,ls),
(600,604,o),
(617,636,o),
(667,636,c),
(667,716,l),
(375,716,l),
(375,636,l),
(425,636,o),
(442,609,o),
(442,569,cs),
(442,480,l),
(261,716,l),
(29,716,l),
(29,636,l),
(82,636,o),
(99,607,o),
(99,567,cs),
(99,500,ls),
(99,457,o),
(90,434,o),
(29,434,c),
(29,334,l),
(29,301,o),
(29,310,o),
(29,297,cs),
(29,296,ls),
(29,283,o),
(29,293,o),
(29,260,c),
(29,209,l),
(29,176,o),
(29,185,o),
(29,172,cs),
(29,171,ls),
(29,158,o),
(29,168,o),
(29,135,c),
(29,0,l),
(322,0,l),
(322,439,l),
(274,439,o),
(252,461,o),
(252,501,cs),
(252,601,l),
(377,439,l),
(377,334,l),
(377,301,o),
(377,310,o),
(377,297,cs),
(377,296,ls),
(377,283,o),
(377,293,o),
(377,260,c),
(377,209,l),
(377,176,o),
(377,185,o),
(377,172,cs),
(377,171,ls),
(377,158,o),
(377,168,o),
(377,135,c),
(377,26,ls),
(377,-11,o),
(377,-66,o),
(324,-99,c),
(345,-140,l)
);
}
);
width = 696;
},
{
associatedMasterId = m01;
attr = {
coordinates = (
50
);
};
layerId = "A7A73733-26EE-47EF-9241-91167E2B9229";
name = "{50} Jan 26, 24 at 06:29";
shapes = (
{
closed = 1;
nodes = (
(517,-140,o),
(667,-121,o),
(667,74,cs),
(667,434,l),
(617,434,o),
(600,460,o),
(600,500,cs),
(600,564,ls),
(600,604,o),
(617,636,o),
(667,636,c),
(667,716,l),
(375,716,l),
(375,636,l),
(425,636,o),
(442,609,o),
(442,569,cs),
(442,480,l),
(261,716,l),
(29,716,l),
(29,636,l),
(82,636,o),
(99,607,o),
(99,567,cs),
(99,500,ls),
(99,457,o),
(90,434,o),
(29,434,c),
(29,334,l),
(61,334,o),
(93,330,o),
(93,298,cs),
(93,296,ls),
(93,264,o),
(61,260,o),
(29,260,c),
(29,209,l),
(61,209,o),
(93,205,o),
(93,173,cs),
(93,171,ls),
(93,139,o),
(61,135,o),
(29,135,c),
(29,0,l),
(322,0,l),
(322,439,l),
(274,439,o),
(252,461,o),
(252,501,cs),
(252,601,l),
(377,439,l),
(377,334,l),
(409,334,o),
(441,330,o),
(441,298,cs),
(441,296,ls),
(441,264,o),
(409,260,o),
(377,260,c),
(377,209,l),
(409,209,o),
(441,205,o),
(441,173,cs),
(441,171,ls),
(441,139,o),
(409,135,o),
(377,135,c),
(377,26,ls),
(377,-11,o),
(377,-66,o),
(324,-99,c),
(345,-140,l)
);
}
);
width = 696;
},
{
associatedMasterId = m01;
attr = {
coordinates = (
100
);
};
layerId = "C826C0D5-9EB5-4563-8577-68FB07706502";
name = "Jan 26, 24 at 06:29";
shapes = (
{
closed = 1;
nodes = (
(517,-140,o),
(667,-121,o),
(667,74,cs),
(667,434,l),
(617,434,o),
(600,460,o),
(600,500,cs),
(600,564,ls),
(600,604,o),
(617,636,o),
(667,636,c),
(667,716,l),
(375,716,l),
(375,636,l),
(425,636,o),
(442,609,o),
(442,569,cs),
(442,480,l),
(261,716,l),
(29,716,l),
(29,636,l),
(82,636,o),
(99,607,o),
(99,567,cs),
(99,500,ls),
(99,457,o),
(90,434,o),
(29,434,c),
(29,334,l),
(40,334,o),
(100,334,o),
(141,376,c),
(144,375,l),
(132,285,o),
(60,260,o),
(29,260,c),
(29,209,l),
(40,209,o),
(100,209,o),
(141,251,c),
(144,250,l),
(132,160,o),
(60,135,o),
(29,135,c),
(29,0,l),
(322,0,l),
(322,439,l),
(274,439,o),
(252,461,o),
(252,501,cs),
(252,601,l),
(377,439,l),
(377,334,l),
(388,334,o),
(448,334,o),
(489,376,c),
(492,375,l),
(480,285,o),
(408,260,o),
(377,260,c),
(377,209,l),
(388,209,o),
(448,209,o),
(489,251,c),
(492,250,l),
(480,160,o),
(408,135,o),
(377,135,c),
(377,26,ls),
(377,-11,o),
(377,-66,o),
(324,-99,c),
(345,-140,l)
);
}
);
width = 696;
}
);
unicode = 330;
},
{
glyphname = O;
kernLeft = O;
kernRight = O;
lastChange = "2024-01-31 14:46:24 +0000";
layers = (
{
anchors = (
{
name = bottom;
pos = (317,0);
},
{
name = center;
pos = (317,358);
},
{
name = horn;
pos = (548,642);
},
{
name = ogonek;
pos = (416,-6);
},
{
name = top;
pos = (317,716);
},
{
name = topleft;
pos = (20,716);
},
{
name = topright;
pos = (614,716);
}
);
layerId = m01;
shapes = (
{
closed = 1;
nodes = (
(416,-6,ls),
(509,-6,o),
(582,52,o),
(601,135,cs),
(603,144,o),
(605,158,o),
(605,171,cs),
(605,172,ls),
(605,185,o),
(605,176,o),
(605,209,cs),
(605,260,ls),
(605,293,o),
(605,283,o),
(605,296,cs),
(605,297,ls),
(605,310,o),
(605,301,o),
(605,334,cs),
(605,536,ls),
(605,643,o),
(525,722,o),
(416,722,cs),
(218,722,ls),
(109,722,o),
(29,642,o),
(29,536,cs),
(29,334,ls),
(29,301,o),
(29,310,o),
(29,297,cs),
(29,296,ls),
(29,283,o),
(29,293,o),
(29,260,cs),
(29,209,ls),
(29,175,o),
(29,184,o),
(29,171,cs),
(29,170,ls),
(29,161,o),
(31,144,o),
(33,135,cs),
(52,52,o),
(125,-6,o),
(218,-6,cs)
);
},
{
closed = 1;
nodes = (
(243,439,o),
(231,459,o),
(231,492,cs),
(231,569,ls),
(231,609,o),
(247,636,o),
(297,636,cs),
(337,636,ls),
(387,636,o),
(403,609,o),
(403,569,cs),
(403,492,ls),
(403,459,o),
(391,439,o),
(364,439,cs),
(347,439,o),
(325,449,o),
(321,501,c),
(313,501,l),
(309,449,o),
(287,439,o),
(270,439,cs)
);
}
);
width = 634;
},
{
anchors = (
{
name = bottom;
pos = (317,0);
},
{
name = center;
pos = (317,358);
},
{
name = horn;
pos = (548,642);
},
{
name = ogonek;
pos = (416,-6);
},
{
name = top;
pos = (317,716);
},
{
name = topleft;
pos = (20,716);
},
{
name = topright;
pos = (614,716);
}
);
associatedMasterId = m01;
attr = {
coordinates = (
50
);
};
layerId = "9716C9B4-6089-4943-A39F-67D9F2CCBF15";
name = "Jan 11, 24 at 10:22";
shapes = (
{
closed = 1;
nodes = (
(416,-6,ls),
(509,-6,o),
(582,52,o),
(601,135,c),
(570,135,o),
(541,140,o),
(541,171,cs),
(541,173,ls),
(541,205,o),
(573,209,o),
(605,209,c),
(605,260,l),
(573,260,o),
(541,264,o),
(541,296,cs),
(541,298,ls),
(541,330,o),
(573,334,o),
(605,334,c),
(605,536,ls),
(605,643,o),
(525,722,o),
(416,722,cs),
(218,722,ls),
(109,722,o),
(29,643,o),
(29,536,cs),
(29,334,l),
(61,334,o),
(93,330,o),
(93,298,cs),
(93,296,ls),
(93,264,o),
(61,260,o),
(29,260,c),
(29,209,l),
(61,209,o),
(93,205,o),
(93,173,cs),
(93,171,ls),
(93,140,o),
(64,135,o),
(33,135,c),
(52,52,o),
(125,-6,o),
(218,-6,cs)
);
},
{
closed = 1;
nodes = (
(243,439,o),
(231,459,o),
(231,492,cs),
(231,569,ls),
(231,609,o),
(247,636,o),
(297,636,cs),
(337,636,ls),
(387,636,o),
(403,609,o),
(403,569,cs),
(403,492,ls),
(403,459,o),
(391,439,o),
(364,439,cs),
(347,439,o),
(325,449,o),
(321,501,c),
(313,501,l),
(309,449,o),
(287,439,o),
(270,439,cs)
);
}
);
width = 634;
},
{
anchors = (
{
name = bottom;
pos = (317,0);
},
{
name = center;
pos = (317,358);
},
{
name = horn;
pos = (548,642);
},
{
name = ogonek;
pos = (416,-6);
},
{
name = top;
pos = (317,716);
},
{
name = topleft;
pos = (20,716);
},
{
name = topright;
pos = (614,716);
}
);
associatedMasterId = m01;
attr = {
coordinates = (
100
);
};
background = {
shapes = (
{
closed = 0;
nodes = (
(29,180,ls),
(29,73,o),
(109,-6,o),
(218,-6,cs),
(416,-6,ls),
(525,-6,o),
(605,73,o),
(605,180,cs)
);
}
);
};
layerId = "5697E2DC-1AEC-4DDF-AA18-0DC7816D9412";
name = "Jan 11, 24 at 10:22";
shapes = (
{
closed = 1;
nodes = (
(416,-6,ls),
(509,-6,o),
(582,52,o),
(601,135,c),
(568,137,o),
(502,164,o),
(490,250,c),
(493,251,l),
(534,209,o),
(594,209,o),
(605,209,c),
(605,260,l),
(574,260,o),
(502,285,o),
(490,375,c),
(493,376,l),
(534,334,o),
(594,334,o),
(605,334,c),
(605,536,ls),
(605,643,o),
(525,722,o),
(416,722,cs),
(218,722,ls),
(109,722,o),
(29,643,o),
(29,536,cs),
(29,334,l),
(40,334,o),
(100,334,o),
(141,376,c),
(144,375,l),
(132,285,o),
(60,260,o),
(29,260,c),
(29,209,l),
(40,209,o),
(100,209,o),
(141,251,c),
(144,250,l),
(132,164,o),
(66,137,o),
(33,135,c),
(52,52,o),
(125,-6,o),
(218,-6,cs)
);
},
{
closed = 1;
nodes = (
(243,439,o),
(231,459,o),
(231,492,cs),
(231,569,ls),
(231,609,o),
(247,636,o),
(297,636,cs),
(337,636,ls),
(387,636,o),
(403,609,o),
(403,569,cs),
(403,492,ls),
(403,459,o),
(391,439,o),
(364,439,cs),
(347,439,o),
(325,449,o),
(321,501,c),
(313,501,l),
(309,449,o),
(287,439,o),
(270,439,cs)
);
}
);
width = 634;
}
);
unicode = 79;
},
{
glyphname = OU;
kernLeft = O;
kernRight = O;
lastChange = "2024-01-31 14:46:24 +0000";
layers = (
{
layerId = m01;
name = Regular;
shapes = (
{
closed = 1;
nodes = (
(426,-6,ls),
(519,-6,o),
(592,52,o),
(611,135,cs),
(613,144,o),
(615,158,o),
(615,171,cs),
(615,172,ls),
(615,185,o),
(615,176,o),
(615,209,cs),
(615,260,ls),
(615,293,o),
(615,283,o),
(615,296,cs),
(615,297,ls),
(615,310,o),
(615,301,o),
(615,334,c),
(615,375,ls),
(615,483,o),
(560,540,o),
(457,540,c),
(457,550,l),
(526,550,ls),
(580,550,o),
(615,578,o),
(615,631,cs),
(615,716,l),
(416,716,l),
(416,606,ls),
(416,587,o),
(398,575,o),
(369,575,cs),
(275,575,ls),
(246,575,o),
(228,587,o),
(228,606,cs),
(228,716,l),
(29,716,l),
(29,631,ls),
(29,578,o),
(64,550,o),
(118,550,cs),
(187,550,l),
(187,540,l),
(84,540,o),
(29,483,o),
(29,375,cs),
(29,334,l),
(29,301,o),
(29,310,o),
(29,297,cs),
(29,296,ls),
(29,283,o),
(29,293,o),
(29,260,cs),
(29,209,ls),
(29,175,o),
(29,184,o),
(29,171,cs),
(29,170,ls),
(29,157,o),
(31,144,o),
(33,135,cs),
(52,52,o),
(125,-6,o),
(218,-6,cs)
);
},
{
closed = 1;
nodes = (
(246,429,o),
(228,439,o),
(228,467,cs),
(228,487,o),
(245,505,o),
(275,505,cs),
(369,505,ls),
(399,505,o),
(416,487,o),
(416,467,cs),
(416,444,o),
(398,429,o),
(369,429,cs),
(275,429,ls)
);
}
);
width = 644;
},
{
associatedMasterId = m01;
attr = {
coordinates = (
50
);
};
layerId = "997A146B-C475-4CB1-A6DB-469D16E9F68A";
name = "Jan 26, 24 at 06:38";
shapes = (
{
closed = 1;
nodes = (
(426,-6,ls),
(519,-6,o),
(592,52,o),
(611,135,c),
(580,135,o),
(551,140,o),
(551,171,cs),
(551,173,ls),
(551,205,o),
(583,209,o),
(615,209,c),
(615,260,l),
(583,260,o),
(551,264,o),
(551,296,cs),
(551,298,ls),
(551,330,o),
(583,334,o),
(615,334,c),
(615,375,ls),
(615,483,o),
(560,540,o),
(457,540,c),
(457,550,l),
(526,550,ls),
(580,550,o),
(615,578,o),
(615,631,cs),
(615,716,l),
(416,716,l),
(416,606,ls),
(416,587,o),
(398,575,o),
(369,575,cs),
(275,575,ls),
(246,575,o),
(228,587,o),
(228,606,cs),
(228,716,l),
(29,716,l),
(29,631,ls),
(29,578,o),
(64,550,o),
(118,550,cs),
(187,550,l),
(187,540,l),
(84,540,o),
(29,483,o),
(29,375,cs),
(29,334,l),
(61,334,o),
(93,330,o),
(93,298,cs),
(93,296,ls),
(93,264,o),
(61,260,o),
(29,260,c),
(29,209,l),
(61,209,o),
(93,205,o),
(93,173,cs),
(93,171,ls),
(93,140,o),
(64,135,o),
(33,135,c),
(52,52,o),
(125,-6,o),
(218,-6,cs)
);
},
{
closed = 1;
nodes = (
(246,429,o),
(228,439,o),
(228,467,cs),
(228,487,o),
(245,505,o),
(275,505,cs),
(369,505,ls),
(399,505,o),
(416,487,o),
(416,467,cs),
(416,444,o),
(398,429,o),
(369,429,cs),
(275,429,ls)
);
}
);
width = 644;
},
{
associatedMasterId = m01;
attr = {
coordinates = (
100
);
};
layerId = "01A5DA41-A071-4468-8A33-4F245E7A98B9";
name = "Jan 26, 24 at 06:37";
shapes = (
{
closed = 1;
nodes = (
(426,-6,ls),
(519,-6,o),
(592,52,o),
(611,135,c),
(578,137,o),
(512,164,o),
(500,250,c),
(503,251,l),
(544,209,o),
(604,209,o),
(615,209,c),
(615,260,l),
(584,260,o),
(512,285,o),
(500,375,c),
(503,376,l),
(544,334,o),
(604,334,o),
(615,334,c),
(615,375,ls),
(615,483,o),
(560,540,o),
(457,540,c),
(457,550,l),
(526,550,ls),
(580,550,o),
(615,578,o),
(615,631,cs),
(615,716,l),
(416,716,l),
(416,606,ls),
(416,587,o),
(398,575,o),
(369,575,cs),
(275,575,ls),
(246,575,o),
(228,587,o),
(228,606,cs),
(228,716,l),
(29,716,l),
(29,631,ls),
(29,578,o),
(64,550,o),
(118,550,cs),
(187,550,l),
(187,540,l),
(84,540,o),
(29,483,o),
(29,375,cs),
(29,334,l),
(40,334,o),
(100,334,o),
(141,376,c),
(144,375,l),
(132,285,o),
(60,260,o),
(29,260,c),
(29,209,l),
(40,209,o),
(100,209,o),
(141,251,c),
(144,250,l),
(132,164,o),
(66,137,o),
(33,135,c),
(52,52,o),
(125,-6,o),
(218,-6,cs)
);
},
{
closed = 1;
nodes = (
(246,429,o),
(228,439,o),
(228,467,cs),
(228,487,o),
(245,505,o),
(275,505,cs),
(369,505,ls),
(399,505,o),
(416,487,o),
(416,467,cs),
(416,444,o),
(398,429,o),
(369,429,cs),
(275,429,ls)
);
}
);
width = 644;
}
);
unicode = 546;
},
{
glyphname = Obarred;
kernLeft = O;
kernRight = O;
lastChange = "2024-01-31 14:46:24 +0000";
layers = (
{
anchors = (
{
name = bottom;
pos = (325,0);
},
{
name = center;
pos = (325,358);
},
{
name = horn;
pos = (559,642);
},
{
name = ogonek;
pos = (417,-8);
},
{
name = top;
pos = (318,716);
},
{
name = topleft;
pos = (-12,716);
},
{
name = topright;
pos = (614,716);
}
);
layerId = m01;
shapes = (
{
closed = 1;
nodes = (
(464,511,l),
(464,563,l),
(165,563,l),
(165,511,l)
);
},
{
closed = 1;
nodes = (
(416,-6,ls),
(509,-6,o),
(582,52,o),
(601,135,cs),
(603,144,o),
(605,158,o),
(605,171,cs),
(605,172,ls),
(605,185,o),
(605,176,o),
(605,209,cs),
(605,260,ls),
(605,293,o),
(605,283,o),
(605,296,cs),
(605,297,ls),
(605,310,o),
(605,301,o),
(605,334,cs),
(605,536,ls),
(605,643,o),
(525,722,o),
(416,722,cs),
(218,722,ls),
(109,722,o),
(29,642,o),
(29,536,cs),
(29,334,ls),
(29,301,o),
(29,310,o),
(29,297,cs),
(29,296,ls),
(29,283,o),
(29,293,o),
(29,260,cs),
(29,209,ls),
(29,175,o),
(29,184,o),
(29,171,cs),
(29,170,ls),
(29,157,o),
(31,144,o),
(33,135,cs),
(52,52,o),
(125,-6,o),
(218,-6,cs)
);
},
{
closed = 1;
nodes = (
(403,466,o),
(387,439,o),
(337,439,cs),
(297,439,ls),
(247,439,o),
(231,466,o),
(231,506,cs),
(231,569,ls),
(231,609,o),
(247,636,o),
(297,636,cs),
(337,636,ls),
(387,636,o),
(403,609,o),
(403,569,cs),
(403,506,ls)
);
}
);
width = 634;
},
{
anchors = (
{
name = bottom;
pos = (325,0);
},
{
name = center;
pos = (325,358);
},
{
name = horn;
pos = (559,642);
},
{
name = ogonek;
pos = (417,-8);
},
{
name = top;
pos = (318,716);
},
{
name = topleft;
pos = (-12,716);
},
{
name = topright;
pos = (614,716);
}
);
associatedMasterId = m01;
attr = {
coordinates = (
50
);
};
layerId = "130D0F0C-3D6A-4BD7-A855-F4BBBD12F029";
name = "Jan 26, 24 at 06:46";
shapes = (
{
closed = 1;
nodes = (
(464,511,l),
(464,563,l),
(165,563,l),
(165,511,l)
);
},
{
closed = 1;
nodes = (
(416,-6,ls),
(509,-6,o),
(582,52,o),
(601,135,c),
(570,135,o),
(541,140,o),
(541,171,cs),
(541,173,ls),
(541,205,o),
(573,209,o),
(605,209,c),
(605,260,l),
(573,260,o),
(541,264,o),
(541,296,cs),
(541,298,ls),
(541,330,o),
(573,334,o),
(605,334,c),
(605,536,ls),
(605,643,o),
(525,722,o),
(416,722,cs),
(218,722,ls),
(109,722,o),
(29,643,o),
(29,536,cs),
(29,334,l),
(61,334,o),
(93,330,o),
(93,298,cs),
(93,296,ls),
(93,264,o),
(61,260,o),
(29,260,c),
(29,209,l),
(61,209,o),
(93,205,o),
(93,173,cs),
(93,171,ls),
(93,140,o),
(64,135,o),
(33,135,c),
(52,52,o),
(125,-6,o),
(218,-6,cs)
);
},
{
closed = 1;
nodes = (
(403,466,o),
(387,439,o),
(337,439,cs),
(297,439,ls),
(247,439,o),
(231,466,o),
(231,506,cs),
(231,569,ls),
(231,609,o),
(247,636,o),
(297,636,cs),
(337,636,ls),
(387,636,o),
(403,609,o),
(403,569,cs),
(403,506,ls)
);
}
);
width = 634;
},
{
anchors = (
{
name = bottom;
pos = (325,0);
},
{
name = center;
pos = (325,358);
},
{
name = horn;
pos = (559,642);
},
{
name = ogonek;
pos = (417,-8);
},
{
name = top;
pos = (318,716);
},
{
name = topleft;
pos = (-12,716);
},
{
name = topright;
pos = (614,716);
}
);
associatedMasterId = m01;
attr = {
coordinates = (
100
);
};
layerId = "5871B903-C210-41F6-A324-7691BB96320C";
name = "Jan 26, 24 at 06:46";
shapes = (
{
closed = 1;
nodes = (
(464,511,l),
(464,563,l),
(165,563,l),
(165,511,l)
);
},
{
closed = 1;
nodes = (
(416,-6,ls),
(509,-6,o),
(582,52,o),
(601,135,c),
(568,137,o),
(502,164,o),
(490,250,c),
(493,251,l),
(534,209,o),
(594,209,o),
(605,209,c),
(605,260,l),
(574,260,o),
(502,285,o),
(490,375,c),
(493,376,l),
(534,334,o),
(594,334,o),
(605,334,c),
(605,536,ls),
(605,643,o),
(525,722,o),
(416,722,cs),
(218,722,ls),
(109,722,o),
(29,643,o),
(29,536,cs),
(29,334,l),
(40,334,o),
(100,334,o),
(141,376,c),
(144,375,l),
(132,285,o),
(60,260,o),
(29,260,c),
(29,209,l),
(40,209,o),
(100,209,o),
(141,251,c),
(144,250,l),
(132,164,o),
(66,137,o),
(33,135,c),
(52,52,o),
(125,-6,o),
(218,-6,cs)
);
},
{
closed = 1;
nodes = (
(403,466,o),
(387,439,o),
(337,439,cs),
(297,439,ls),
(247,439,o),
(231,466,o),
(231,506,cs),
(231,569,ls),
(231,609,o),
(247,636,o),
(297,636,cs),
(337,636,ls),
(387,636,o),
(403,609,o),
(403,569,cs),
(403,506,ls)
);
}
);
width = 634;
}
);
unicode = 415;
},
{
glyphname = "Omega-latin";
lastChange = "2024-01-31 14:46:24 +0000";
layers = (
{
layerId = m01;
shapes = (
{
closed = 1;
nodes = (
(343,-6,o),
(427,49,o),
(427,193,c),
(437,193,l),
(437,49,o),
(521,-6,o),
(635,-6,cs),
(739,-6,o),
(812,52,o),
(831,135,cs),
(833,144,o),
(835,157,o),
(835,170,cs),
(835,171,ls),
(835,184,o),
(835,175,o),
(835,209,cs),
(835,260,ls),
(835,293,o),
(835,283,o),
(835,296,cs),
(835,297,ls),
(835,310,o),
(835,301,o),
(835,334,c),
(835,498,ls),
(835,607,o),
(822,716,o),
(651,716,cs),
(610,716,l),
(610,634,l),
(665,634,o),
(672,599,o),
(672,532,cs),
(672,498,ls),
(672,457,o),
(647,437,o),
(607,437,cs),
(565,437,ls),
(527,437,o),
(500,457,o),
(500,492,cs),
(500,528,o),
(517,552,o),
(562,552,c),
(562,640,l),
(302,640,l),
(302,552,l),
(347,552,o),
(364,528,o),
(364,492,cs),
(364,457,o),
(337,437,o),
(299,437,cs),
(257,437,ls),
(217,437,o),
(192,457,o),
(192,498,cs),
(192,532,ls),
(192,599,o),
(199,634,o),
(254,634,c),
(254,716,l),
(213,716,ls),
(42,716,o),
(29,607,o),
(29,498,cs),
(29,334,l),
(29,301,o),
(29,310,o),
(29,297,cs),
(29,296,ls),
(29,283,o),
(29,293,o),
(29,260,cs),
(29,209,ls),
(29,175,o),
(29,184,o),
(29,171,cs),
(29,170,ls),
(29,157,o),
(31,144,o),
(33,135,cs),
(52,52,o),
(125,-6,o),
(229,-6,cs)
);
}
);
width = 864;
},
{
associatedMasterId = m01;
attr = {
coordinates = (
50
);
};
layerId = "2DA7E8A6-D688-4A0E-9834-14A2F1BE420C";
name = "{50} Jan 26, 24 at 06:53";
shapes = (
{
closed = 1;
nodes = (
(343,-6,o),
(427,49,o),
(427,193,c),
(437,193,l),
(437,49,o),
(521,-6,o),
(635,-6,cs),
(739,-6,o),
(812,52,o),
(831,135,c),
(800,135,o),
(771,140,o),
(771,171,cs),
(771,173,ls),
(771,205,o),
(803,209,o),
(835,209,c),
(835,260,l),
(803,260,o),
(771,264,o),
(771,296,cs),
(771,298,ls),
(771,330,o),
(803,334,o),
(835,334,c),
(835,498,ls),
(835,607,o),
(822,716,o),
(651,716,cs),
(610,716,l),
(610,634,l),
(665,634,o),
(672,599,o),
(672,532,cs),
(672,498,ls),
(672,457,o),
(647,437,o),
(607,437,cs),
(565,437,ls),
(527,437,o),
(500,457,o),
(500,492,cs),
(500,528,o),
(517,552,o),
(562,552,c),
(562,640,l),
(302,640,l),
(302,552,l),
(347,552,o),
(364,528,o),
(364,492,cs),
(364,457,o),
(337,437,o),
(299,437,cs),
(257,437,ls),
(217,437,o),
(192,457,o),
(192,498,cs),
(192,532,ls),
(192,599,o),
(199,634,o),
(254,634,c),
(254,716,l),
(213,716,ls),
(42,716,o),
(29,607,o),
(29,498,cs),
(29,334,l),
(61,334,o),
(93,330,o),
(93,298,cs),
(93,296,ls),
(93,264,o),
(61,260,o),
(29,260,c),
(29,209,l),
(61,209,o),
(93,205,o),
(93,173,cs),
(93,171,ls),
(93,140,o),
(64,135,o),
(33,135,c),
(52,52,o),
(125,-6,o),
(229,-6,cs)
);
}
);
width = 864;
},
{
associatedMasterId = m01;
attr = {
coordinates = (
100
);
};
layerId = "7377A9C3-C34E-407F-BB16-63346E6C67BE";
name = "Jan 26, 24 at 06:52";
shapes = (
{
closed = 1;
nodes = (
(343,-6,o),
(427,49,o),
(427,193,c),
(437,193,l),
(437,49,o),
(521,-6,o),
(635,-6,cs),
(739,-6,o),
(812,52,o),
(831,135,c),
(798,137,o),
(732,164,o),
(720,250,c),
(723,251,l),
(764,209,o),
(824,209,o),
(835,209,c),
(835,260,l),
(804,260,o),
(732,285,o),
(720,375,c),
(723,376,l),
(764,334,o),
(824,334,o),
(835,334,c),
(835,498,ls),
(835,607,o),
(822,716,o),
(651,716,cs),
(610,716,l),
(610,634,l),
(665,634,o),
(672,599,o),
(672,532,cs),
(672,498,ls),
(672,457,o),
(647,437,o),
(607,437,cs),
(565,437,ls),
(527,437,o),
(500,457,o),
(500,492,cs),
(500,528,o),
(517,552,o),
(562,552,c),
(562,640,l),
(302,640,l),
(302,552,l),
(347,552,o),
(364,528,o),
(364,492,cs),
(364,457,o),
(337,437,o),
(299,437,cs),
(257,437,ls),
(217,437,o),
(192,457,o),
(192,498,cs),
(192,532,ls),
(192,599,o),
(199,634,o),
(254,634,c),
(254,716,l),
(213,716,ls),
(42,716,o),
(29,607,o),
(29,498,cs),
(29,334,l),
(40,334,o),
(100,334,o),
(141,376,c),
(144,375,l),
(132,285,o),
(60,260,o),
(29,260,c),
(29,209,l),
(40,209,o),
(100,209,o),
(141,251,c),
(144,250,l),
(132,164,o),
(66,137,o),
(33,135,c),
(52,52,o),
(125,-6,o),
(229,-6,cs)
);
}
);
width = 864;
}
);
unicode = 42934;
},
{
glyphname = Oslash;
kernLeft = O;
kernRight = O;
lastChange = "2024-01-31 14:46:24 +0000";
layers = (
{
anchors = (
{
name = bottom;
pos = (317,0);
},
{
name = center;
pos = (317,358);
},
{
name = horn;
pos = (548,642);
},
{
name = ogonek;
pos = (421,0);
},
{
name = top;
pos = (317,716);
},
{
name = topleft;
pos = (20,716);
},
{
name = topright;
pos = (614,716);
}
);
layerId = m01;
shapes = (
{
closed = 1;
nodes = (
(416,-6,ls),
(509,-6,o),
(582,52,o),
(601,135,cs),
(603,144,o),
(605,158,o),
(605,171,cs),
(605,172,ls),
(605,185,o),
(605,176,o),
(605,209,cs),
(605,260,ls),
(605,293,o),
(605,283,o),
(605,296,cs),
(605,297,ls),
(605,310,o),
(605,301,o),
(605,334,cs),
(605,536,ls),
(605,643,o),
(525,722,o),
(416,722,cs),
(218,722,ls),
(109,722,o),
(29,642,o),
(29,536,cs),
(29,334,ls),
(29,301,o),
(29,310,o),
(29,297,cs),
(29,296,ls),
(29,283,o),
(29,293,o),
(29,260,cs),
(29,209,ls),
(29,175,o),
(29,184,o),
(29,171,cs),
(29,170,ls),
(29,157,o),
(31,144,o),
(33,135,cs),
(52,52,o),
(125,-6,o),
(218,-6,cs)
);
},
{
closed = 1;
nodes = (
(156,-60,l),
(214,59,l),
(119,59,l),
(66,-60,l)
);
},
{
closed = 1;
nodes = (
(243,439,o),
(231,459,o),
(231,492,cs),
(231,569,ls),
(231,609,o),
(247,636,o),
(297,636,cs),
(337,636,ls),
(387,636,o),
(403,609,o),
(403,569,cs),
(403,492,ls),
(403,459,o),
(391,439,o),
(364,439,cs),
(347,439,o),
(325,449,o),
(321,501,c),
(313,501,l),
(309,449,o),
(287,439,o),
(270,439,cs)
);
},
{
closed = 1;
nodes = (
(478,671,l),
(550,791,l),
(460,791,l),
(383,671,l)
);
}
);
width = 634;
},
{
anchors = (
{
name = bottom;
pos = (317,0);
},
{
name = center;
pos = (317,358);
},
{
name = horn;
pos = (548,642);
},
{
name = ogonek;
pos = (421,0);
},
{
name = top;
pos = (317,716);
},
{
name = topleft;
pos = (20,716);
},
{
name = topright;
pos = (614,716);
}
);
associatedMasterId = m01;
attr = {
coordinates = (
50
);
};
layerId = "C9A40D48-8F92-492A-BA9F-1048EF4C4D03";
name = "Jan 26, 24 at 06:54";
shapes = (
{
closed = 1;
nodes = (
(416,-6,ls),
(509,-6,o),
(582,52,o),
(601,135,c),
(570,135,o),
(541,140,o),
(541,171,cs),
(541,173,ls),
(541,205,o),
(573,209,o),
(605,209,c),
(605,260,l),
(573,260,o),
(541,264,o),
(541,296,cs),
(541,298,ls),
(541,330,o),
(573,334,o),
(605,334,c),
(605,536,ls),
(605,643,o),
(525,722,o),
(416,722,cs),
(218,722,ls),
(109,722,o),
(29,643,o),
(29,536,cs),
(29,334,l),
(61,334,o),
(93,330,o),
(93,298,cs),
(93,296,ls),
(93,264,o),
(61,260,o),
(29,260,c),
(29,209,l),
(61,209,o),
(93,205,o),
(93,173,cs),
(93,171,ls),
(93,140,o),
(64,135,o),
(33,135,c),
(52,52,o),
(125,-6,o),
(218,-6,cs)
);
},
{
closed = 1;
nodes = (
(156,-60,l),
(214,59,l),
(119,59,l),
(66,-60,l)
);
},
{
closed = 1;
nodes = (
(243,439,o),
(231,459,o),
(231,492,cs),
(231,569,ls),
(231,609,o),
(247,636,o),
(297,636,cs),
(337,636,ls),
(387,636,o),
(403,609,o),
(403,569,cs),
(403,492,ls),
(403,459,o),
(391,439,o),
(364,439,cs),
(347,439,o),
(325,449,o),
(321,501,c),
(313,501,l),
(309,449,o),
(287,439,o),
(270,439,cs)
);
},
{
closed = 1;
nodes = (
(478,671,l),
(550,791,l),
(460,791,l),
(383,671,l)
);
}
);
width = 634;
},
{
anchors = (
{
name = bottom;
pos = (317,0);
},
{
name = center;
pos = (317,358);
},
{
name = horn;
pos = (548,642);
},
{
name = ogonek;
pos = (421,0);
},
{
name = top;
pos = (317,716);
},
{
name = topleft;
pos = (20,716);
},
{
name = topright;
pos = (614,716);
}
);
associatedMasterId = m01;
attr = {
coordinates = (
100
);
};
layerId = "BFA3EC11-1950-40D7-87E1-BEE236DD50D9";
name = "Jan 26, 24 at 06:54";
shapes = (
{
closed = 1;
nodes = (
(416,-6,ls),
(509,-6,o),
(582,52,o),
(601,135,c),
(568,137,o),
(502,164,o),
(490,250,c),
(493,251,l),
(534,209,o),
(594,209,o),
(605,209,c),
(605,260,l),
(574,260,o),
(502,285,o),
(490,375,c),
(493,376,l),
(534,334,o),
(594,334,o),
(605,334,c),
(605,536,ls),
(605,643,o),
(525,722,o),
(416,722,cs),
(218,722,ls),
(109,722,o),
(29,643,o),
(29,536,cs),
(29,334,l),
(40,334,o),
(100,334,o),
(141,376,c),
(144,375,l),
(132,285,o),
(60,260,o),
(29,260,c),
(29,209,l),
(40,209,o),
(100,209,o),
(141,251,c),
(144,250,l),
(132,164,o),
(66,137,o),
(33,135,c),
(52,52,o),
(125,-6,o),
(218,-6,cs)
);
},
{
closed = 1;
nodes = (
(156,-60,l),
(214,59,l),
(119,59,l),
(66,-60,l)
);
},
{
closed = 1;
nodes = (
(243,439,o),
(231,459,o),
(231,492,cs),
(231,569,ls),
(231,609,o),
(247,636,o),
(297,636,cs),
(337,636,ls),
(387,636,o),
(403,609,o),
(403,569,cs),
(403,492,ls),
(403,459,o),
(391,439,o),
(364,439,cs),
(347,439,o),
(325,449,o),
(321,501,c),
(313,501,l),
(309,449,o),
(287,439,o),
(270,439,cs)
);
},
{
closed = 1;
nodes = (
(478,671,l),
(550,791,l),
(460,791,l),
(383,671,l)
);
}
);
width = 634;
}
);
metricLeft = O;
metricRight = O;
unicode = 216;
},
